<svg width="57" height="57" viewBox="0 0 57 57" fill="none" xmlns="http://www.w3.org/2000/svg">
<path d="M48.5852 4.66448V1.71429C48.5852 0.772347 47.8186 0.00607605 46.8763 0.00607605H42.201C41.6086 0.00607605 41.0852 0.305103 40.7725 0.759767C33.1764 -1.28154 25.1024 0.851501 19.5269 6.42447C11.1595 14.7883 10.9609 28.2488 18.9413 36.8524L17.277 38.4721L16.2779 37.4734C15.4315 36.6274 14.0538 36.6274 13.2075 37.4734C10.3524 40.3273 3.49441 47.1823 0.947917 49.7277C-0.315972 50.9911 -0.315972 53.0466 0.947917 54.31L2.73126 56.0926C3.9418 57.3025 5.91126 57.3025 7.12191 56.0926C7.38531 55.8293 18.348 44.8713 19.4781 43.7416C20.3245 42.8954 20.3244 41.5186 19.4781 40.6726L18.4579 39.6529L20.1217 38.0337C23.7866 41.4312 28.5138 43.4815 33.5246 43.8281C33.5442 43.8294 33.5637 43.8302 33.5831 43.8302C34.018 43.8302 34.3846 43.4934 34.4153 43.0532C34.447 42.5934 34.1 42.1947 33.6399 42.1629C23.2191 41.4421 14.7759 32.8256 14.7759 21.9439C14.7759 8.51621 27.5504 -1.1543 40.4679 2.40675V4.55282C28.7118 0.898147 16.8127 9.74305 16.8127 21.9671C16.8127 31.9888 24.9493 40.1995 35.053 40.1995C43.6475 40.1995 48.1842 34.525 48.3583 34.4379C48.3583 34.4379 48.3609 34.435 48.3606 34.4353C48.3669 34.4285 48.3733 34.4216 48.3794 34.4144C51.5485 31.0261 53.2931 26.6069 53.2931 21.9671C53.2931 17.4288 51.6239 13.1014 48.5855 9.74349V6.8366C52.8457 10.6476 55.33 16.0558 55.33 21.9436C55.33 32.3019 47.5989 40.9073 37.384 42.0779C36.9259 42.1305 36.5971 42.5442 36.6495 43.0023C36.702 43.4603 37.1155 43.789 37.5742 43.7365C48.6255 42.47 56.9999 33.1609 57 21.9438C56.9998 15.0922 53.8896 8.81958 48.5852 4.66448ZM5.94088 54.9119C5.38167 55.4709 4.47162 55.4709 3.91229 54.9119L2.12894 53.1293C1.51616 52.5168 1.51616 51.5203 2.12894 50.9078L8.56211 44.4774L12.4709 48.3845L5.94088 54.9119ZM13.6519 47.2044L9.74302 43.2972L10.9253 42.1154L14.8341 46.0226L13.6519 47.2044ZM18.2972 42.561L16.0151 44.8421L12.1063 40.9349L14.3886 38.6537C14.5822 38.4601 14.9035 38.4602 15.0971 38.6537L18.2974 41.8527C18.4909 42.0465 18.4909 42.3674 18.2972 42.561ZM27.5729 36.7439C25.7653 35.8259 24.1472 34.5867 22.7955 33.1011V20.7267C22.7955 20.6916 22.824 20.6631 22.8589 20.6631H27.573V36.7439H27.5729ZM34.0203 38.4959C32.3837 38.3958 30.7854 38.0568 29.243 37.4783C29.243 37.2919 29.243 14.6988 29.243 14.3972C29.243 14.3623 29.2714 14.3338 29.3061 14.3338H34.0203V38.4959ZM34.0203 8.068V12.6645H29.3061C28.3504 12.6645 27.573 13.4418 27.573 14.3972V18.9937H22.8589C21.903 18.9937 21.1255 19.771 21.1255 20.7266V30.9312C14.0342 19.9616 21.9589 5.40392 35.0529 5.40392C36.911 5.40392 38.7296 5.70941 40.4679 6.31058V6.33518H35.7539C34.7978 6.33518 34.0203 7.11259 34.0203 8.068ZM40.4679 37.6236C38.8936 38.1682 37.2729 38.4603 35.6904 38.5178V8.06812C35.6904 8.03316 35.7189 8.00466 35.7539 8.00466H40.468V37.6236H40.4679ZM51.6229 21.9671C51.6229 25.4236 50.5565 28.7451 48.5852 31.526V23.8414C48.5852 23.3804 48.2115 23.0068 47.7503 23.0068C47.2891 23.0068 46.9153 23.3805 46.9153 23.8414V33.5288C45.533 34.947 43.8973 36.1062 42.1379 36.9411C42.1379 35.041 42.1379 3.33 42.1379 1.78076V1.73878C42.1379 1.70383 42.1663 1.67533 42.2011 1.67533H46.8764C46.8978 1.67533 46.9154 1.69281 46.9154 1.71429C46.9154 2.99601 46.9154 19.2377 46.9154 19.9465C46.9154 20.4074 47.2892 20.7811 47.7504 20.7811C48.2116 20.7811 48.5854 20.4074 48.5854 19.9465V12.4081C50.5564 15.1891 51.6229 18.5106 51.6229 21.9671Z" fill="#FDFDFD"/>
</svg>
