<svg width="55" height="57" viewBox="0 0 55 57" fill="none" xmlns="http://www.w3.org/2000/svg">
<path fill-rule="evenodd" clip-rule="evenodd" d="M36.1543 22.1952H33.0791V27.6914C33.0791 28.1121 32.7328 28.454 32.2895 28.454H26.8733C26.4854 30.5315 24.5738 32.1093 22.2882 32.1093C19.9887 32.1093 18.0771 30.5315 17.7031 28.454H12.2869C11.8436 28.454 11.4835 28.1121 11.4835 27.6914V22.1952H8.4083C7.97888 22.1952 7.61872 21.8533 7.61872 21.4325V14.0955C7.61872 13.6747 7.97888 13.3329 8.4083 13.3329H11.4835V7.83668C11.4835 7.41592 11.8436 7.07405 12.2869 7.07405H17.7031C18.0771 4.99654 19.9887 3.41869 22.2882 3.41869C24.5738 3.41869 26.4854 4.99654 26.8733 7.07405H32.2895C32.7328 7.07405 33.0791 7.41592 33.0791 7.83668V13.3329H36.1543C36.5976 13.3329 36.9577 13.6747 36.9577 14.0955V21.4325C36.9577 21.8533 36.5976 22.1952 36.1543 22.1952ZM45.74 57H41.7921C41.3904 57 41.058 56.7239 41.0026 56.3426L40.5593 53.1737C39.8944 52.9107 39.2849 52.582 38.7169 52.1744L35.6002 53.3841C35.24 53.5287 34.8106 53.3972 34.6028 53.0685L32.6358 49.8208C32.4419 49.492 32.525 49.0713 32.8436 48.8346L35.5171 46.8886C35.5032 46.8097 35.4894 46.7308 35.4894 46.6388H0.803429C0.360158 46.6388 0 46.31 0 45.8893V0.749481C0 0.341869 0.360158 0 0.803429 0H43.7592C44.2024 0 44.5626 0.341869 44.5626 0.749481V34.7654C46.8759 34.7654 46.4049 34.4893 46.9729 38.5917C47.6239 38.8547 48.2473 39.1965 48.8014 39.6042L51.9181 38.3813C52.2921 38.2367 52.7215 38.3682 52.9155 38.71L54.8963 41.9446C55.0903 42.2734 55.0072 42.6941 54.6885 42.9308L52.0151 44.8768C52.112 45.5474 52.112 46.218 52.0151 46.8886L54.6885 48.8346C55.0072 49.0713 55.0903 49.492 54.8963 49.8208L52.9155 53.0685C52.7215 53.3972 52.2921 53.5287 51.9181 53.3841L48.8014 52.1744C48.2473 52.582 47.6239 52.9107 46.9729 53.1737L46.5296 56.3426C46.4742 56.7239 46.1417 57 45.74 57ZM35.4894 45.1266C35.4894 45.0478 35.5032 44.9689 35.5171 44.8768C35.0046 44.5087 32.9129 43.1017 32.6497 42.7336C32.4834 42.51 32.4834 42.1945 32.6358 41.9446C32.9129 41.4844 34.6028 38.4865 34.9491 38.4076C35.1708 38.355 35.3786 38.2893 35.6002 38.3813L38.7169 39.6042C39.2849 39.1965 39.8944 38.8547 40.5593 38.5917C41.1272 34.4893 40.6563 34.7654 42.9696 34.7654V1.51211H1.60686V45.1266H35.4894ZM42.4847 55.4879H45.0336L45.4491 52.5294C45.5599 51.7405 46.7374 51.872 48.1503 50.728C48.3719 50.5308 48.7044 50.4914 48.9814 50.5965L51.8904 51.7273L53.1648 49.6367C49.5632 47.0069 50.4913 48.1377 50.4913 45.8893C50.4913 43.6408 49.5632 44.7585 53.1648 42.1287L51.8904 40.0381L48.9814 41.182C48.2057 41.4844 47.7209 40.4457 45.9894 39.8671C45.6985 39.7619 45.4907 39.5253 45.4491 39.2491L45.0336 36.2907H42.4847L42.0692 39.2491C41.9584 40.0249 40.7948 39.8934 39.3819 41.0505C39.1464 41.2346 38.8278 41.2872 38.5507 41.182L35.6418 40.0381L34.3673 42.1287C37.9689 44.7585 37.0408 43.6408 37.0408 45.8893C37.0408 48.1377 37.9689 47.0069 34.3673 49.6367L35.6418 51.7273L38.5507 50.5965C39.3264 50.2941 39.7974 51.3329 41.5428 51.9114C41.8337 52.0035 42.0415 52.2401 42.0692 52.5294L42.4847 55.4879ZM43.7592 50.1626C41.2796 50.1626 39.271 48.2429 39.271 45.8893C39.271 43.5356 41.2796 41.6159 43.7592 41.6159C46.2526 41.6159 48.2611 43.5356 48.2611 45.8893C48.2611 48.2429 46.2526 50.1626 43.7592 50.1626ZM43.7592 43.128C42.1661 43.128 40.864 44.364 40.864 45.8893C40.864 47.4014 42.1661 48.6374 43.7592 48.6374C45.366 48.6374 46.6681 47.4014 46.6681 45.8893C46.6681 44.364 45.366 43.128 43.7592 43.128ZM38.6061 35.8173H5.95645C4.93139 35.8173 4.93139 34.292 5.95645 34.292H38.6061C39.6312 34.292 39.6312 35.8173 38.6061 35.8173ZM31.8047 39.5121H5.95645C4.93139 39.5121 4.93139 38 5.95645 38H31.8047C32.8298 38 32.8298 39.5121 31.8047 39.5121ZM28.8265 43.2201H5.95645C4.93139 43.2201 4.93139 41.708 5.95645 41.708H28.8265C29.8654 41.708 29.8654 43.2201 28.8265 43.2201ZM17.7031 8.59931H13.0765V13.3329H16.1517C16.595 13.3329 16.9551 13.6747 16.9551 14.0955V21.4325C16.9551 21.8533 16.595 22.1952 16.1517 22.1952H13.0765V26.9287H17.7031C18.0771 24.8644 19.9887 23.2734 22.2882 23.2734C24.5738 23.2734 26.4854 24.8644 26.8733 26.9419H31.4861V22.1952H28.4109C27.9815 22.1952 27.6213 21.8533 27.6213 21.4325V14.0955C27.6213 13.6747 27.9815 13.3329 28.4109 13.3329H31.4861V8.59931H26.8733C26.4854 10.6637 24.5738 12.2547 22.2882 12.2547C19.9887 12.2547 18.0771 10.6637 17.7031 8.59931ZM22.2882 4.9308C20.5982 4.9308 19.2269 6.23253 19.2269 7.83668C19.2269 9.42768 20.5982 10.7294 22.2882 10.7294C23.9643 10.7294 25.3357 9.42768 25.3357 7.83668C25.3357 6.23253 23.9643 4.9308 22.2882 4.9308ZM25.3357 27.6914C25.3357 26.1003 23.9643 24.7986 22.2882 24.7986C20.5982 24.7986 19.2269 26.1003 19.2269 27.6914C19.2269 29.2955 20.5982 30.5972 22.2882 30.5972C23.9643 30.5972 25.3357 29.2955 25.3357 27.6914ZM32.2895 14.845H29.2143V20.683H35.3509V14.845H32.2895ZM9.21172 20.683H15.3483V14.845H9.21172V20.683Z" fill="#FDFDFD"/>
</svg>
