<svg xmlns="http://www.w3.org/2000/svg" width="54" height="54" viewBox="0 0 54 54" fill="none"><path d="M29.345 18.5271C24.0632 12.7187 15.1721 12.3667 9.45011 17.559C9.18619 17.8233 8.83415 18.0871 8.56981 18.439L8.21777 19.0553L8.65792 19.5834L8.74604 19.671C13.9397 25.3914 22.8308 25.7438 28.5528 20.5511C28.8167 20.2873 29.1687 20.0234 29.4331 19.671L29.8732 19.0553L29.345 18.5271ZM17.197 19.0553C17.197 18.0871 17.9892 17.2951 18.9576 17.2951C19.9256 17.2951 20.7182 18.0871 20.7182 19.0553C20.7182 20.0234 19.9256 20.8154 18.9576 20.8154C17.9892 20.8154 17.197 20.0234 17.197 19.0553ZM17.813 15.7108C15.9642 16.327 14.9963 18.2633 15.5241 20.1111C15.8765 21.1673 16.6687 22.0474 17.813 22.3993C15.0839 22.1355 12.443 20.9911 10.4185 19.0553C12.5312 17.119 15.0839 15.9751 17.813 15.7108ZM20.1018 22.3993C21.9505 21.7835 22.9189 19.8472 22.3907 17.999C22.0386 16.9432 21.246 16.0632 20.1018 15.7108C22.8308 15.9751 25.4717 17.119 27.4962 19.0553C25.3836 20.9911 22.8308 22.1355 20.1018 22.3993Z" fill="#FDFDFD"></path><path d="M18.9573 4.09448C10.6821 4.09448 3.99219 10.783 3.99219 19.0554C3.99219 27.3279 10.6821 34.0164 18.9573 34.0164C27.232 34.0164 33.9224 27.3279 33.9224 19.0554C33.9224 10.783 27.232 4.09448 18.9573 4.09448ZM18.9573 32.2563C11.6505 32.2563 5.75279 26.3597 5.75279 19.0554C5.75279 11.7507 11.6505 5.85459 18.9573 5.85459C26.2636 5.85459 32.1618 11.7507 32.1618 19.0554C32.1618 26.3597 26.2636 32.2563 18.9573 32.2563Z" fill="#FDFDFD"></path><path d="M48.8875 38.4169V9.37501C48.8875 6.9106 46.9507 4.97473 44.486 4.97473H34.8027V6.73484H44.486C45.9823 6.73484 47.1269 7.87874 47.1269 9.37501V38.4169H48.8875Z" fill="#FDFDFD"></path><path d="M4.87207 35.7761V44.5767C4.87207 47.0407 6.80847 48.977 9.27357 48.977H40.084V47.2169H9.27357C7.77689 47.2169 6.63267 46.0725 6.63267 44.5767V35.7761H4.87207Z" fill="#FDFDFD"></path><path d="M37.4443 9.37378H45.367V11.1343H37.4443V9.37378Z" fill="#FDFDFD"></path><path d="M39.2041 13.7748H45.3662V15.5353H39.2041V13.7748Z" fill="#FDFDFD"></path><path d="M39.2041 18.1744H45.3662V19.935H39.2041V18.1744Z" fill="#FDFDFD"></path><path d="M39.2041 22.5745H45.3662V24.335H39.2041V22.5745Z" fill="#FDFDFD"></path><path d="M39.2041 26.9764H45.3662V28.737H39.2041V26.9764Z" fill="#FDFDFD"></path><path d="M40.084 31.3761H45.3658V33.1367H40.084V31.3761Z" fill="#FDFDFD"></path><path d="M8.39355 39.2965H32.1616V41.0571H8.39355V39.2965Z" fill="#FDFDFD"></path><path d="M8.39355 42.8168H35.6828V44.5773H8.39355V42.8168Z" fill="#FDFDFD"></path><path d="M12.7949 26.0948H25.1191V27.8554H12.7949V26.0948Z" fill="#FDFDFD"></path><path d="M12.7949 10.2545H25.1191V12.0151H12.7949V10.2545Z" fill="#FDFDFD"></path><path d="M42.9894 37.4484C42.4611 36.9203 41.8452 36.6565 41.1407 36.6565H40.5247L34.1864 29.5279C39.9965 21.0793 37.9715 9.55049 29.521 3.65438C21.07 -2.24217 9.4499 -0.042031 3.63984 8.3185C-2.1698 16.679 -0.145279 28.2959 8.30568 34.1921C14.996 38.8566 23.9748 38.5923 30.4013 33.4882L36.5634 40.4405V41.1448C36.5634 41.8487 36.8273 42.5526 37.3556 42.9926L46.5106 52.1455C48.0949 53.7295 50.56 53.7295 52.1444 52.1455C53.7292 50.5612 53.7292 48.0972 52.1444 46.5128L42.9894 37.4484ZM2.2317 19.0554C2.2317 9.81477 9.71424 2.33429 18.9574 2.33429C28.2005 2.33429 35.6831 9.81477 35.6831 19.0554C35.6831 28.2959 28.2005 35.7764 18.9574 35.7764C9.71424 35.7764 2.2317 28.2959 2.2317 19.0554ZM31.7217 32.432C32.1619 31.9919 32.6897 31.4642 33.0422 31.0242L38.8518 37.5365L37.4437 38.8566L31.7217 32.432ZM49.3277 51.6174C48.7113 51.6174 48.1831 51.3532 47.7429 51.0012L38.5879 41.8487C38.4117 41.6725 38.324 41.4968 38.324 41.2325V40.5286L40.4366 38.4166H41.1407C41.405 38.4166 41.5808 38.5047 41.7571 38.6804L50.9121 47.8329C51.7924 48.713 51.7924 50.1212 50.9121 51.0012C50.4719 51.3532 49.8555 51.6174 49.3277 51.6174Z" fill="#FDFDFD"></path></svg>