<svg xmlns="http://www.w3.org/2000/svg" width="53" height="53" viewBox="0 0 53 53" fill="none"><path d="M50.2247 3.54968C49.5947 3.48576 48.9601 3.61581 48.406 3.92244C48.1355 3.04478 47.4847 2.33524 46.6337 1.99002C45.7826 1.6448 44.8215 1.70048 44.016 2.14166C43.5675 0.752954 42.2091 -0.133045 40.7575 0.0163786C39.8129 0.123759 38.9717 0.663503 38.4803 1.4774C37.746 0.933755 36.8056 0.750228 35.9207 0.97784C35.0359 1.20545 34.3008 1.81993 33.9198 2.65045H25.2211C25.0599 2.64926 24.9021 2.60438 24.7644 2.52061L21.1932 0.383842C20.7826 0.135713 20.3126 0.00324874 19.8329 0.000478767H6.75207C5.13567 -0.0211758 3.75924 1.17113 3.55009 2.77412C3.48627 3.40447 3.61631 4.03929 3.92285 4.59377C3.04495 4.86396 2.33519 5.51477 1.99007 6.36602C1.64496 7.21727 1.70111 8.17862 2.14299 8.9839C0.752169 9.43075 -0.135064 10.7913 0.0168773 12.2442C0.123863 13.189 0.663696 14.0304 1.47786 14.5215C1.02962 15.1397 0.824042 15.901 0.900181 16.6609C1.02638 17.717 1.6881 18.6335 2.65089 19.0856V27.7811C2.64935 27.9415 2.60415 28.0984 2.52016 28.2351L0.364899 31.8249C0.130339 32.2341 0.00501388 32.6968 0.000977779 33.1685V46.2496C-0.0193692 47.8657 1.17287 49.2413 2.77543 49.4508C3.4054 49.513 4.03944 49.383 4.59416 49.078C4.86456 49.956 5.51553 50.6658 6.36688 51.0109C7.21824 51.356 8.17967 51.2998 8.98506 50.8579C9.39431 52.136 10.5836 53.0024 11.9256 53C12.9904 53.0002 13.9766 52.4393 14.5207 51.524C15.2558 52.0676 16.1967 52.251 17.0821 52.0232C17.9676 51.7955 18.7032 51.1809 19.0848 50.35H27.7791C27.9403 50.3512 28.0981 50.3961 28.2358 50.4799L31.807 52.6184C32.2178 52.8656 32.6878 52.9971 33.1673 52.9991H46.2481C47.8645 53.0208 49.2409 51.8285 49.4501 50.2255C49.5137 49.5954 49.3837 48.9609 49.0773 48.4067C49.9552 48.1365 50.665 47.4857 51.0101 46.6344C51.3552 45.7832 51.2991 44.8219 50.8572 44.0166C52.2473 43.5699 53.1344 42.2103 52.9833 40.758C52.8763 39.8132 52.3365 38.9718 51.5223 38.4808C51.9706 37.8625 52.1761 37.1012 52.1 36.3414C51.9728 35.2865 51.3112 34.3715 50.3493 33.9202V25.2194C50.3512 25.0586 50.396 24.9013 50.4791 24.7636L52.6185 21.1932C52.8657 20.7821 52.9972 20.3118 52.9992 19.832V6.75085C53.0195 5.13475 51.8273 3.75914 50.2247 3.54968ZM1.77465 12.0694C1.73373 11.695 1.85405 11.3209 2.10554 11.0405C2.35704 10.7602 2.71594 10.6002 3.09254 10.6004H8.83402C9.32185 10.6004 9.71732 10.2049 9.71732 9.71706C9.71732 9.22921 9.32185 8.83373 8.83402 8.83373H4.85915C4.4826 8.83462 4.12346 8.67525 3.87147 8.39544C3.61948 8.11564 3.49844 7.74182 3.53861 7.36741C3.65164 6.66343 4.27306 6.15506 4.98546 6.18376H10.6006C11.0885 6.18376 11.4839 5.78828 11.4839 5.30043C11.4839 4.81258 11.0885 4.41711 10.6006 4.41711H6.62576C6.24921 4.418 5.89007 4.25863 5.63808 3.97882C5.38609 3.69901 5.26505 3.32519 5.30522 2.95079C5.41788 2.24659 6.03953 1.73803 6.75207 1.76713H19.8329C19.9939 1.76835 20.1515 1.81356 20.2887 1.89786L23.8608 4.03728C24.2719 4.28376 24.7418 4.41497 25.2211 4.41711H33.5665V12.269L32.0366 11.0164C30.8886 10.1402 29.2738 10.2289 28.2287 11.2258C27.4527 11.9783 27.183 13.1123 27.5371 14.1337H24.5754C23.8802 14.1366 23.214 14.4126 22.7204 14.9022L14.4077 23.1471L14.39 23.1648L14.0225 23.5287C13.5917 23.95 12.9018 23.9453 12.4768 23.5181C12.0888 23.1286 12.051 22.5114 12.3884 22.0774L14.8175 19.1095C15.0335 18.8453 15.078 18.4803 14.9319 18.172C14.7857 17.8636 14.4751 17.667 14.1338 17.667H4.10216C3.3909 17.6948 2.77091 17.187 2.65796 16.4842C2.61757 16.1101 2.73814 15.7365 2.98957 15.4566C3.241 15.1767 3.59959 15.0168 3.97584 15.017H8.83402C9.32185 15.017 9.71732 14.6215 9.71732 14.1337C9.71732 13.6458 9.32185 13.2504 8.83402 13.2504H3.21885C2.5083 13.2779 1.88877 12.7712 1.77465 12.0694ZM37.0997 28.8472L29.0352 36.8449C28.873 37.007 28.6533 37.0984 28.4239 37.0993H24.1523L16.1557 29.038C15.9931 28.8757 15.9014 28.6556 15.9004 28.4259V24.1506L23.9624 16.1556C24.1249 15.9927 24.3453 15.9009 24.5754 15.9003H28.8506L36.8471 23.9616C37.0084 24.1249 37.0992 24.345 37.0997 24.5746V28.8472ZM16.4764 50.3429C16.1045 50.3831 15.7331 50.2622 15.4561 50.0108C15.1778 49.7585 15.0185 49.4007 15.0171 49.025V49.0118V44.1667C15.0171 43.6789 14.6217 43.2834 14.1338 43.2834C13.646 43.2834 13.2505 43.6789 13.2505 44.1667V49.025V49.0374V49.7838C13.2748 50.4976 12.7627 51.1173 12.0572 51.228C11.6861 51.2684 11.3155 51.1475 11.0396 50.8959C10.7607 50.6433 10.6013 50.2847 10.6006 49.9084V48.1417V48.124V44.1667C10.6006 43.6789 10.2052 43.2834 9.71732 43.2834C9.22948 43.2834 8.83402 43.6789 8.83402 44.1667V48.1417V48.1523C8.83166 48.5269 8.67088 48.8829 8.39148 49.1324C8.11208 49.3818 7.74015 49.5014 7.36773 49.4614C6.6639 49.3488 6.15546 48.7276 6.1841 48.0154V46.3751V46.3618V42.4001C6.1841 41.9122 5.78864 41.5168 5.3008 41.5168C4.81296 41.5168 4.4175 41.9122 4.4175 42.4001V46.3751V46.383C4.41586 46.7578 4.25553 47.1145 3.97624 47.3645C3.69694 47.6145 3.32482 47.7345 2.9521 47.6947C2.24847 47.5822 1.73986 46.9617 1.76759 46.2496V33.1685C1.76895 33.0093 1.81058 32.8531 1.8886 32.7144L4.03768 29.1405C4.28364 28.7295 4.41481 28.26 4.4175 27.7811V19.4336H12.2683L11.0149 20.9644C10.2068 21.9473 10.1493 23.3472 10.8741 24.3931C11.5989 25.4389 12.9298 25.8765 14.1338 25.465V28.4259C14.1368 29.1211 14.4128 29.7873 14.9023 30.2809L23.14 38.5841C23.1497 38.5947 23.1594 38.6044 23.17 38.6142L23.5295 38.9763C23.839 39.2914 23.9291 39.7615 23.7578 40.1686C23.5866 40.5757 23.1877 40.8401 22.746 40.8393C22.5057 40.8403 22.2721 40.7596 22.0836 40.6105L19.1166 38.1822C18.8524 37.9616 18.4843 37.9145 18.1731 38.0614C17.862 38.2084 17.6645 38.5227 17.6671 38.8668V48.8987C17.6915 49.6116 17.1808 50.231 16.4764 50.3429ZM51.2255 40.9311C51.2665 41.3055 51.1461 41.6796 50.8946 41.9599C50.6431 42.2403 50.2842 42.4003 49.9076 42.4001H44.1662C43.6783 42.4001 43.2829 42.7956 43.2829 43.2834C43.2829 43.7713 43.6783 44.1667 44.1662 44.1667H48.141C48.5176 44.1658 48.8767 44.3252 49.1287 44.605C49.3807 44.8848 49.5017 45.2586 49.4616 45.6331C49.3485 46.337 48.7271 46.8454 48.0147 46.8167H42.3996C41.9117 46.8167 41.5163 47.2122 41.5163 47.7C41.5163 48.1879 41.9117 48.5834 42.3996 48.5834H46.3744C46.751 48.5825 47.1101 48.7418 47.3621 49.0217C47.6141 49.3015 47.7351 49.6753 47.695 50.0497C47.5823 50.7539 46.9607 51.2624 46.2481 51.2333H33.1673C33.0063 51.2321 32.8487 51.1869 32.7115 51.1026L29.1394 48.9632C28.7283 48.7167 28.2584 48.5855 27.7791 48.5834H19.4337V40.7297L20.9635 41.9823C22.1105 42.862 23.7278 42.7731 24.7715 41.7729C25.5477 41.0213 25.8184 39.8881 25.4657 38.8668H28.4248C29.12 38.8639 29.7862 38.5879 30.2797 38.0983L38.5899 29.8569L38.6208 29.8268L38.9803 29.4735C39.4112 29.0523 40.101 29.057 40.5261 29.4841C40.914 29.8736 40.9519 30.4908 40.6144 30.9248L38.1853 33.8928C37.9707 34.1566 37.9266 34.5202 38.072 34.8277C38.2173 35.1351 38.5263 35.3319 38.8663 35.3335H48.898C49.6093 35.3057 50.2293 35.8135 50.3422 36.5163C50.3826 36.8904 50.262 37.264 50.0106 37.5439C49.7592 37.8238 49.4006 37.9836 49.0243 37.9835H44.1662C43.6783 37.9835 43.2829 38.3789 43.2829 38.8668C43.2829 39.3546 43.6783 39.7501 44.1662 39.7501H49.784C50.4935 39.724 51.1115 40.2303 51.2255 40.9311ZM51.2326 19.832C51.2312 19.9929 51.1864 20.1504 51.1028 20.2878L48.9625 23.86C48.7161 24.2708 48.5849 24.7404 48.5827 25.2194V33.5668H40.7292L41.9826 32.036C42.8925 30.8989 42.8015 29.2594 41.7715 28.2298C40.9999 27.4894 39.8842 27.2322 38.8663 27.5602V24.5746C38.8634 23.8794 38.5874 23.2132 38.0979 22.7196L29.8566 14.404L29.8399 14.3872L29.4751 14.0197C29.2681 13.8153 29.1525 13.5359 29.1545 13.245C29.1565 12.9541 29.2759 12.6764 29.4857 12.4748C29.8805 12.0981 30.4893 12.0608 30.9272 12.3865L33.8942 14.8147C34.1581 15.0282 34.5209 15.0717 34.8277 14.9265C35.1345 14.7812 35.331 14.4731 35.3331 14.1337V4.10176C35.3058 3.39033 35.8138 2.77044 36.5168 2.65752C36.8907 2.6174 37.2641 2.7381 37.5438 2.9895C37.8235 3.24091 37.9832 3.59935 37.983 3.97544V8.83373C37.983 9.32158 38.3785 9.71706 38.8663 9.71706C39.3542 9.71706 39.7496 9.32158 39.7496 8.83373V3.21843C39.7219 2.50687 40.2301 1.88675 40.9333 1.7742C41.3072 1.73408 41.6806 1.85477 41.9603 2.10618C42.24 2.35759 42.3997 2.71602 42.3996 3.09212V8.83373C42.3996 9.32158 42.795 9.71706 43.2829 9.71706C43.7707 9.71706 44.1662 9.32158 44.1662 8.83373V4.85877C44.1655 4.48236 44.325 4.12345 44.6048 3.87165C44.8845 3.61985 45.2582 3.49893 45.6324 3.53908C46.3363 3.65171 46.8447 4.27286 46.8161 4.98508V10.6004C46.8161 11.0882 47.2115 11.4837 47.6994 11.4837C48.1872 11.4837 48.5827 11.0882 48.5827 10.6004V6.62542C48.582 6.24902 48.7415 5.8901 49.0213 5.6383C49.3011 5.3865 49.6747 5.26558 50.049 5.30573C50.7522 5.41869 51.2604 6.03909 51.2326 6.75085V19.832Z" fill="#FDFDFD"></path></svg>