<svg width="40" height="40" viewBox="0 0 40 40" fill="none" xmlns="http://www.w3.org/2000/svg">
<path d="M34.0949 3.27332V1.20301C34.0949 0.541998 33.5569 0.0042639 32.8956 0.0042639H29.6147C29.199 0.0042639 28.8317 0.214107 28.6123 0.53317C23.2817 -0.899329 17.6157 0.597545 13.7031 4.5084C7.83123 10.3778 7.69187 19.8237 13.2921 25.8613L12.1242 26.998L11.4231 26.2971C10.8291 25.7035 9.86232 25.7035 9.2684 26.2971C7.26481 28.2999 2.45222 33.1104 0.665205 34.8966C-0.221735 35.7832 -0.221735 37.2257 0.665205 38.1123L1.91668 39.3632C2.76618 40.2123 4.14825 40.2123 4.99783 39.3632C5.18268 39.1784 12.8758 31.4886 13.6689 30.6959C14.2628 30.102 14.2627 29.1359 13.6689 28.5422L12.9529 27.8266L14.1205 26.6903C16.6923 29.0745 20.0097 30.5134 23.526 30.7566C23.5398 30.7575 23.5535 30.7581 23.5671 30.7581C23.8723 30.7581 24.1296 30.5217 24.1511 30.2127C24.1733 29.8901 23.9298 29.6103 23.6069 29.588C16.2941 29.0822 10.369 23.0355 10.369 15.3992C10.369 5.97629 19.3336 -0.810032 28.3985 1.68895V3.19496C20.1487 0.630279 11.7984 6.83723 11.7984 15.4155C11.7984 22.4483 17.5083 28.2102 24.5986 28.2102C30.6298 28.2102 33.8135 24.2281 33.9356 24.167C33.9356 24.167 33.9375 24.1649 33.9373 24.1651C33.9417 24.1603 33.9462 24.1555 33.9505 24.1505C36.1744 21.7727 37.3987 18.6715 37.3987 15.4155C37.3987 12.2307 36.2273 9.19394 34.0951 6.83754V4.79762C37.0847 7.47199 38.8281 11.2672 38.8281 15.399C38.8281 22.668 33.4027 28.7069 26.2344 29.5284C25.9129 29.5652 25.6822 29.8556 25.7189 30.177C25.7558 30.4984 26.0459 30.7292 26.3679 30.6923C34.1231 29.8035 39.9999 23.2708 40 15.3992C39.9998 10.591 37.8173 6.18918 34.0949 3.27332ZM4.16904 38.5347C3.77661 38.927 3.13798 38.927 2.74547 38.5347L1.494 37.2838C1.06397 36.8539 1.06397 36.1546 1.494 35.7248L6.0085 31.2122L8.75154 33.9541L4.16904 38.5347ZM9.58025 33.1259L6.83721 30.384L7.66686 29.5547L10.4099 32.2966L9.58025 33.1259ZM12.8402 29.8674L11.2387 31.4681L8.49565 28.7263L10.0973 27.1254C10.2331 26.9895 10.4586 26.9896 10.5944 27.1254L12.8403 29.3703C12.9761 29.5063 12.9761 29.7315 12.8402 29.8674ZM19.3494 25.7852C18.0809 25.141 16.9454 24.2713 15.9968 23.2288V14.545C15.9968 14.5204 16.0168 14.5004 16.0414 14.5004H19.3495V25.7852H19.3494ZM23.8739 27.0147C22.7254 26.9444 21.6038 26.7065 20.5214 26.3006C20.5214 26.1698 20.5214 10.315 20.5214 10.1033C20.5214 10.0788 20.5413 10.0588 20.5657 10.0588H23.8739V27.0147ZM23.8739 5.66176V8.88738H20.5657C19.895 8.88738 19.3495 9.43285 19.3495 10.1033V13.3289H16.0414C15.3705 13.3289 14.8249 13.8744 14.8249 14.545V21.7061C9.84857 14.0082 15.4098 3.79223 24.5985 3.79223C25.9024 3.79223 27.1787 4.0066 28.3985 4.42848V4.44574H25.0905C24.4195 4.44574 23.8739 4.99129 23.8739 5.66176ZM28.3985 26.4025C27.2937 26.7847 26.1565 26.9897 25.0459 27.03V5.66184C25.0459 5.6373 25.0659 5.6173 25.0905 5.6173H28.3986V26.4025H28.3985ZM36.2266 15.4155C36.2266 17.8411 35.4782 20.172 34.0949 22.1235V16.7308C34.0949 16.4073 33.8326 16.1451 33.509 16.1451C33.1853 16.1451 32.923 16.4074 32.923 16.7308V23.529C31.953 24.5242 30.8051 25.3377 29.5705 25.9236C29.5705 24.5902 29.5705 2.33684 29.5705 1.24965V1.2202C29.5705 1.19567 29.5904 1.17567 29.6148 1.17567H32.8957C32.9107 1.17567 32.9231 1.18793 32.9231 1.20301C32.9231 2.10246 32.9231 13.5001 32.9231 13.9975C32.9231 14.321 33.1854 14.5832 33.509 14.5832C33.8327 14.5832 34.095 14.321 34.095 13.9975V8.70746C35.4782 10.659 36.2266 12.9899 36.2266 15.4155Z" fill="#FDFDFD"/>
</svg>
