<svg width="40" height="40" viewBox="0 0 40 40" fill="none" xmlns="http://www.w3.org/2000/svg">
<path d="M39.8066 7.52667L32.4722 0.193333C32.3451 0.0705361 32.1756 0.00131619 31.9988 0H15.3297C14.7996 0.00158273 14.2918 0.212805 13.917 0.587535C13.5422 0.962265 13.3309 1.47005 13.3294 2V6.03333C9.73784 6.20165 6.34915 7.74663 3.86701 10.3475C1.38487 12.9483 0 16.4051 0 20C0 23.5949 1.38487 27.0517 3.86701 29.6525C6.34915 32.2534 9.73784 33.7984 13.3294 33.9667V38C13.3309 38.5299 13.5422 39.0377 13.917 39.4125C14.2918 39.7872 14.7996 39.9984 15.3297 40H37.9997C38.5297 39.9984 39.0376 39.7872 39.4124 39.4125C39.7872 39.0377 39.9984 38.5299 40 38V8C39.9987 7.82326 39.9295 7.65379 39.8066 7.52667ZM32.6656 2.27333L37.7263 7.33333H33.3323C33.1555 7.33333 32.9859 7.2631 32.8609 7.13807C32.7358 7.01305 32.6656 6.84348 32.6656 6.66667V2.27333ZM1.32756 20C1.33191 16.7575 2.57824 13.6399 4.81042 11.2877C7.04261 8.93562 10.0911 7.5277 13.3294 7.35333V19.7267L4.59472 28.46C2.49208 26.1439 1.32736 23.128 1.32756 20ZM5.53486 29.4L14.2695 20.6667H26.6447C26.5232 23.0555 25.7265 25.3608 24.347 27.315C22.9675 29.2691 21.0618 30.7919 18.8513 31.7064C16.6408 32.6209 14.2162 32.8896 11.859 32.4814C9.50187 32.0731 7.30892 31.0046 5.53486 29.4ZM38.6665 38C38.6665 38.1768 38.5962 38.3464 38.4712 38.4714C38.3461 38.5964 38.1765 38.6667 37.9997 38.6667H15.3297C15.1528 38.6667 14.9832 38.5964 14.8582 38.4714C14.7331 38.3464 14.6629 38.1768 14.6629 38V33.9667C18.2532 33.7933 21.6395 32.2469 24.1215 29.6473C26.6035 27.0478 27.9914 23.5939 27.9982 20C27.9982 19.8232 27.928 19.6536 27.8029 19.5286C27.6779 19.4036 27.5083 19.3333 27.3314 19.3333H14.6629V2C14.6629 1.82319 14.7331 1.65362 14.8582 1.5286C14.9832 1.40357 15.1528 1.33333 15.3297 1.33333H31.332V6.66667C31.3336 7.19661 31.5449 7.7044 31.9197 8.07913C32.2944 8.45386 32.8023 8.66508 33.3323 8.66667H38.6665V38Z" fill="#FDFDFD"/>
<path d="M16.6619 3.3335C16.485 3.3335 16.3155 3.40373 16.1904 3.52876C16.0654 3.65378 15.9951 3.82335 15.9951 4.00016V17.3335C15.9951 17.5103 16.0654 17.6799 16.1904 17.8049C16.3155 17.9299 16.485 18.0002 16.6619 18.0002H29.9972C30.174 18.0002 30.3436 17.9299 30.4687 17.8049C30.5937 17.6799 30.664 17.5103 30.664 17.3335C30.6599 13.6217 29.1834 10.0631 26.5584 7.43848C23.9334 4.81385 20.3742 3.33755 16.6619 3.3335ZM17.3286 16.6668V4.68683C20.452 4.85451 23.4031 6.17051 25.6148 8.38189C27.8265 10.5933 29.1427 13.544 29.3104 16.6668H17.3286Z" fill="#FDFDFD"/>
<path d="M31.3327 25.3335C30.1458 25.3335 28.9856 25.6854 27.9988 26.3447C27.0119 27.004 26.2428 27.941 25.7886 29.0374C25.3344 30.1338 25.2155 31.3402 25.4471 32.504C25.6786 33.6679 26.2502 34.737 27.0894 35.5761C27.9287 36.4153 28.9979 36.9867 30.162 37.2182C31.326 37.4497 32.5326 37.3309 33.6291 36.8768C34.7256 36.4226 35.6629 35.6536 36.3222 34.6669C36.9816 33.6802 37.3336 32.5202 37.3336 31.3335C37.3311 29.743 36.6981 28.2183 35.5732 27.0936C34.4484 25.9689 32.9235 25.336 31.3327 25.3335ZM31.3327 36.0002C30.4096 36.0002 29.5072 35.7265 28.7396 35.2137C27.9721 34.7009 27.3739 33.9721 27.0206 33.1194C26.6673 32.2666 26.5749 31.3283 26.755 30.4231C26.9351 29.5178 27.3796 28.6863 28.0324 28.0337C28.6851 27.381 29.5167 26.9366 30.4221 26.7565C31.3275 26.5764 32.266 26.6689 33.1188 27.0221C33.9717 27.3753 34.7006 27.9734 35.2135 28.7408C35.7263 29.5083 36 30.4105 36 31.3335C35.9986 32.5707 35.5064 33.7569 34.6315 34.6318C33.7565 35.5066 32.5701 35.9988 31.3327 36.0002Z" fill="#FDFDFD"/>
<path d="M29.999 32.3905L28.4702 30.8618L27.5273 31.8045L29.5276 33.8045C29.6527 33.9295 29.8222 33.9997 29.999 33.9997C30.1758 33.9997 30.3454 33.9295 30.4705 33.8045L34.471 29.8045L33.5282 28.8618L29.999 32.3905Z" fill="#FDFDFD"/>
<path d="M31.9983 11.3335H37.3324V12.6668H31.9983V11.3335Z" fill="#FDFDFD"/>
<path d="M31.9983 15.3335H37.3324V16.6668H31.9983V15.3335Z" fill="#FDFDFD"/>
<path d="M31.9983 19.333H37.3324V20.6663H31.9983V19.333Z" fill="#FDFDFD"/>
</svg>
