<svg width="90" height="90" viewBox="0 0 90 90" fill="none" xmlns="http://www.w3.org/2000/svg">
<path d="M88.3179 56.2014C88.0126 55.9196 87.7394 55.6705 87.4939 55.4466C86.5313 54.5689 86.0481 54.1282 85.81 53.7226C85.5717 53.3171 85.4253 52.6856 85.1331 51.4273C85.0586 51.1063 84.9757 50.749 84.8801 50.3482C84.3383 48.0751 82.3812 46.4608 80.0101 46.331C79.592 46.3082 79.2195 46.2898 78.8851 46.2737C77.5738 46.2095 76.9158 46.1772 76.468 46.0169C76.0204 45.8569 75.495 45.4655 74.4486 44.6862C74.1817 44.4875 73.8846 44.2661 73.5494 44.0195C71.6484 42.6205 69.0934 42.6205 67.1922 44.0195C66.8572 44.2661 66.56 44.4873 66.2931 44.686C65.2465 45.4655 64.7212 45.8567 64.2734 46.0169C64.0861 46.0841 63.8609 46.1285 63.5672 46.1625C58.7242 41.8886 52.9259 38.9418 46.691 37.5227C53.4348 34.3396 58.1021 27.5594 58.1021 19.7272C58.1023 8.84956 49.1001 0 38.0348 0C26.9696 0 17.9674 8.84956 17.9674 19.7272C17.9674 27.5597 22.6351 34.3404 29.3795 37.5232C23.0989 38.954 17.2521 41.9336 12.3919 46.2543C5.40477 52.4659 1.00693 60.9362 0.00890432 70.105C-0.0357643 70.5145 0.0987953 70.9233 0.378805 71.2296C0.658815 71.5359 1.05806 71.711 1.47706 71.711L38.0323 71.7108C38.033 71.7108 38.0339 71.711 38.0347 71.711C38.0354 71.711 38.0363 71.7108 38.0371 71.7108H52.9113C53.4343 72.8999 54.4037 73.8817 55.6924 74.4244C56.0773 74.5864 56.421 74.7289 56.7294 74.8566C56.8865 74.9216 57.0329 74.9824 57.1704 75.0397L53.0557 83.7276C52.7689 84.3335 52.8477 85.0391 53.2611 85.569C53.6744 86.0988 54.3466 86.3563 55.0163 86.2412L59.1688 85.5281L61.2867 89.1109C61.614 89.6647 62.2102 90 62.8569 90C62.8846 90 62.9125 89.9995 62.9404 89.9982C63.6189 89.9679 64.2188 89.573 64.506 88.9672L68.5552 80.4174C69.457 80.1468 69.9692 80.0106 70.3709 80.0106C70.7725 80.0106 71.2847 80.1468 72.1868 80.4174L76.2358 88.967C76.5224 89.5727 77.1221 89.9677 77.8008 89.9982C77.8289 89.9995 77.8569 90 77.8848 90C78.5316 90 79.1276 89.6647 79.455 89.1109L81.5729 85.5281L85.7254 86.2414C86.3957 86.3563 87.0681 86.0984 87.4814 85.5681C87.8945 85.0379 87.9727 84.3322 87.6857 83.7272L83.5712 75.0397C83.7087 74.9824 83.8551 74.9218 84.0122 74.8566C84.3206 74.7289 84.6643 74.5864 85.0491 74.4244C87.2322 73.5054 88.5097 71.3303 88.2278 69.0121C88.1782 68.6033 88.1317 68.2396 88.0901 67.913C87.9268 66.6323 87.8446 65.9896 87.9275 65.5284C88.0104 65.0671 88.3109 64.4907 88.91 63.3423C89.0627 63.0494 89.2329 62.7233 89.4217 62.3561C90.4932 60.2725 90.0496 57.7993 88.3179 56.2014ZM51.3201 62.3561C51.5089 62.7233 51.6791 63.0494 51.8317 63.3425C52.4309 64.491 52.7316 65.0673 52.8143 65.5286C52.8969 65.9898 52.815 66.6325 52.6516 67.9132C52.6171 68.1839 52.5793 68.4817 52.539 68.8078H41.3615L45.0864 64.7596C45.402 64.4165 45.5325 63.9458 45.4375 63.4927L43.5396 54.4477L43.9088 54.8779C44.1908 55.2067 44.6046 55.3936 45.0373 55.3936C45.0836 55.3936 45.1303 55.3914 45.177 55.3871C45.6591 55.3421 46.0883 55.0676 46.3253 54.6524L53.1072 42.7713C55.3336 43.8063 57.4541 45.0738 59.4333 46.5608C57.6687 47.0984 56.3006 48.507 55.8617 50.3487C55.7661 50.7494 55.6832 51.1068 55.6088 51.4276C55.3168 52.686 55.1702 53.3176 54.932 53.7232C54.6937 54.1287 54.2106 54.5695 53.248 55.4471C53.0025 55.6709 52.7292 55.9202 52.4239 56.202C50.6923 57.7991 50.2488 60.2725 51.3201 62.3561ZM31.2771 51.4046L25.6941 41.624C26.7291 41.2462 27.7869 40.9156 28.8643 40.6329L35.9136 46.0002L31.2771 51.4046ZM36.5215 49.7948L38.0347 48.0309L39.5477 49.7946L42.3935 63.3581L38.0345 68.0956L33.6754 63.3581L36.5215 49.7948ZM40.156 46.0002L47.1976 40.6389C48.2712 40.922 49.3292 41.2548 50.3686 41.6358L44.7924 51.4046L40.156 46.0002ZM20.9207 19.7272C20.9207 10.4505 28.5981 2.90322 38.0348 2.90322C47.4716 2.90322 55.149 10.4505 55.149 19.7272C55.149 29.0015 47.4756 36.5472 38.0422 36.5512C38.0396 36.5512 38.0372 36.5512 38.0347 36.5512C38.0323 36.5512 38.0299 36.5512 38.0273 36.5512C28.5941 36.547 20.9207 29.0015 20.9207 19.7272ZM38.0348 39.4544H38.0422C39.85 39.4548 41.6404 39.5921 43.4017 39.8569L38.0347 43.9433L32.6633 39.8536C34.4141 39.5921 36.2051 39.4548 38.0273 39.4544C38.0299 39.4542 38.0324 39.4544 38.0348 39.4544ZM22.9542 42.7566L29.7444 54.652C29.9814 55.0672 30.4103 55.3417 30.8927 55.3867C30.9394 55.3911 30.9859 55.3933 31.0324 55.3933C31.465 55.3933 31.8791 55.2062 32.1609 54.8776L32.5299 54.4475L30.632 63.4925C30.537 63.9458 30.6673 64.4163 30.9831 64.7596L34.708 68.8078L3.15823 68.8079C4.98337 57.1346 12.6101 47.5455 22.9542 42.7566ZM62.7471 85.8027L61.2055 83.1945C60.8949 82.669 60.2844 82.3898 59.6746 82.4939L56.6521 83.013L59.6183 76.7499C59.8175 77.0349 60.0511 77.3906 60.3465 77.84C60.5281 78.1164 60.7304 78.4243 60.9595 78.7689C61.8849 80.1599 63.3692 80.9922 64.9675 81.1145L62.7471 85.8027ZM81.0674 82.4939C80.4582 82.3892 79.8471 82.6686 79.5364 83.1945L77.9948 85.8025L75.7756 81.1165C77.3735 80.9938 78.8574 80.1597 79.7825 78.7687C80.0116 78.4243 80.2139 78.1164 80.3955 77.84C80.6908 77.3904 80.9245 77.0349 81.1237 76.7499L84.0899 83.013L81.0674 82.4939ZM86.7861 61.0464C86.6 61.408 86.4326 61.7292 86.2821 62.0175C84.811 64.8376 84.7588 65.1299 85.1599 68.2743C85.2009 68.5958 85.2466 68.954 85.2956 69.3565C85.4225 70.4 84.8694 71.3417 83.8867 71.7554C83.5075 71.9149 83.1692 72.0552 82.8654 72.1811C79.8947 73.4119 79.6633 73.6026 77.9145 76.265C77.7357 76.5372 77.5367 76.8404 77.3109 77.1797C76.7258 78.0592 75.6861 78.4312 74.6631 78.1271C74.2685 78.0099 73.9176 77.9034 73.6025 77.8077C72.0622 77.3405 71.2166 77.107 70.3711 77.107C69.5255 77.107 68.6797 77.3407 67.1396 77.8077C66.8245 77.9034 66.4738 78.0097 66.079 78.1271C65.0559 78.4305 64.0163 78.0592 63.4312 77.1797C63.2054 76.8404 63.0065 76.5372 62.8276 76.265C61.0787 73.6028 60.8474 73.4119 57.8768 72.1811C57.5729 72.0554 57.2346 71.9151 56.8555 71.7554C55.8728 71.3417 55.3198 70.4 55.4466 69.3565C55.4955 68.954 55.5413 68.5958 55.5822 68.2743C55.9833 65.1299 55.9311 64.8376 54.4598 62.0175C54.3094 61.7292 54.1419 61.408 53.9559 61.0464C53.4736 60.1084 53.6657 59.0375 54.445 58.3184C54.7457 58.041 55.0148 57.7955 55.2566 57.575C57.62 55.4199 57.771 55.1628 58.4881 52.0729C58.5614 51.757 58.6431 51.4051 58.7371 51.0105C58.9809 49.9871 59.8283 49.2881 60.8958 49.2299C61.3076 49.2072 61.6743 49.1894 62.0036 49.1733C65.2233 49.0156 65.507 48.914 68.0769 47C68.3396 46.8044 68.6321 46.5865 68.9622 46.3436C69.8182 45.7137 70.9241 45.7139 71.78 46.3436C72.1102 46.5863 72.4027 46.8044 72.6656 47.0002C75.2351 48.9138 75.5188 49.0154 78.7385 49.1731C79.0678 49.1893 79.4346 49.2072 79.8464 49.2297C80.9138 49.288 81.7612 49.9869 82.005 51.0103C82.0992 51.405 82.1808 51.757 82.2542 52.0729C82.9713 55.1625 83.1223 55.4196 85.4857 57.5748C85.7275 57.7953 85.9966 58.0406 86.2971 58.3181C87.0764 59.0375 87.2685 60.1084 86.7861 61.0464ZM70.3709 51.1832C64.2747 51.1832 59.315 56.0588 59.315 62.0514C59.315 68.044 64.2747 72.9196 70.3709 72.9196C76.467 72.9196 81.4267 68.0442 81.4267 62.0516C81.4267 56.059 76.4672 51.1832 70.3709 51.1832ZM70.3709 70.0166C65.9031 70.0166 62.2683 66.4435 62.2683 62.0516C62.2683 57.6598 65.9031 54.0866 70.3709 54.0866C74.8387 54.0866 78.4734 57.6598 78.4734 62.0516C78.4734 66.4435 74.8387 70.0166 70.3709 70.0166Z" fill="url(#paint0_linear_238_502)"/>
<defs>
<linearGradient id="paint0_linear_238_502" x1="0.000488281" y1="0" x2="90.0005" y2="0" gradientUnits="userSpaceOnUse">
<stop stop-color="white"/>
<stop offset="1" stop-color="white"/>
</linearGradient>
</defs>
</svg>
