<svg width="90" height="90" viewBox="0 0 90 90" fill="none" xmlns="http://www.w3.org/2000/svg">
<path d="M76.9788 57.4917C76.977 55.9409 76.3068 54.4541 75.1155 53.3575C73.9241 52.2609 72.3087 51.6441 70.6239 51.6424H51.3924C54.0483 45.7177 54.058 39.0679 51.4193 33.1367C51.3963 33.0847 51.3698 33.034 51.3401 32.9849C50.7977 32.0866 49.9937 31.3455 49.0187 30.845C48.0436 30.3444 46.9361 30.1041 45.8208 30.1513C44.7055 30.1985 43.6266 30.5312 42.7055 31.112C41.7845 31.6928 41.0577 32.4987 40.6071 33.4389C40.5361 33.5874 40.4934 33.7461 40.4809 33.9079L40.027 39.84C39.3474 43.2491 37.3489 46.3161 34.4013 48.4732C33.2207 48.8547 31.0592 50.204 25.4204 55.1425V54.9951C25.4196 54.2175 25.0836 53.472 24.4862 52.9222C23.8889 52.3724 23.0789 52.0633 22.2341 52.0625H6.19488C5.35014 52.0633 4.54025 52.3725 3.94293 52.9223C3.34561 53.4721 3.00966 54.2175 3.0088 54.9951V84.4559C3.0094 85.2335 3.34524 85.9792 3.94259 86.5292C4.53994 87.0792 5.34998 87.3885 6.19488 87.3893H22.2332C23.078 87.3886 23.8879 87.0794 24.4853 86.5296C25.0826 85.9798 25.4186 85.2343 25.4195 84.4568V84.3276C29.8299 85.223 32.1317 86.2872 34.8167 88.5828C35.8723 89.5072 37.2783 90.0155 38.7352 89.9996H63.5957C64.8021 90.0001 65.9836 89.6842 67.0021 89.0892C68.0207 88.4941 68.834 87.6444 69.347 86.6394C69.86 85.6344 70.0515 84.5158 69.899 83.4143C69.7466 82.3128 69.2565 81.2741 68.4861 80.4196C70.4701 79.3211 71.8817 77.3545 71.8817 75.265C71.8831 73.965 71.4118 72.702 70.5427 71.6773C72.5636 70.5757 74.0135 68.5421 74.0135 66.3788C74.0151 65.1592 73.6002 63.97 72.8274 62.9794C74.0449 62.5636 75.0951 61.8151 75.8372 60.8342C76.5792 59.8533 76.9776 58.6869 76.9788 57.4917ZM22.3638 84.4564C22.3625 84.4879 22.3484 84.5178 22.3241 84.54C22.2999 84.5623 22.2674 84.5753 22.2332 84.5765H6.19488C6.16068 84.5753 6.12821 84.5623 6.10401 84.54C6.07981 84.5178 6.06567 84.4879 6.06444 84.4564V54.9956C6.06572 54.9641 6.07987 54.9343 6.10406 54.912C6.12825 54.8897 6.16069 54.8767 6.19488 54.8755H22.2332C22.2674 54.8767 22.2998 54.8897 22.3241 54.912C22.3483 54.9342 22.3625 54.9641 22.3638 54.9956V84.4564ZM70.6239 60.5283H65.3137C64.9085 60.5283 64.5199 60.6764 64.2334 60.9402C63.9469 61.2039 63.7859 61.5616 63.7859 61.9345C63.7859 62.3075 63.9469 62.6652 64.2334 62.9289C64.5199 63.1926 64.9085 63.3408 65.3137 63.3408H67.6586C68.5332 63.3419 69.3717 63.6622 69.9902 64.2315C70.6087 64.8007 70.9567 65.5725 70.9579 66.3775C70.9579 67.9596 69.2593 69.569 67.5161 69.7079C66.8742 69.513 66.2026 69.4139 65.5267 69.4145C65.1215 69.4145 64.7329 69.5627 64.4463 69.8264C64.1598 70.0901 63.9989 70.4478 63.9989 70.8208C63.9989 71.1937 64.1598 71.5514 64.4463 71.8151C64.7329 72.0788 65.1215 72.227 65.5267 72.227C65.913 72.2266 66.2964 72.289 66.6592 72.4112C66.6995 72.4276 66.7403 72.4423 66.7824 72.4553C67.3865 72.685 67.9031 73.0744 68.2668 73.5743C68.6306 74.0742 68.8251 74.6621 68.8258 75.2638C68.8258 76.8142 67.0597 78.3927 65.2614 78.5045C64.7184 78.3688 64.1582 78.3002 63.5955 78.3006C63.1903 78.3006 62.8017 78.4487 62.5152 78.7124C62.2287 78.9762 62.0677 79.3339 62.0677 79.7068C62.0677 80.0798 62.2287 80.4375 62.5152 80.7012C62.8017 80.9649 63.1903 81.1131 63.5955 81.1131C63.9155 81.1129 64.2337 81.1556 64.5403 81.24C64.5764 81.2519 64.6132 81.2628 64.6507 81.2723C65.3923 81.5024 66.0209 81.9676 66.4243 82.5849C66.8276 83.2022 66.9795 83.9313 66.8527 84.6422C66.7259 85.353 66.3288 85.9992 65.7322 86.4654C65.1355 86.9316 64.3783 87.1874 63.5957 87.1872H38.7352C38.3961 87.1941 38.0589 87.139 37.7431 87.0248C37.4274 86.9107 37.1396 86.7399 36.8963 86.5223C33.6515 83.7477 30.8153 82.4845 25.4195 81.4511V59.0473L25.6905 58.8046C33.1894 52.1015 35.0264 51.2312 35.4164 51.1256C35.6429 51.0827 35.8558 50.9932 36.0393 50.8637C39.7321 48.2602 42.2328 44.4791 43.0494 40.2641C43.0589 40.2148 43.0656 40.165 43.0696 40.1151L43.5089 34.3767C43.757 33.9559 44.1219 33.6031 44.5664 33.3543C45.0108 33.1055 45.519 32.9695 46.0391 32.9602C46.5592 32.951 47.0727 33.0687 47.5273 33.3014C47.9819 33.5342 48.3613 33.8737 48.6271 34.2853C49.9029 37.1885 50.4755 40.3129 50.3051 43.4406C50.1346 46.5684 49.225 49.6244 47.6399 52.3954C47.5176 52.6098 47.4575 52.8495 47.4654 53.0915C47.4733 53.3335 47.5489 53.5695 47.6849 53.7767C47.821 53.9839 48.0128 54.1552 48.2419 54.2742C48.471 54.3931 48.7296 54.4556 48.9926 54.4556H70.6239C71.4946 54.4617 72.3274 54.7843 72.9407 55.3532C73.5541 55.922 73.8983 56.691 73.8983 57.4925C73.8983 58.2939 73.5541 59.0629 72.9407 59.6317C72.3274 60.2006 71.4946 60.5232 70.6239 60.5293V60.5283ZM17.1847 59.4947V59.6643C17.1847 60.0373 17.0237 60.395 16.7372 60.6587C16.4507 60.9224 16.0621 61.0706 15.6569 61.0706C15.2517 61.0706 14.8631 60.9224 14.5765 60.6587C14.29 60.395 14.129 60.0373 14.129 59.6643V59.4947C14.129 59.1217 14.29 58.764 14.5765 58.5003C14.8631 58.2366 15.2517 58.0884 15.6569 58.0884C16.0621 58.0884 16.4507 58.2366 16.7372 58.5003C17.0237 58.764 17.1847 59.1217 17.1847 59.4947ZM63.0289 12.0554C62.9368 11.7944 62.7637 11.5639 62.5309 11.3923C62.2982 11.2207 62.016 11.1156 61.7192 11.0898L50.7687 10.1406L46.4029 0.848149C46.2846 0.596247 46.0888 0.381721 45.8396 0.231012C45.5904 0.0803034 45.2988 0 45.0006 0C44.7024 0 44.4108 0.0803034 44.1616 0.231012C43.9124 0.381721 43.7166 0.596247 43.5982 0.848149L39.2331 10.1404L28.2828 11.0896C27.9859 11.1154 27.7038 11.2205 27.4711 11.3921C27.2384 11.5637 27.0653 11.7941 26.9731 12.0551C26.881 12.3161 26.8739 12.5963 26.9526 12.8609C27.0313 13.1256 27.1924 13.3633 27.4161 13.5448L35.6688 20.2371L33.266 30.116C33.2009 30.3838 33.2223 30.6633 33.3276 30.92C33.433 31.1767 33.6177 31.3994 33.8589 31.5607C34.1001 31.7221 34.3873 31.8149 34.6851 31.8278C34.983 31.8407 35.2784 31.7731 35.535 31.6333L45.0006 26.4775L54.4658 31.6336C54.7224 31.7734 55.0178 31.841 55.3157 31.8281C55.6135 31.8152 55.9007 31.7224 56.1419 31.5611C56.3831 31.3998 56.5678 31.1771 56.6731 30.9203C56.7785 30.6636 56.7999 30.3841 56.7348 30.1163L54.3321 20.2374L62.5849 13.5451C62.8088 13.3638 62.9701 13.1261 63.049 12.8614C63.1279 12.5967 63.1209 12.3165 63.0289 12.0554ZM51.6346 18.6772C51.4292 18.8438 51.2762 19.0581 51.1916 19.2978C51.107 19.5374 51.0939 19.7936 51.1537 20.0395L52.9821 27.5568L45.7798 23.6332C45.5441 23.5048 45.2754 23.4371 45.0015 23.4371C44.7277 23.4371 44.4589 23.5048 44.2233 23.6332L37.021 27.5568L38.8484 20.039C38.9082 19.7931 38.8952 19.5369 38.8106 19.2973C38.726 19.0576 38.573 18.8433 38.3676 18.6767L32.088 13.5843L40.4204 12.8619C40.6929 12.8382 40.9536 12.7476 41.175 12.5995C41.3965 12.4513 41.5707 12.2512 41.6793 12.0199L45.0006 4.94981L48.3219 12.0204C48.4305 12.2517 48.6047 12.4519 48.8261 12.6C49.0476 12.7481 49.3083 12.8387 49.5808 12.8624L57.9134 13.5849L51.6346 18.6772ZM89.9268 20.2956C89.8346 20.0346 89.6615 19.8041 89.4288 19.6325C89.1961 19.461 88.9139 19.3558 88.617 19.3301L80.9002 18.661L77.8233 12.1127C77.705 11.8608 77.5092 11.6463 77.26 11.4956C77.0108 11.3448 76.7192 11.2645 76.421 11.2645C76.1228 11.2645 75.8312 11.3448 75.582 11.4956C75.3328 11.6463 75.137 11.8608 75.0187 12.1127L71.9428 18.661L64.2257 19.3301C63.9289 19.3558 63.6466 19.4609 63.4139 19.6325C63.1811 19.8041 63.008 20.0346 62.9159 20.2956C62.8237 20.5566 62.8166 20.8368 62.8954 21.1015C62.9741 21.3662 63.1353 21.604 63.3591 21.7854L69.1749 26.5014L67.4817 33.4633C67.4166 33.7312 67.4381 34.0107 67.5435 34.2675C67.6489 34.5242 67.8336 34.747 68.0749 34.9083C68.3162 35.0696 68.6035 35.1623 68.9014 35.1751C69.1993 35.1879 69.4947 35.1202 69.7513 34.9803L76.4216 31.3468L83.0913 34.9803C83.3479 35.1201 83.6433 35.1878 83.9412 35.1749C84.239 35.1621 84.5263 35.0692 84.7675 34.9079C85.0088 34.7466 85.1935 34.5239 85.2988 34.2671C85.4042 34.0103 85.4256 33.7308 85.3605 33.463L83.6671 26.501L89.4827 21.785C89.7064 21.6036 89.8675 21.366 89.9462 21.1013C90.025 20.8367 90.0179 20.5566 89.9258 20.2956H89.9268ZM80.9699 24.9413C80.7645 25.1079 80.6115 25.3222 80.5269 25.5619C80.4423 25.8016 80.4292 26.0577 80.489 26.3036L81.608 30.9038L77.1994 28.5028C76.9638 28.3744 76.695 28.3067 76.4212 28.3067C76.1474 28.3067 75.8786 28.3744 75.643 28.5028L71.2358 30.9038L72.3545 26.3036C72.4143 26.0577 72.4012 25.8016 72.3166 25.5619C72.232 25.3222 72.079 25.1079 71.8736 24.9413L68.0306 21.8253L73.1297 21.383C73.4023 21.3594 73.663 21.2688 73.8845 21.1206C74.106 20.9725 74.2802 20.7723 74.3888 20.541L76.4212 16.2142L78.4536 20.541C78.5622 20.7723 78.7364 20.9725 78.9579 21.1206C79.1794 21.2688 79.4401 21.3594 79.7127 21.383L84.8118 21.8253L80.9699 24.9413ZM25.7773 19.3301L18.0605 18.661L14.9825 12.1127C14.8642 11.8608 14.6684 11.6463 14.4192 11.4956C14.17 11.3448 13.8783 11.2645 13.5802 11.2645C13.282 11.2645 12.9904 11.3448 12.7412 11.4956C12.492 11.6463 12.2962 11.8608 12.1778 12.1127L9.10194 18.661L1.38511 19.3301C1.08822 19.3558 0.80601 19.4609 0.573258 19.6325C0.340505 19.8041 0.167389 20.0346 0.0752505 20.2956C-0.0168879 20.5566 -0.0240198 20.8368 0.0547335 21.1015C0.133487 21.3662 0.294683 21.604 0.518449 21.7854L6.3341 26.5014L4.6407 33.4633C4.57565 33.7312 4.59715 34.0106 4.70255 34.2673C4.80795 34.524 4.99265 34.7467 5.23387 34.908C5.4751 35.0692 5.76232 35.162 6.06013 35.1749C6.35794 35.1877 6.65333 35.1201 6.9099 34.9803L13.5802 31.3468L20.2499 34.9803C20.5065 35.1201 20.8019 35.1877 21.0997 35.1748C21.3975 35.1619 21.6848 35.0691 21.926 34.9078C22.1672 34.7465 22.3518 34.5237 22.4572 34.267C22.5626 34.0103 22.584 33.7308 22.5189 33.463L20.8255 26.501L26.6413 21.785C26.8651 21.6036 27.0263 21.3659 27.105 21.1012C27.1838 20.8364 27.1767 20.5563 27.0845 20.2953C26.9924 20.0342 26.8193 19.8037 26.5865 19.6321C26.3538 19.4606 26.0716 19.3554 25.7747 19.3297L25.7773 19.3301ZM18.1298 24.9413C17.9244 25.1079 17.7714 25.3222 17.6868 25.5619C17.6022 25.8016 17.5891 26.0577 17.649 26.3036L18.7677 30.9036L14.3584 28.5028C14.1228 28.3744 13.854 28.3067 13.5802 28.3067C13.3064 28.3067 13.0376 28.3744 12.8019 28.5028L8.39456 30.9038L9.5135 26.3036C9.5733 26.0577 9.56022 25.8016 9.47563 25.5619C9.39103 25.3222 9.23803 25.1079 9.03262 24.9413L5.18976 21.8253L10.2889 21.383C10.5615 21.3594 10.8221 21.2688 11.0436 21.1206C11.2651 20.9725 11.4393 20.7723 11.548 20.541L13.5802 16.2144L15.6126 20.541C15.7212 20.7723 15.8954 20.9725 16.1168 21.1206C16.3383 21.2687 16.5989 21.3593 16.8715 21.383L21.9706 21.8253L18.1298 24.9413Z" fill="url(#paint0_linear_238_497)"/>
<defs>
<linearGradient id="paint0_linear_238_497" x1="0.000488281" y1="45" x2="90.0005" y2="45" gradientUnits="userSpaceOnUse">
<stop stop-color="white"/>
<stop offset="1" stop-color="white"/>
</linearGradient>
</defs>
</svg>
