<svg xmlns="http://www.w3.org/2000/svg" width="53" height="53" viewBox="0 0 53 53" fill="none"><path d="M52.6967 9.72177L43.2768 0.303197C43.0827 0.109105 42.8194 0 42.5449 0H11.8008C10.0884 0 8.69531 1.39311 8.69531 3.10547V5.07889C3.61011 7.07364 0 12.0301 0 17.8141C0 18.3857 0.463543 18.8493 1.03516 18.8493H13.6735C14.2451 18.8493 14.7086 18.3857 14.7086 17.8141V5.17578C14.7086 4.60417 14.2451 4.14062 13.6735 4.14062C12.6758 4.14062 11.7032 4.24901 10.7656 4.45293V3.10547C10.7656 2.53468 11.23 2.07031 11.8008 2.07031H41.5098V8.38477C41.5098 10.0971 42.9029 11.4902 44.6152 11.4902H50.9297V49.8945C50.9297 50.4653 50.4653 50.9297 49.8945 50.9297H11.8008C11.23 50.9297 10.7656 50.4653 10.7656 49.8945V41.0267C10.7656 40.455 10.3021 39.9915 9.73047 39.9915C9.15886 39.9915 8.69531 40.455 8.69531 41.0267V49.8945C8.69531 51.6069 10.0884 53 11.8008 53H49.8945C51.6069 53 53 51.6069 53 49.8945V10.4537C53 10.1792 52.8909 9.91587 52.6967 9.72177ZM12.6382 6.2568V16.779H2.11607C2.61097 11.2048 7.06422 6.7517 12.6382 6.2568ZM44.6152 9.41992C44.0444 9.41992 43.5801 8.95555 43.5801 8.38477V3.53402L49.4668 9.41992H44.6152Z" fill="#FDFDFD"></path><path d="M10.4622 36.5338C10.2698 36.3411 10.0027 36.2305 9.73047 36.2305C9.45822 36.2305 9.19115 36.3411 8.99861 36.5338C8.80607 36.7263 8.69531 36.9934 8.69531 37.2656C8.69531 37.5379 8.80597 37.8049 8.99861 37.9974C9.19115 38.19 9.45822 38.3008 9.73047 38.3008C10.0027 38.3008 10.2698 38.19 10.4622 37.9974C10.6549 37.8049 10.7656 37.5379 10.7656 37.2656C10.7656 36.9934 10.6549 36.7263 10.4622 36.5338Z" fill="#FDFDFD"></path><path d="M17.3824 7.84839C16.8108 7.84839 16.3472 8.31193 16.3472 8.88354V20.4866H4.74414C4.17253 20.4866 3.70898 20.9502 3.70898 21.5218C3.70898 29.0613 9.8428 35.1953 17.3824 35.1953C24.9219 35.1953 31.0558 29.0613 31.0558 21.5218C31.0558 13.9822 24.9219 7.84839 17.3824 7.84839ZM18.4175 9.96456C20.8408 10.1797 23.052 11.1434 24.8185 12.6218L18.4175 19.0227V9.96456ZM17.3824 33.1249C11.3332 33.1249 6.35029 28.472 5.82515 22.5569H17.3824C17.6681 22.5569 17.9266 22.4412 18.114 22.254C18.114 22.254 18.1142 22.2539 18.1144 22.2537L26.2827 14.0855C27.9691 16.1007 28.9855 18.6948 28.9855 21.5218C28.9855 27.9198 23.7804 33.1249 17.3824 33.1249Z" fill="#FDFDFD"></path><path d="M45.3475 32.6702C43.6351 32.6702 42.242 34.0633 42.242 35.7756C42.242 36.2048 42.3296 36.6138 42.4876 36.9859L36.5238 42.9498C36.114 42.7501 35.654 42.6378 35.1683 42.6378C34.6941 42.6378 34.2446 42.745 33.8422 42.9358L29.8819 38.9755C30.0192 38.6252 30.0954 38.2444 30.0954 37.8458C30.0954 36.1335 28.7023 34.7404 26.9899 34.7404C25.2775 34.7404 23.8844 36.1335 23.8844 37.8458C23.8844 38.3098 23.9874 38.7499 24.1707 39.1457L20.3722 42.9442C19.9675 42.7506 19.5147 42.642 19.0371 42.642C17.3248 42.642 15.9316 44.0351 15.9316 45.7475C15.9316 47.4599 17.3248 48.853 19.0371 48.853C20.7495 48.853 22.1426 47.4599 22.1426 45.7475C22.1426 45.2675 22.0331 44.8127 21.8378 44.4066L25.6151 40.6293C26.0299 40.8351 26.4965 40.9513 26.9901 40.9513C27.5475 40.9513 28.0706 40.803 28.5233 40.5448L32.3719 44.3934C32.174 44.8018 32.0628 45.2597 32.0628 45.7433C32.0628 47.4556 33.4559 48.8487 35.1683 48.8487C36.8806 48.8487 38.2737 47.4556 38.2737 45.7433C38.2737 45.2714 38.1675 44.824 37.9784 44.4232L43.8866 38.5151C44.3222 38.7484 44.8196 38.8811 45.3475 38.8811C47.0598 38.8811 48.4529 37.488 48.4529 35.7756C48.4529 34.0633 47.0598 32.6702 45.3475 32.6702ZM19.037 46.7828C18.4662 46.7828 18.0019 46.3184 18.0019 45.7476C18.0019 45.1768 18.4662 44.7124 19.037 44.7124C19.3149 44.7124 19.567 44.8231 19.7531 45.002C19.7573 45.0063 19.7609 45.011 19.7651 45.0152C19.7701 45.0202 19.7755 45.0243 19.7806 45.0291C19.9607 45.2154 20.0722 45.4686 20.0722 45.7476C20.0722 46.3183 19.6078 46.7828 19.037 46.7828ZM26.9899 38.881C26.4191 38.881 25.9547 38.4166 25.9547 37.8458C25.9547 37.2751 26.4191 36.8107 26.9899 36.8107C27.5607 36.8107 28.0251 37.2751 28.0251 37.8458C28.0251 38.4166 27.5607 38.881 26.9899 38.881ZM35.1681 46.7784C34.5973 46.7784 34.1329 46.314 34.1329 45.7433C34.1329 45.1725 34.5973 44.7081 35.1681 44.7081C35.7388 44.7081 36.2032 45.1725 36.2032 45.7433C36.2032 46.314 35.7388 46.7784 35.1681 46.7784ZM45.3473 36.8107C44.7765 36.8107 44.3121 36.3463 44.3121 35.7755C44.3121 35.2047 44.7766 34.7404 45.3473 34.7404C45.918 34.7404 46.3824 35.2047 46.3824 35.7755C46.3824 36.3463 45.918 36.8107 45.3473 36.8107Z" fill="#FDFDFD"></path><path d="M40.1744 24.3262H34.7109C34.1393 24.3262 33.6758 24.7897 33.6758 25.3613C33.6758 25.9329 34.1392 26.3965 34.7109 26.3965H40.1744C40.746 26.3965 41.2095 25.9329 41.2095 25.3613C41.2095 24.7897 40.746 24.3262 40.1744 24.3262Z" fill="#FDFDFD"></path><path d="M45.6185 24.6295C45.426 24.4369 45.159 24.3262 44.8867 24.3262C44.6145 24.3262 44.3474 24.4368 44.1549 24.6295C43.9623 24.822 43.8516 25.0891 43.8516 25.3613C43.8516 25.6336 43.9622 25.9006 44.1549 26.0931C44.3474 26.2856 44.6134 26.3965 44.8867 26.3965C45.159 26.3965 45.426 26.2857 45.6185 26.0931C45.811 25.9006 45.9219 25.6336 45.9219 25.3613C45.9219 25.0891 45.8111 24.822 45.6185 24.6295Z" fill="#FDFDFD"></path><path d="M47.3558 14.3887H34.7109C34.1393 14.3887 33.6758 14.8522 33.6758 15.4238C33.6758 15.9954 34.1392 16.459 34.7109 16.459H47.3558C47.9274 16.459 48.3909 15.9954 48.3909 15.4238C48.3909 14.8522 47.9274 14.3887 47.3558 14.3887Z" fill="#FDFDFD"></path><path d="M47.3558 19.3574H34.7109C34.1393 19.3574 33.6758 19.821 33.6758 20.3926C33.6758 20.9642 34.1392 21.4277 34.7109 21.4277H47.3558C47.9274 21.4277 48.3909 20.9642 48.3909 20.3926C48.3909 19.821 47.9274 19.3574 47.3558 19.3574Z" fill="#FDFDFD"></path></svg>