<svg width="90" height="90" viewBox="0 0 90 90" fill="none" xmlns="http://www.w3.org/2000/svg">
<mask id="mask0_238_463" style="mask-type:luminance" maskUnits="userSpaceOnUse" x="0" y="0" width="91" height="90">
<path d="M88.5005 88.5V1.5H1.50049V88.5H88.5005Z" fill="white" stroke="white" stroke-width="3"/>
</mask>
<g mask="url(#mask0_238_463)">
<path d="M43.1548 58.2421V61.4355C43.1548 62.8917 41.9742 64.0723 40.5181 64.0723H32.7837C31.5216 64.0723 30.4985 63.0492 30.4985 61.7871V34.541C30.4985 33.0848 31.6791 31.9043 33.1353 31.9043H40.5181C41.9742 31.9043 43.1548 33.0848 43.1548 34.541V52.0898" stroke="url(#paint0_linear_238_463)" stroke-width="3" stroke-miterlimit="10" stroke-linecap="round" stroke-linejoin="round"/>
<path d="M43.1548 34.7168H45.9258C46.9288 34.7168 47.9109 34.4308 48.7569 33.8924L55.9594 29.3091C58.4945 27.6957 60.0298 24.8991 60.0298 21.8941V17.7539C60.0298 15.0841 62.194 12.9199 64.8638 12.9199C67.5335 12.9199 69.6978 15.0841 69.6978 17.7539L69.7083 33.8384C69.7085 34.3236 70.1019 34.7168 70.5872 34.7168H75.8501H81.4682C83.6128 34.7168 85.4393 36.3844 85.5154 38.5276C85.5956 40.7777 83.7952 42.627 81.563 42.627H84.7271C86.9593 42.627 88.7596 44.4762 88.6795 46.7263C88.6034 48.8695 86.7768 50.5371 84.6323 50.5371H81.563C83.7952 50.5371 85.5956 52.3863 85.5154 54.6365C85.4393 56.7796 83.6128 58.4473 81.4682 58.4473H76.8169C78.4961 58.4473 79.8612 59.7929 79.8925 61.4647C79.9249 63.1886 78.4604 64.5996 76.7362 64.5996H50.0723C48.553 64.5996 47.0596 64.2059 45.7379 63.4565L43.1548 61.9922" stroke="url(#paint1_linear_238_463)" stroke-width="3" stroke-miterlimit="10" stroke-linecap="round" stroke-linejoin="round"/>
<path d="M81.563 42.627H74.356" stroke="url(#paint2_linear_238_463)" stroke-width="3" stroke-miterlimit="10" stroke-linecap="round" stroke-linejoin="round"/>
<path d="M81.563 50.5371H74.356" stroke="url(#paint3_linear_238_463)" stroke-width="3" stroke-miterlimit="10" stroke-linecap="round" stroke-linejoin="round"/>
<path d="M76.6411 58.4473H74.356" stroke="url(#paint4_linear_238_463)" stroke-width="3" stroke-miterlimit="10" stroke-linecap="round" stroke-linejoin="round"/>
<path d="M57.4899 64.6286C53.0115 75.053 42.6515 82.3535 30.5864 82.3535C14.4225 82.3535 1.31885 69.2499 1.31885 53.0859V26.7188C1.31885 26.2332 1.71242 25.8398 2.19775 25.8398H2.54932C11.2867 25.8398 18.3696 18.7569 18.3696 10.0195V8.52539C18.3696 8.03988 18.7632 7.64648 19.2485 7.64648H41.9243C42.4098 7.64648 42.8032 8.03988 42.8032 8.52539V10.4296C42.8032 19.167 49.8863 26.2499 58.6235 26.2499" stroke="url(#paint5_linear_238_463)" stroke-width="3" stroke-miterlimit="10" stroke-linecap="round" stroke-linejoin="round"/>
<path d="M30.4985 60.5566V77.0801C17.2954 77.0801 6.59229 66.3769 6.59229 53.174V30.0586C15.7988 30.0586 23.2621 22.5953 23.2621 13.3887V12.832H30.4985V25.752" stroke="url(#paint6_linear_238_463)" stroke-width="3" stroke-miterlimit="10" stroke-linecap="round" stroke-linejoin="round"/>
<path d="M30.4106 34.541H22.9399C21.775 34.541 20.8306 35.4855 20.8306 36.6504V59.3262C20.8306 60.4911 21.775 61.4355 22.9399 61.4355H30.4106" stroke="url(#paint7_linear_238_463)" stroke-width="3" stroke-miterlimit="10" stroke-linecap="round" stroke-linejoin="round"/>
</g>
<defs>
<linearGradient id="paint0_linear_238_463" x1="30.4985" y1="47.9883" x2="43.1548" y2="47.9883" gradientUnits="userSpaceOnUse">
<stop stop-color="#2F057B"/>
<stop offset="1" stop-color="#6441C1"/>
</linearGradient>
<linearGradient id="paint1_linear_238_463" x1="43.1548" y1="38.7598" x2="88.6821" y2="38.7598" gradientUnits="userSpaceOnUse">
<stop stop-color="#2F057B"/>
<stop offset="1" stop-color="#6441C1"/>
</linearGradient>
<linearGradient id="paint2_linear_238_463" x1="74.356" y1="42.127" x2="81.563" y2="42.127" gradientUnits="userSpaceOnUse">
<stop stop-color="#2F057B"/>
<stop offset="1" stop-color="#6441C1"/>
</linearGradient>
<linearGradient id="paint3_linear_238_463" x1="74.356" y1="50.0371" x2="81.563" y2="50.0371" gradientUnits="userSpaceOnUse">
<stop stop-color="#2F057B"/>
<stop offset="1" stop-color="#6441C1"/>
</linearGradient>
<linearGradient id="paint4_linear_238_463" x1="74.356" y1="57.9473" x2="76.6411" y2="57.9473" gradientUnits="userSpaceOnUse">
<stop stop-color="#2F057B"/>
<stop offset="1" stop-color="#6441C1"/>
</linearGradient>
<linearGradient id="paint5_linear_238_463" x1="1.31885" y1="45" x2="58.6235" y2="45" gradientUnits="userSpaceOnUse">
<stop stop-color="#2F057B"/>
<stop offset="1" stop-color="#6441C1"/>
</linearGradient>
<linearGradient id="paint6_linear_238_463" x1="6.59229" y1="44.9561" x2="30.4985" y2="44.9561" gradientUnits="userSpaceOnUse">
<stop stop-color="#2F057B"/>
<stop offset="1" stop-color="#6441C1"/>
</linearGradient>
<linearGradient id="paint7_linear_238_463" x1="20.8306" y1="47.9883" x2="30.4106" y2="47.9883" gradientUnits="userSpaceOnUse">
<stop stop-color="#2F057B"/>
<stop offset="1" stop-color="#6441C1"/>
</linearGradient>
</defs>
</svg>
