<svg width="90" height="90" viewBox="0 0 90 90" fill="none" xmlns="http://www.w3.org/2000/svg">
<path d="M85.2878 6.02776C84.2179 5.91921 83.1403 6.14006 82.1994 6.66075C81.74 5.17038 80.6349 3.9655 79.1898 3.37928C77.7446 2.79306 76.1125 2.8876 74.7446 3.63678C73.9831 1.2786 71.6763 -0.225926 69.2113 0.0278128C67.6073 0.210156 66.1788 1.1267 65.3445 2.50879C64.0974 1.58562 62.5006 1.27397 60.998 1.66048C59.4953 2.04699 58.2471 3.09046 57.6002 4.50077H42.8287C42.555 4.49874 42.287 4.42254 42.0532 4.28027L35.9889 0.651807C35.2918 0.230457 34.4936 0.00551673 33.679 0.000813H11.4663C8.72144 -0.0359589 6.38411 1.98871 6.02895 4.71077C5.92057 5.78118 6.1414 6.85917 6.66192 7.80074C5.17116 8.25955 3.9659 9.36471 3.37986 10.8102C2.79381 12.2557 2.88917 13.8882 3.63953 15.2557C1.27776 16.0145 -0.228865 18.3248 0.0291478 20.7921C0.210822 22.3964 1.12752 23.8253 2.51006 24.6591C1.7489 25.7089 1.39981 27.0018 1.5291 28.2921C1.7434 30.0855 2.86708 31.6418 4.502 32.4095V47.1754C4.49938 47.4478 4.42264 47.7143 4.28 47.9464L0.620128 54.0423C0.221818 54.7372 0.00900241 55.5229 0.00214866 56.3238V78.5371C-0.0324028 81.2814 1.99216 83.6174 4.71349 83.973C5.78325 84.0786 6.85991 83.858 7.80189 83.34C8.26105 84.8309 9.36648 86.0362 10.8122 86.6222C12.2579 87.2083 13.8905 87.1129 15.2581 86.3625C15.9531 88.5329 17.9726 90.004 20.2515 90C22.0597 90.0004 23.7344 89.0479 24.6583 87.4935C25.9066 88.4166 27.5043 88.7281 29.0079 88.3414C30.5114 87.9546 31.7606 86.9109 32.4086 85.5H47.1726C47.4462 85.5021 47.7142 85.5783 47.948 85.7205L54.0123 89.352C54.71 89.7718 55.5081 89.9951 56.3223 89.9985H78.535C81.2798 90.0353 83.6172 88.0106 83.9723 85.2885C84.0804 84.2186 83.8596 83.1412 83.3394 82.2001C84.8301 81.7413 86.0354 80.6361 86.6214 79.1906C87.2075 77.7451 87.1121 76.1126 86.3618 74.7451C88.7223 73.9866 90.2286 71.6779 89.9721 69.2117C89.7905 67.6074 88.8738 66.1785 87.4912 65.3447C88.2524 64.2949 88.6015 63.002 88.4722 61.7117C88.2562 59.9204 87.1327 58.3667 85.4993 57.6003V42.8254C85.5025 42.5524 85.5786 42.2852 85.7198 42.0514L89.3527 35.9885C89.7724 35.2903 89.9958 34.4917 89.9991 33.677V11.4637C90.0337 8.71939 88.0091 6.38344 85.2878 6.02776ZM3.01405 20.4951C2.94455 19.8594 3.14888 19.2241 3.57594 18.7481C4.00301 18.2721 4.61246 18.0003 5.25197 18.0006H15.0016C15.83 18.0006 16.5016 17.3291 16.5016 16.5007C16.5016 15.6722 15.83 15.0007 15.0016 15.0007H8.25187C7.61245 15.0022 7.00259 14.7316 6.57468 14.2564C6.14677 13.7813 5.94124 13.1465 6.00945 12.5107C6.20139 11.3153 7.25662 10.452 8.46636 10.5007H18.0015C18.8299 10.5007 19.5015 9.82915 19.5015 9.00073C19.5015 8.17231 18.8299 7.50074 18.0015 7.50074H11.2518C10.6124 7.50226 10.0025 7.23163 9.57458 6.75648C9.14667 6.28134 8.94114 5.64656 9.00935 5.01077C9.20067 3.81497 10.2563 2.95137 11.4663 3.00079H33.679C33.9524 3.00286 34.2201 3.07963 34.453 3.22278L40.5188 6.85575C41.2169 7.27431 42.0148 7.49711 42.8287 7.50074H57.0002V20.8341L54.4023 18.7071C52.4528 17.2191 49.7107 17.3699 47.936 19.0626C46.6183 20.3406 46.1603 22.2662 46.7616 24.0006H41.7322C40.5518 24.0056 39.4205 24.4742 38.5824 25.3056L24.4663 39.3065L24.4363 39.3365L23.8124 39.9544C23.0807 40.6698 21.9092 40.6618 21.1874 39.9364C20.5286 39.275 20.4644 38.2269 21.0374 37.49L25.1623 32.45C25.5291 32.0014 25.6047 31.3817 25.3565 30.8581C25.1083 30.3345 24.5808 30.0006 24.0013 30.0005H6.96641C5.75862 30.0477 4.7058 29.1855 4.514 27.9921C4.44542 27.3568 4.65016 26.7224 5.07712 26.247C5.50408 25.7717 6.11299 25.5003 6.75192 25.5006H15.0016C15.83 25.5006 16.5016 24.829 16.5016 24.0006C16.5016 23.1722 15.83 22.5006 15.0016 22.5006H5.46647C4.25987 22.5473 3.20783 21.687 3.01405 20.4951ZM63 48.9859L49.3055 62.5667C49.03 62.842 48.657 62.9973 48.2675 62.9987H41.0138L27.4347 49.3099C27.1587 49.0342 27.0028 48.6605 27.0012 48.2704V41.0104L40.6913 27.4341C40.9672 27.1575 41.3416 27.0016 41.7322 27.0006H48.992L62.571 40.6894C62.845 40.9668 62.9991 41.3406 63 41.7304V48.9859ZM27.9792 85.488C27.3477 85.5562 26.7171 85.3509 26.2468 84.924C25.7742 84.4955 25.5036 83.888 25.5013 83.2501V83.2276V75.0001C25.5013 74.1717 24.8297 73.5001 24.0013 73.5001C23.1729 73.5001 22.5014 74.1717 22.5014 75.0001V83.2501V83.271V84.5385C22.5426 85.7506 21.6731 86.803 20.475 86.991C19.8447 87.0596 19.2154 86.8542 18.747 86.427C18.2734 85.998 18.0027 85.3891 18.0015 84.75V81.7501V81.7201V75.0001C18.0015 74.1717 17.33 73.5001 16.5016 73.5001C15.6732 73.5001 15.0016 74.1717 15.0016 75.0001V81.7501V81.7681C14.9976 82.4041 14.7246 83.0087 14.2502 83.4323C13.7757 83.8559 13.1441 84.0589 12.5117 83.991C11.3165 83.7998 10.4532 82.745 10.5018 81.5356V78.7501V78.7276V72.0002C10.5018 71.1717 9.83025 70.5002 9.00185 70.5002C8.17345 70.5002 7.5019 71.1717 7.5019 72.0002V78.7501V78.7636C7.49912 79.4001 7.22686 80.0057 6.75259 80.4302C6.27831 80.8548 5.64642 81.0585 5.01348 80.9911C3.81865 80.7999 2.95497 79.7462 3.00205 78.5371V56.3238C3.00436 56.0536 3.07505 55.7883 3.20754 55.5528L6.85692 49.4839C7.27459 48.7859 7.49733 47.9887 7.5019 47.1754V33.0005H20.8335L18.705 35.6C17.3328 37.2691 17.2352 39.6462 18.466 41.4222C19.6968 43.1981 21.9568 43.9413 24.0013 43.2424V48.2704C24.0063 49.4509 24.475 50.5822 25.3063 51.4203L39.2948 65.5202C39.3113 65.5382 39.3278 65.5547 39.3458 65.5712L39.9563 66.1862C40.4819 66.7212 40.6347 67.5195 40.344 68.2108C40.0533 68.9021 39.3758 69.3512 38.6259 69.3497C38.2177 69.3515 37.821 69.2145 37.5009 68.9612L32.4626 64.8377C32.0141 64.4631 31.3889 64.3831 30.8605 64.6327C30.3321 64.8822 29.9968 65.4159 30.0011 66.0002V83.0356C30.0426 84.2462 29.1755 85.298 27.9792 85.488ZM86.9872 69.5057C87.0567 70.1414 86.8524 70.7767 86.4253 71.2527C85.9983 71.7287 85.3888 72.0005 84.7493 72.0002H74.9996C74.1712 72.0002 73.4997 72.6717 73.4997 73.5001C73.4997 74.3286 74.1712 75.0001 74.9996 75.0001H81.7494C82.3888 74.9986 82.9987 75.2692 83.4266 75.7444C83.8545 76.2195 84.06 76.8543 83.9918 77.4901C83.7999 78.6855 82.7447 79.5488 81.5349 79.5001H71.9997C71.1713 79.5001 70.4998 80.1717 70.4998 81.0001C70.4998 81.8285 71.1713 82.5001 71.9997 82.5001H78.7495C79.3889 82.4985 79.9988 82.7692 80.4267 83.2443C80.8546 83.7195 81.0601 84.3542 80.9919 84.99C80.8006 86.1858 79.745 87.0494 78.535 87H56.3223C56.0489 86.9979 55.7812 86.9212 55.5483 86.778L49.4825 83.1451C48.7844 82.7265 47.9865 82.5037 47.1726 82.5001H33.001V69.1637L35.599 71.2907C37.5467 72.7845 40.293 72.6335 42.0652 70.9352C43.3833 69.6588 43.843 67.7346 43.2442 66.0002H48.269C49.4495 65.9952 50.5808 65.5266 51.4189 64.6952L65.5304 50.7003L65.5829 50.6493L66.1934 50.0494C66.9251 49.334 68.0965 49.3421 68.8183 50.0674C69.4771 50.7288 69.5414 51.7769 68.9683 52.5138L64.8435 57.5538C64.4791 58.0018 64.4042 58.6192 64.651 59.1413C64.8978 59.6635 65.4224 59.9975 65.9999 60.0003H83.0349C84.2427 59.9531 85.2955 60.8153 85.4873 62.0087C85.5559 62.644 85.3511 63.2784 84.9242 63.7538C84.4972 64.2291 83.8883 64.5005 83.2494 64.5002H74.9996C74.1712 64.5002 73.4997 65.1718 73.4997 66.0002C73.4997 66.8286 74.1712 67.5002 74.9996 67.5002H84.5393C85.7442 67.4558 86.7936 68.3156 86.9872 69.5057ZM86.9992 33.677C86.9969 33.9502 86.9207 34.2176 86.7787 34.451L83.1444 40.5169C82.726 41.2146 82.5032 42.012 82.4994 42.8254V57.0003H69.1633L71.2918 54.4008C72.8367 52.4698 72.6823 49.6857 70.9333 47.9374C69.623 46.68 67.7283 46.2434 65.9999 46.8004V41.7304C65.995 40.5499 65.5263 39.4186 64.695 38.5805L50.7004 24.4596L50.6719 24.4311L50.0525 23.8071C49.701 23.4599 49.5047 22.9855 49.5081 22.4916C49.5115 21.9976 49.7143 21.5259 50.0705 21.1836C50.7409 20.5439 51.7748 20.4806 52.5184 21.0336L57.5567 25.1571C58.0048 25.5196 58.6209 25.5934 59.1419 25.3468C59.6629 25.1002 59.9965 24.577 60.0001 24.0006V6.96525C59.9537 5.75716 60.8164 4.70453 62.0101 4.51277C62.6451 4.44465 63.2791 4.6496 63.7541 5.07652C64.229 5.50344 64.5002 6.1121 64.5 6.75075V15.0007C64.5 15.8291 65.1715 16.5007 65.9999 16.5007C66.8283 16.5007 67.4999 15.8291 67.4999 15.0007V5.46526C67.4528 4.25694 68.3158 3.20392 69.5098 3.01279C70.1448 2.94466 70.7788 3.14961 71.2538 3.57653C71.7288 4.00345 72 4.61211 71.9997 5.25076V15.0007C71.9997 15.8291 72.6713 16.5007 73.4997 16.5007C74.3281 16.5007 74.9996 15.8291 74.9996 15.0007V8.25074C74.9985 7.61156 75.2693 7.00209 75.7444 6.5745C76.2195 6.14692 76.854 5.94158 77.4895 6.00976C78.6847 6.20102 79.5481 7.2558 79.4995 8.46524V18.0006C79.4995 18.8291 80.171 19.5006 80.9994 19.5006C81.8278 19.5006 82.4994 18.8291 82.4994 18.0006V11.2507C82.4983 10.6115 82.7691 10.0021 83.2442 9.57448C83.7193 9.14689 84.3538 8.94155 84.9893 9.00973C86.1835 9.20155 87.0464 10.2551 86.9992 11.4637V33.677Z" fill="#FDFDFD"/>
</svg>
