<svg xmlns="http://www.w3.org/2000/svg" width="50" height="53" viewBox="0 0 50 53" fill="none"><path d="M35.0545 15.661C32.4326 13.0558 28.8613 11.6211 24.9986 11.6211C21.136 11.6211 17.5647 13.0558 14.9428 15.661C12.3215 18.2656 10.8779 21.8069 10.8779 25.6328C10.8779 29.716 12.6591 33.6122 15.7649 36.3224C17.3923 37.7424 18.4196 39.7064 18.7626 42.0293C17.9278 42.5286 17.3665 43.4475 17.3665 44.4969V45.3556C17.3665 46.6606 18.2345 47.7639 19.4173 48.1089C19.2594 48.4655 19.1709 48.86 19.1709 49.2752V50.134C19.1709 51.7141 20.443 52.9997 22.0065 52.9997H27.9909C29.5544 52.9997 30.8265 51.7141 30.8265 50.134V49.2752C30.8265 48.86 30.738 48.4654 30.5801 48.1089C31.763 47.7639 32.6309 46.6607 32.6309 45.3556V44.4969C32.6309 43.4475 32.0696 42.5286 31.2348 42.0293C31.578 39.7064 32.6052 37.7424 34.2325 36.3224C37.3383 33.6123 39.1195 29.7161 39.1195 25.6328C39.1195 21.8069 37.6758 18.2656 35.0545 15.661ZM29.0487 50.1339C29.0487 50.715 28.5742 51.1876 27.9909 51.1876H22.0064C21.4231 51.1876 20.9486 50.715 20.9486 50.1339V49.2751C20.9486 48.694 21.4231 48.2212 22.0064 48.2212H27.9907C28.5741 48.2212 29.0486 48.6939 29.0486 49.2751L29.0487 50.1339ZM30.8531 45.3555C30.8531 45.9366 30.3785 46.4093 29.7952 46.4093H27.9907H22.0064H20.202C19.6187 46.4093 19.1441 45.9366 19.1441 45.3555V44.4968C19.1441 43.9157 19.6187 43.443 20.202 43.443H29.7952C30.3785 43.443 30.8531 43.9157 30.8531 44.4968V45.3555ZM22.2419 30.2648H20.4788C19.7658 30.2648 19.1858 29.6858 19.1858 28.9741C19.1858 28.2625 19.7658 27.6833 20.4788 27.6833H20.9489C21.6619 27.6833 22.2419 28.2624 22.2419 28.9741V30.2648ZM26.0413 41.631H24.0196V32.0768H26.0413V41.631ZM33.0763 34.9459C31.1473 36.6291 29.9222 38.9279 29.4969 41.631H27.819V32.0768H29.6111C31.3043 32.0768 32.6818 30.6849 32.6818 28.9741C32.6818 27.2633 31.3043 25.8714 29.6111 25.8714H29.112C27.4187 25.8714 26.0412 27.2633 26.0412 28.9741V30.2648H24.0195V28.9741C24.0195 27.2633 22.642 25.8714 20.9488 25.8714H20.4787C18.7855 25.8714 17.4079 27.2633 17.4079 28.9741C17.4079 30.685 18.7855 32.0768 20.4787 32.0768H22.2418V41.631H20.5002C20.0749 38.9279 18.8498 36.6291 16.9208 34.9459C14.2101 32.5805 12.6554 29.1859 12.6554 25.6328C12.6554 18.6778 17.9617 13.4331 24.9984 13.4331C32.0352 13.4331 37.3415 18.6778 37.3415 25.6328C37.3417 29.1859 35.787 32.5804 33.0763 34.9459ZM27.8191 30.2648V28.9741C27.8191 28.2624 28.3991 27.6833 29.1121 27.6833H29.6112C30.3242 27.6833 30.9042 28.2624 30.9042 28.9741C30.9042 29.6859 30.3242 30.2648 29.6112 30.2648H27.8191Z" fill="#FDFDFD"></path><path d="M39.2355 45.8126C38.5759 45.8126 37.9363 45.5584 37.4433 45.0573L34.9436 42.5165L36.1989 41.2336L38.6986 43.7743C39.0379 44.1191 39.4922 44.018 39.7994 43.8164L42.8635 40.8058C43.1934 40.4657 43.0979 40.013 42.904 39.7039L40.4637 37.2235C40.1602 36.915 40.1159 36.4297 40.3584 36.0695C41.6885 34.0935 42.6495 31.7906 43.1375 29.4098C43.2236 28.9899 43.5867 28.6891 44.0076 28.6891H47.4845C47.7783 28.637 48.2221 28.4223 48.2221 27.9013V23.5208C48.1838 23.2962 48.0209 22.7731 47.3405 22.7731H43.7992C43.3649 22.7731 42.9941 22.4531 42.9225 22.0165C42.5537 19.7673 41.6269 17.434 40.2425 15.2689C40.0128 14.9097 40.0616 14.4356 40.3595 14.1327L42.8591 11.592C43.1961 11.2494 43.0976 10.7906 42.9005 10.4802L39.9386 7.36585C39.6019 7.02837 39.1536 7.1261 38.8478 7.32463L36.4074 9.80509C36.1052 10.1123 35.6313 10.1571 35.2787 9.912C33.3343 8.55971 31.0681 7.58261 28.725 7.08647C28.3125 6.99915 28.0169 6.62872 28.0169 6.1994V2.59982C28.0169 2.1286 27.6687 1.81196 27.3434 1.81196H23.0332C22.7393 1.86394 22.2956 2.07877 22.2956 2.59982V6.30506C22.2956 6.74808 21.9812 7.1261 21.5525 7.19881C19.3388 7.57389 17.0426 8.51611 14.912 9.92366C14.5605 10.1559 14.0975 10.1064 13.8009 9.80498L11.3013 7.26427C10.962 6.91954 10.5077 7.02056 10.2005 7.22214L7.1363 10.2328C6.80652 10.5728 6.90208 11.0256 7.09597 11.3345L9.53629 13.815C9.83985 14.1234 9.88407 14.6088 9.64162 14.969C8.31152 16.9449 7.35052 19.2478 6.86252 21.6287C6.77641 22.0486 6.4133 22.3494 5.99242 22.3494H2.51554C2.22166 22.4014 1.77777 22.6162 1.77777 23.1373V27.5175C1.8291 27.8156 2.04088 28.2655 2.55532 28.2655H6.09642C6.53075 28.2655 6.90152 28.5854 6.97319 29.0221C7.34197 31.2714 8.26874 33.6046 9.65329 35.7696C9.88296 36.1288 9.83418 36.603 9.53629 36.9058L7.03664 39.4465C6.69964 39.7891 6.79819 40.248 6.99541 40.5584L9.95729 43.6728C10.2941 44.0102 10.7423 43.9124 11.0481 43.714L13.4885 41.2334L14.7438 42.5164L12.2442 45.0571C12.2095 45.0924 12.1722 45.1246 12.1323 45.1535C11.021 45.9604 9.60851 45.8773 8.69752 44.9513C8.69396 44.9476 8.69052 44.944 8.68696 44.9403L5.66653 41.7646C5.63597 41.7324 5.60775 41.698 5.58209 41.6616C4.78665 40.5297 4.86853 39.0913 5.7812 38.1635L7.7783 36.1337C6.61786 34.1808 5.79275 32.1127 5.36198 30.0774H2.55532C1.24833 30.0774 0.176555 29.076 0.00688889 27.6962C0.00233335 27.6588 0 27.6212 0 27.5835V23.1373C0 21.8073 0.984551 20.7168 2.34121 20.5444C2.37766 20.5397 2.41443 20.5373 2.45121 20.5373H5.28364C5.79586 18.4293 6.64419 16.3935 7.76763 14.5761L5.78131 12.5571C5.74653 12.5219 5.71486 12.4837 5.68631 12.4432C4.89087 11.3113 4.97276 9.87281 5.88542 8.9452C5.88897 8.94158 5.89253 8.93807 5.8962 8.93444L9.02074 5.86441C9.0524 5.83338 9.08618 5.80473 9.12196 5.7788C10.2332 4.97191 11.6457 5.05503 12.5567 5.98117L14.5564 8.01363C16.4787 6.83291 18.5147 5.99363 20.518 5.55559V2.59982C20.518 1.26973 21.5026 0.179271 22.8592 0.00702135C22.8955 0.0023782 22.9322 0 22.9689 0H27.3433C28.6949 0 29.7945 1.16622 29.7945 2.59982V5.47597C31.8697 5.9968 33.8736 6.85975 35.6625 8.00287L37.6516 5.98117C37.6863 5.94595 37.7236 5.91368 37.7635 5.8848C38.8747 5.07791 40.2872 5.16103 41.1983 6.08706C41.2018 6.09068 41.2054 6.09431 41.2088 6.09804L44.2292 9.27396C44.2598 9.30612 44.288 9.34055 44.3137 9.37701C45.1091 10.5089 45.0271 11.9474 44.1146 12.875L42.1176 14.9049C43.2779 16.8577 44.103 18.9261 44.5339 20.9611H47.3406C48.7299 20.9611 49.8207 21.9402 49.9931 23.3424C49.9977 23.3797 50 23.4175 50 23.455V27.9013C50 29.2312 49.0154 30.3217 47.6588 30.4942C47.6223 30.4988 47.5856 30.5012 47.5488 30.5012H44.7164C44.2041 32.6092 43.3558 34.645 42.2324 36.4624L44.2187 38.4814C44.2535 38.5166 44.2851 38.5548 44.3137 38.5953C45.1091 39.7273 45.0272 41.1657 44.1146 42.0934C44.111 42.0971 44.1075 42.1006 44.1038 42.1042L40.9793 45.1742C40.9476 45.2053 40.9138 45.2339 40.878 45.2599C40.368 45.6297 39.7946 45.8126 39.2355 45.8126Z" fill="#FDFDFD"></path></svg>