<svg width="90" height="90" viewBox="0 0 90 90" fill="none" xmlns="http://www.w3.org/2000/svg">
<path d="M88.3181 56.201C88.0128 55.9192 87.7396 55.67 87.4941 55.4461C86.5315 54.5684 86.0483 54.1277 85.8102 53.7221C85.5719 53.3166 85.4255 52.6851 85.1333 51.4268C85.0587 51.1058 84.9759 50.7485 84.8802 50.3477C84.3385 48.0747 82.3814 46.4603 80.0103 46.3305C79.5922 46.3077 79.2197 46.2894 78.8852 46.2732C77.574 46.209 76.9159 46.1767 76.4681 46.0165C76.0205 45.8564 75.4952 45.465 74.4488 44.6857C74.1819 44.487 73.8848 44.2656 73.5496 44.019C71.6486 42.6201 69.0936 42.6201 67.1924 44.019C66.8574 44.2656 66.5602 44.4868 66.2933 44.6855C65.2467 45.465 64.7214 45.8562 64.2736 46.0165C64.0863 46.0836 63.8611 46.128 63.5674 46.162C58.7244 41.8881 52.9261 38.9413 46.6911 37.5222C53.435 34.3392 58.1023 27.5589 58.1023 19.7267C58.1025 8.84907 49.1003 -0.000488281 38.035 -0.000488281C26.9698 -0.000488281 17.9675 8.84907 17.9675 19.7267C17.9675 27.5592 22.6352 34.3399 29.3796 37.5227C23.0991 38.9535 17.2523 41.9331 12.3921 46.2538C5.40495 52.4654 1.00712 60.9357 0.00908743 70.1045C-0.0355812 70.514 0.0989784 70.9228 0.378988 71.2291C0.658998 71.5354 1.05825 71.7105 1.47725 71.7105L38.0324 71.7103C38.0332 71.7103 38.0341 71.7105 38.0348 71.7105C38.0356 71.7105 38.0365 71.7103 38.0372 71.7103H52.9115C53.4344 72.8994 54.4039 73.8812 55.6926 74.4239C56.0775 74.5859 56.4212 74.7284 56.7296 74.8561C56.8867 74.9211 57.033 74.9819 57.1706 75.0392L53.0559 83.7271C52.769 84.333 52.8478 85.0386 53.2613 85.5685C53.6746 86.0983 54.3468 86.3558 55.0165 86.2408L59.169 85.5276L61.2869 89.1104C61.6142 89.6642 62.2104 89.9995 62.8571 89.9995C62.8848 89.9995 62.9127 89.999 62.9406 89.9977C63.6191 89.9674 64.219 89.5726 64.5062 88.9667L68.5553 80.4169C69.4572 80.1463 69.9694 80.0101 70.3711 80.0101C70.7727 80.0101 71.2849 80.1463 72.187 80.4169L76.2359 88.9665C76.5226 89.5722 77.1223 89.9672 77.801 89.9977C77.8291 89.999 77.8571 89.9995 77.885 89.9995C78.5318 89.9995 79.1278 89.6642 79.4552 89.1104L81.5731 85.5276L85.7256 86.2409C86.3958 86.3558 87.0683 86.0979 87.4816 85.5676C87.8946 85.0374 87.9729 84.3317 87.6859 83.7267L83.5714 75.0392C83.7089 74.9819 83.8553 74.9213 84.0123 74.8561C84.3208 74.7284 84.6645 74.5859 85.0493 74.4239C87.2324 73.5049 88.5099 71.3298 88.228 69.0116C88.1783 68.6028 88.1318 68.2392 88.0903 67.9125C87.9269 66.6319 87.8448 65.9892 87.9277 65.5279C88.0106 65.0667 88.3111 64.4902 88.9102 63.3418C89.0629 63.0489 89.233 62.7229 89.4219 62.3556C90.4934 60.272 90.0498 57.7988 88.3181 56.201ZM51.3203 62.3556C51.5091 62.7229 51.6793 63.0489 51.8319 63.342C52.4311 64.4906 52.7317 65.0668 52.8144 65.5281C52.8971 65.9893 52.8152 66.632 52.6518 67.9127C52.6173 68.1835 52.5795 68.4812 52.5392 68.8073H41.3617L45.0866 64.7591C45.4022 64.416 45.5327 63.9453 45.4377 63.4922L43.5398 54.4472L43.909 54.8774C44.191 55.2062 44.6048 55.3931 45.0375 55.3931C45.0838 55.3931 45.1305 55.391 45.1772 55.3866C45.6593 55.3416 46.0885 55.0671 46.3255 54.6519L53.1074 42.7708C55.3338 43.8058 57.4543 45.0733 59.4335 46.5603C57.6689 47.0979 56.3008 48.5065 55.8619 50.3482C55.7663 50.7489 55.6834 51.1063 55.609 51.4272C55.317 52.6855 55.1704 53.3171 54.9321 53.7227C54.6938 54.1282 54.2108 54.569 53.2482 55.4467C53.0027 55.6704 52.7294 55.9197 52.4241 56.2015C50.6925 57.7986 50.2489 60.272 51.3203 62.3556ZM31.2773 51.4041L25.6943 41.6235C26.7292 41.2457 27.7871 40.9151 28.8645 40.6324L35.9138 45.9998L31.2773 51.4041ZM36.5216 49.7943L38.0348 48.0304L39.5479 49.7941L42.3937 63.3576L38.0347 68.0951L33.6756 63.3576L36.5216 49.7943ZM40.1562 45.9998L47.1978 40.6384C48.2713 40.9215 49.3294 41.2543 50.3687 41.6353L44.7925 51.4041L40.1562 45.9998ZM20.9208 19.7267C20.9208 10.45 28.5983 2.90273 38.035 2.90273C47.4717 2.90273 55.1492 10.45 55.1492 19.7267C55.1492 29.001 47.4758 36.5467 38.0424 36.5507C38.0398 36.5507 38.0374 36.5507 38.0348 36.5507C38.0324 36.5507 38.03 36.5507 38.0275 36.5507C28.5943 36.5465 20.9208 29.001 20.9208 19.7267ZM38.035 39.4539H38.0424C39.8502 39.4543 41.6406 39.5916 43.4019 39.8564L38.0348 43.9428L32.6635 39.8531C34.4143 39.5916 36.2053 39.4543 38.0275 39.4539C38.03 39.4537 38.0326 39.4539 38.035 39.4539ZM22.9544 42.7561L29.7446 54.6515C29.9816 55.0667 30.4105 55.3412 30.8928 55.3862C30.9395 55.3906 30.9861 55.3928 31.0326 55.3928C31.4652 55.3928 31.8792 55.2057 32.1611 54.8771L32.5301 54.447L30.6322 63.492C30.5372 63.9453 30.6675 64.4158 30.9833 64.7591L34.7081 68.8073L3.15841 68.8075C4.98355 57.1342 12.6103 47.545 22.9544 42.7561ZM62.7473 85.8022L61.2057 83.194C60.895 82.6685 60.2846 82.3893 59.6748 82.4934L56.6522 83.0126L59.6185 76.7494C59.8176 77.0345 60.0513 77.3901 60.3466 77.8396C60.5283 78.1159 60.7306 78.4238 60.9596 78.7684C61.8851 80.1594 63.3693 80.9917 64.9676 81.114L62.7473 85.8022ZM81.0675 82.4934C80.4584 82.3887 79.8473 82.6682 79.5366 83.194L77.995 85.802L75.7758 81.116C77.3737 80.9934 78.8576 80.1592 79.7827 78.7682C80.0117 78.4238 80.214 78.1159 80.3957 77.8396C80.691 77.3899 80.9247 77.0345 81.1238 76.7494L84.0901 83.0126L81.0675 82.4934ZM86.7862 61.0459C86.6002 61.4075 86.4328 61.7287 86.2823 62.017C84.8112 64.8371 84.759 65.1294 85.1601 68.2738C85.2011 68.5953 85.2468 68.9535 85.2957 69.356C85.4227 70.3995 84.8695 71.3412 83.8868 71.755C83.5077 71.9144 83.1694 72.0547 82.8655 72.1806C79.8949 73.4114 79.6634 73.6021 77.9147 76.2646C77.7359 76.5367 77.5369 76.8399 77.3111 77.1793C76.726 78.0587 75.6863 78.4307 74.6633 78.1266C74.2687 78.0094 73.9178 77.9029 73.6027 77.8073C72.0624 77.34 71.2168 77.1065 70.3712 77.1065C69.5257 77.1065 68.6799 77.3402 67.1398 77.8073C66.8247 77.9029 66.474 78.0092 66.0792 78.1266C65.0561 78.43 64.0165 78.0587 63.4314 77.1793C63.2056 76.8399 63.0066 76.5367 62.8278 76.2646C61.0789 73.6023 60.8476 73.4114 57.8769 72.1806C57.5731 72.0549 57.2348 71.9146 56.8557 71.755C55.873 71.3412 55.3199 70.3995 55.4468 69.356C55.4957 68.9535 55.5414 68.5953 55.5824 68.2738C55.9835 65.1294 55.9313 64.8371 54.46 62.017C54.3095 61.7287 54.1421 61.4075 53.9561 61.0459C53.4738 60.108 53.6659 59.037 54.4452 58.3179C54.7459 58.0405 55.015 57.795 55.2568 57.5745C57.6202 55.4194 57.7712 55.1623 58.4883 52.0724C58.5616 51.7565 58.6433 51.4047 58.7373 51.01C58.9811 49.9866 59.8285 49.2877 60.896 49.2294C61.3078 49.2067 61.6745 49.1889 62.0038 49.1728C65.2235 49.0151 65.5072 48.9135 68.0771 46.9996C68.3397 46.804 68.6323 46.586 68.9623 46.3431C69.8184 45.7132 70.9242 45.7134 71.7802 46.3431C72.1104 46.5858 72.4029 46.804 72.6658 46.9997C75.2353 48.9133 75.519 49.0149 78.7387 49.1726C79.068 49.1888 79.4347 49.2067 79.8465 49.2292C80.914 49.2875 81.7614 49.9864 82.0052 51.0098C82.0993 51.4045 82.1809 51.7565 82.2544 52.0724C82.9715 55.162 83.1225 55.4191 85.4859 57.5744C85.7277 57.7948 85.9968 58.0401 86.2973 58.3176C87.0766 59.037 87.2687 60.108 86.7862 61.0459ZM70.3711 51.1827C64.2749 51.1827 59.3152 56.0583 59.3152 62.0509C59.3152 68.0435 64.2749 72.9191 70.3711 72.9191C76.4672 72.9191 81.4269 68.0437 81.4269 62.0511C81.4269 56.0585 76.4674 51.1827 70.3711 51.1827ZM70.3711 70.0161C65.9033 70.0161 62.2685 66.443 62.2685 62.0511C62.2685 57.6593 65.9033 54.0861 70.3711 54.0861C74.8389 54.0861 78.4736 57.6593 78.4736 62.0511C78.4736 66.443 74.8389 70.0161 70.3711 70.0161Z" fill="url(#paint0_linear_0_522)"/>
<defs>
<linearGradient id="paint0_linear_0_522" x1="0.000671387" y1="-0.000488281" x2="90.0007" y2="-0.000488281" gradientUnits="userSpaceOnUse">
<stop stop-color="#7B66FF"/>
<stop offset="1" stop-color="#7B66FF"/>
</linearGradient>
</defs>
</svg>
