<svg width="40" height="40" viewBox="0 0 40 40" fill="none" xmlns="http://www.w3.org/2000/svg">
<path d="M3.93831 13.6915C3.82649 13.6915 3.71688 13.662 3.62175 13.6062C3.52663 13.5504 3.44976 13.4706 3.39975 13.3756C3.34974 13.2807 3.32857 13.1745 3.33861 13.0688C3.34866 12.9631 3.38951 12.8621 3.45661 12.7772C3.83467 12.3074 4.24416 11.8612 4.68255 11.4412C4.79614 11.3417 4.94576 11.2874 5.10039 11.2896C5.25502 11.2919 5.40281 11.3505 5.51313 11.4534C5.62344 11.5562 5.68783 11.6954 5.69294 11.8421C5.69805 11.9888 5.6435 12.1317 5.54059 12.2412C5.13891 12.6257 4.7638 13.0343 4.41761 13.4647C4.36158 13.535 4.28916 13.5921 4.206 13.6314C4.12285 13.6708 4.03123 13.6914 3.93831 13.6915Z" fill="#FDFDFD"/>
<path d="M16.397 37.937C12.2074 37.9362 8.17644 36.4164 5.12863 33.6883C2.08082 30.9603 0.24653 27.2302 0.000977406 23.2611C-0.00352976 23.186 0.00758178 23.1109 0.0336777 23.0399C0.0597735 22.9689 0.100343 22.9036 0.153069 22.8475C0.205795 22.7914 0.269645 22.7457 0.340975 22.713C0.412304 22.6804 0.489715 22.6613 0.568788 22.6571C0.647861 22.6528 0.727048 22.6633 0.801827 22.6881C0.876605 22.7129 0.945512 22.7514 1.00461 22.8014C1.06371 22.8514 1.11185 22.912 1.14627 22.9797C1.1807 23.0474 1.20073 23.1209 1.20524 23.1959C1.35284 25.5703 2.11582 27.8733 3.42645 29.9007C4.73708 31.928 6.55483 33.6169 8.71836 34.8176C10.8819 36.0182 13.3243 36.6934 15.8288 36.7832C18.3333 36.873 20.8224 36.3747 23.0753 35.3324C25.2339 34.3319 27.1122 32.8605 28.5565 31.0386C30.0007 29.2168 30.9699 27.0963 31.3846 24.8507C31.7994 22.6051 31.6479 20.2983 30.9426 18.1189C30.2374 15.9395 28.9983 13.9496 27.3269 12.312C24.9709 10.0026 21.8697 8.50608 18.5154 8.0598C15.161 7.61353 11.7457 8.24308 8.81137 9.84859C8.71996 9.89909 8.61608 9.92571 8.51031 9.92573C8.37217 9.927 8.23778 9.88316 8.12967 9.80156C8.02155 9.71996 7.94629 9.60556 7.9165 9.47755C7.88671 9.34954 7.90421 9.2157 7.96606 9.09848C8.02791 8.98126 8.13035 8.88779 8.25621 8.83373C10.4399 7.64855 12.8815 6.95549 15.3923 6.80806C17.9032 6.66063 20.4161 7.06278 22.7371 7.98346C25.0582 8.90414 27.1252 10.3187 28.7786 12.118C30.4321 13.9172 31.6277 16.053 32.2731 18.3604C32.9185 20.6679 32.9966 23.0852 32.5011 25.4258C32.0057 27.7664 30.9501 29.9676 29.4158 31.8595C27.8815 33.7514 25.9096 35.2834 23.6523 36.3372C21.395 37.3909 18.9127 37.9383 16.397 37.937Z" fill="#FDFDFD"/>
<path d="M1.15773 18.9199C1.10609 18.9201 1.05466 18.9138 1.00478 18.9011C0.928274 18.8821 0.856461 18.8489 0.793445 18.8036C0.73043 18.7582 0.677447 18.7015 0.637523 18.6368C0.5976 18.572 0.571517 18.5003 0.560766 18.426C0.550014 18.3516 0.554804 18.276 0.574862 18.2034C0.74541 17.5964 0.959259 17.0011 1.21493 16.4217C1.27593 16.2816 1.39309 16.1702 1.54062 16.1121C1.68815 16.0539 1.85398 16.0538 2.00161 16.1117C2.14925 16.1696 2.26661 16.2808 2.32787 16.4208C2.38913 16.5608 2.38927 16.7181 2.32827 16.8582C2.0932 17.3899 1.89665 17.9361 1.73999 18.4931C1.70631 18.6153 1.6309 18.7235 1.52555 18.8007C1.4202 18.878 1.29085 18.9199 1.15773 18.9199Z" fill="#FDFDFD"/>
<path d="M16.398 32.7472C14.2325 32.7475 12.1156 32.1383 10.3149 30.9967C8.51427 29.8551 7.11078 28.2324 6.28194 26.3338C5.45311 24.4353 5.23615 22.3461 5.65852 20.3305C6.08088 18.3149 7.1236 16.4634 8.65479 15.0102C10.186 13.557 12.1369 12.5674 14.2608 12.1665C16.3847 11.7655 18.5861 11.9713 20.5868 12.7578C22.5874 13.5442 24.2974 14.8761 25.5004 16.5848C26.7034 18.2936 27.3455 20.3025 27.3454 22.3576C27.3425 25.1122 26.1882 27.7531 24.1358 29.701C22.0834 31.6488 19.3006 32.7444 16.398 32.7472ZM16.398 13.1102C14.4707 13.11 12.5866 13.6522 10.984 14.6681C9.38144 15.6841 8.13231 17.1283 7.3946 18.818C6.65689 20.5077 6.46375 22.3671 6.8396 24.161C7.21545 25.9549 8.14341 27.6027 9.50612 28.8961C10.8688 30.1894 12.6051 31.0703 14.4953 31.4272C16.3856 31.7841 18.3449 31.601 20.1255 30.9012C21.9061 30.2013 23.428 29.016 24.4988 27.4953C25.5696 25.9745 26.1411 24.1866 26.1411 22.3576C26.1384 19.906 25.1111 17.5556 23.2845 15.822C21.4579 14.0883 18.9813 13.1131 16.398 13.1102Z" fill="#FDFDFD"/>
<path d="M16.3964 27.5557C15.3127 27.5557 14.2533 27.2507 13.3522 26.6793C12.4511 26.108 11.7488 25.2958 11.3341 24.3457C10.9194 23.3955 10.8109 22.35 11.0223 21.3413C11.2337 20.3326 11.7556 19.406 12.5219 18.6788C13.2882 17.9516 14.2645 17.4563 15.3274 17.2557C16.3903 17.055 17.492 17.158 18.4933 17.5516C19.4945 17.9452 20.3503 18.6117 20.9523 19.4668C21.5544 20.3219 21.8758 21.3273 21.8758 22.3557C21.8745 23.7345 21.2968 25.0564 20.2695 26.0313C19.2422 27.0062 17.8492 27.5545 16.3964 27.5557ZM16.3964 18.3015C15.5509 18.3015 14.7243 18.5394 14.0213 18.9852C13.3182 19.431 12.7703 20.0647 12.4467 20.806C12.1231 21.5473 12.0384 22.3631 12.2034 23.1501C12.3684 23.9371 12.7755 24.66 13.3734 25.2274C13.9713 25.7948 14.7331 26.1812 15.5624 26.3377C16.3917 26.4943 17.2512 26.4139 18.0324 26.1069C18.8136 25.7998 19.4813 25.2798 19.951 24.6126C20.4208 23.9454 20.6715 23.161 20.6715 22.3586C20.6706 21.2828 20.2199 20.2514 19.4183 19.4908C18.6168 18.7301 17.5299 18.3024 16.3964 18.3015Z" fill="#FDFDFD"/>
<path d="M17.1316 22.3575C17.012 22.3575 16.8951 22.3237 16.7959 22.2604C16.6966 22.1971 16.6195 22.1072 16.5742 22.0021C16.529 21.8971 16.5178 21.7816 16.542 21.6705C16.5662 21.5593 16.6247 21.4576 16.7101 21.3781L32.9929 6.2502C33.0491 6.19641 33.116 6.15377 33.1897 6.12473C33.2634 6.09569 33.3424 6.08085 33.4222 6.08106C33.502 6.08127 33.581 6.09652 33.6545 6.12595C33.7281 6.15537 33.7947 6.19837 33.8505 6.25244C33.9064 6.30652 33.9504 6.37059 33.9799 6.44094C34.0095 6.51128 34.024 6.5865 34.0226 6.66222C34.0213 6.73793 34.0041 6.81264 33.972 6.88199C33.94 6.95134 33.8937 7.01395 33.8359 7.06619L17.5531 22.1941C17.4405 22.2988 17.2892 22.3575 17.1316 22.3575Z" fill="#FDFDFD"/>
<path d="M35.8049 9.54289H35.7712L31.1486 9.29661C31.0028 9.28881 30.8649 9.23095 30.7606 9.13381C30.6564 9.03667 30.5929 8.90688 30.582 8.76861L30.2129 4.10979C30.2063 4.02726 30.2186 3.94436 30.2491 3.86681C30.2796 3.78926 30.3274 3.71892 30.3893 3.66065L34.0955 0.165812C34.1729 0.0929076 34.2697 0.0413266 34.3756 0.0165771C34.4815 -0.00817237 34.5925 -0.00516092 34.6967 0.02529C34.801 0.0557409 34.8945 0.112488 34.9674 0.18947C35.0403 0.266453 35.0898 0.360781 35.1107 0.462382L35.8934 4.29436L39.5213 5.00864C39.6276 5.02978 39.726 5.07784 39.8059 5.14774C39.8858 5.21763 39.9443 5.30675 39.9752 5.40564C40.0061 5.50453 40.0081 5.6095 39.9812 5.70942C39.9543 5.80935 39.8994 5.90049 39.8223 5.9732L36.23 9.37147C36.1745 9.42519 36.1084 9.46798 36.0355 9.4974C35.9625 9.52682 35.8842 9.54228 35.8049 9.54289ZM31.7435 8.18233L35.5707 8.38633L38.1845 5.91492L35.2588 5.33892C35.1426 5.316 35.0362 5.26104 34.9529 5.18093C34.8695 5.10082 34.813 4.99914 34.7903 4.88864L34.1412 1.73094L31.4316 4.28236L31.7435 8.18233Z" fill="#FDFDFD"/>
<path d="M26.0214 40C25.9251 40.0002 25.8301 39.9784 25.7445 39.9365C25.659 39.8947 25.5852 39.8339 25.5294 39.7594L22.8511 36.1766C22.8032 36.1156 22.7685 36.046 22.7493 35.9721C22.73 35.8982 22.7265 35.8213 22.739 35.7461C22.7515 35.6709 22.7797 35.5988 22.822 35.534C22.8642 35.4693 22.9197 35.4132 22.9851 35.3691C23.0505 35.325 23.1246 35.2938 23.2029 35.2772C23.2812 35.2607 23.3622 35.2591 23.4412 35.2727C23.5201 35.2863 23.5954 35.3147 23.6627 35.3563C23.7299 35.3979 23.7877 35.4518 23.8326 35.5149L26.1864 38.6623L28.7237 37.188L26.4278 33.8663C26.3843 33.8036 26.3543 33.7333 26.3394 33.6595C26.3245 33.5857 26.3251 33.5098 26.3412 33.4363C26.3572 33.3627 26.3883 33.2929 26.4328 33.2307C26.4772 33.1686 26.5342 33.1153 26.6003 33.074C26.6665 33.0328 26.7405 33.0043 26.8183 32.9902C26.896 32.9761 26.9759 32.9766 27.0535 32.9918C27.131 33.007 27.2046 33.0366 27.2701 33.0788C27.3356 33.121 27.3917 33.175 27.4352 33.2378L30.0713 37.052C30.1154 37.116 30.1455 37.1877 30.1599 37.2629C30.1743 37.3382 30.1726 37.4154 30.155 37.4899C30.1374 37.5645 30.1041 37.635 30.0573 37.6972C30.0104 37.7594 29.9509 37.812 29.8822 37.852L26.3351 39.9131C26.2409 39.969 26.1324 39.999 26.0214 40Z" fill="#FDFDFD"/>
<path d="M6.77358 39.9998C6.66265 39.9998 6.55388 39.9707 6.45926 39.9158L2.9121 37.8546C2.84343 37.8147 2.78391 37.762 2.73706 37.6998C2.69021 37.6376 2.65698 37.5672 2.63935 37.4926C2.62172 37.418 2.62004 37.3408 2.63442 37.2655C2.64879 37.1903 2.67893 37.1186 2.72303 37.0546L5.35977 33.2392C5.4476 33.1125 5.5849 33.024 5.74147 32.9933C5.89803 32.9626 6.06104 32.9922 6.19463 33.0755C6.32821 33.1589 6.42143 33.2892 6.45379 33.4377C6.48614 33.5863 6.45497 33.741 6.36714 33.8678L4.07121 37.1878L6.60859 38.662L8.96172 35.5146C9.00751 35.4534 9.06554 35.4014 9.13252 35.3615C9.19949 35.3216 9.2741 35.2946 9.35207 35.282C9.43004 35.2695 9.50985 35.2716 9.58695 35.2884C9.66404 35.3051 9.73691 35.336 9.8014 35.3795C9.86588 35.4229 9.92071 35.478 9.96277 35.5416C10.0048 35.6051 10.0333 35.6759 10.0465 35.7499C10.0597 35.8239 10.0575 35.8997 10.0398 35.9728C10.0222 36.046 9.98958 36.1152 9.9438 36.1763L7.26491 39.7592C7.20922 39.8336 7.13554 39.8943 7.05006 39.9361C6.96457 39.978 6.86977 39.9998 6.77358 39.9998Z" fill="#FDFDFD"/>
</svg>
