<svg width="38" height="40" viewBox="0 0 38 40" fill="none" xmlns="http://www.w3.org/2000/svg">
<path fill-rule="evenodd" clip-rule="evenodd" d="M24.9793 15.5755H22.8546V19.4325C22.8546 19.7278 22.6154 19.9677 22.3091 19.9677H18.567C18.299 21.4256 16.9783 22.5329 15.3991 22.5329C13.8104 22.5329 12.4897 21.4256 12.2313 19.9677H8.48914C8.18288 19.9677 7.93405 19.7278 7.93405 19.4325V15.5755H5.80937C5.51268 15.5755 5.26384 15.3356 5.26384 15.0404V9.89158C5.26384 9.59631 5.51268 9.3564 5.80937 9.3564H7.93405V5.49942C7.93405 5.20415 8.18288 4.96424 8.48914 4.96424H12.2313C12.4897 3.50634 13.8104 2.39908 15.3991 2.39908C16.9783 2.39908 18.299 3.50634 18.567 4.96424H22.3091C22.6154 4.96424 22.8546 5.20415 22.8546 5.49942V9.3564H24.9793C25.2856 9.3564 25.5344 9.59631 25.5344 9.89158V15.0404C25.5344 15.3356 25.2856 15.5755 24.9793 15.5755ZM31.6022 40H28.8746C28.597 40 28.3673 39.8062 28.329 39.5386L28.0228 37.3149C27.5634 37.1303 27.1423 36.8997 26.7499 36.6136L24.5965 37.4625C24.3477 37.564 24.051 37.4717 23.9074 37.2411L22.5484 34.9619C22.4144 34.7313 22.4718 34.436 22.6919 34.2699L24.5391 32.9043C24.5295 32.8489 24.5199 32.7935 24.5199 32.729H0.555096C0.248836 32.729 0 32.4983 0 32.203V0.525952C0 0.239908 0.248836 0 0.555096 0H30.2336C30.5399 0 30.7887 0.239908 30.7887 0.525952V24.3968C32.387 24.3968 32.0616 24.203 32.454 27.0819C32.9038 27.2664 33.3345 27.5063 33.7173 27.7924L35.8707 26.9343C36.1291 26.8328 36.4258 26.925 36.5598 27.1649L37.9284 29.4348C38.0624 29.6655 38.0049 29.9608 37.7848 30.1269L35.9377 31.4925C36.0047 31.9631 36.0047 32.4337 35.9377 32.9043L37.7848 34.2699C38.0049 34.436 38.0624 34.7313 37.9284 34.9619L36.5598 37.2411C36.4258 37.4717 36.1291 37.564 35.8707 37.4625L33.7173 36.6136C33.3345 36.8997 32.9038 37.1303 32.454 37.3149L32.1477 39.5386C32.1094 39.8062 31.8797 40 31.6022 40ZM24.5199 31.6678C24.5199 31.6125 24.5295 31.5571 24.5391 31.4925C24.185 31.2341 22.7398 30.2468 22.558 29.9885C22.4431 29.8316 22.4431 29.6101 22.5484 29.4348C22.7398 29.1119 23.9074 27.0081 24.1467 26.9527C24.2998 26.9158 24.4434 26.8697 24.5965 26.9343L26.7499 27.7924C27.1423 27.5063 27.5634 27.2664 28.0228 27.0819C28.4152 24.203 28.0898 24.3968 29.6881 24.3968V1.06113H1.11019V31.6678H24.5199ZM29.3531 38.9389H31.1141L31.4012 36.8627C31.4778 36.3091 32.2913 36.4014 33.2675 35.5986C33.4206 35.4602 33.6503 35.4325 33.8417 35.5063L35.8516 36.2999L36.732 34.8328C34.2437 32.9873 34.8849 33.7809 34.8849 32.203C34.8849 30.6251 34.2437 31.4095 36.732 29.564L35.8516 28.0969L33.8417 28.8997C33.3058 29.1119 32.9708 28.3829 31.7745 27.9769C31.5735 27.9031 31.4299 27.737 31.4012 27.5433L31.1141 25.4671H29.3531L29.066 27.5433C28.9894 28.0877 28.1855 27.9954 27.2093 28.8074C27.0466 28.9366 26.8265 28.9735 26.635 28.8997L24.6252 28.0969L23.7447 29.564C26.2331 31.4095 25.5918 30.6251 25.5918 32.203C25.5918 33.7809 26.2331 32.9873 23.7447 34.8328L24.6252 36.2999L26.635 35.5063C27.171 35.2941 27.4964 36.0231 28.7023 36.4291C28.9033 36.4937 29.0468 36.6597 29.066 36.8627L29.3531 38.9389ZM30.2336 35.2018C28.5205 35.2018 27.1327 33.8547 27.1327 32.203C27.1327 30.5513 28.5205 29.2042 30.2336 29.2042C31.9563 29.2042 33.344 30.5513 33.344 32.203C33.344 33.8547 31.9563 35.2018 30.2336 35.2018ZM30.2336 30.2653C29.133 30.2653 28.2333 31.1326 28.2333 32.203C28.2333 33.2641 29.133 34.1315 30.2336 34.1315C31.3438 34.1315 32.2434 33.2641 32.2434 32.203C32.2434 31.1326 31.3438 30.2653 30.2336 30.2653ZM26.6733 25.1349H4.11537C3.40714 25.1349 3.40714 24.0646 4.11537 24.0646H26.6733C27.3815 24.0646 27.3815 25.1349 26.6733 25.1349ZM21.9741 27.7278H4.11537C3.40714 27.7278 3.40714 26.6667 4.11537 26.6667H21.9741C22.6824 26.6667 22.6824 27.7278 21.9741 27.7278ZM19.9165 30.3299H4.11537C3.40714 30.3299 3.40714 29.2687 4.11537 29.2687H19.9165C20.6343 29.2687 20.6343 30.3299 19.9165 30.3299ZM12.2313 6.0346H9.03467V9.3564H11.1593C11.4656 9.3564 11.7144 9.59631 11.7144 9.89158V15.0404C11.7144 15.3356 11.4656 15.5755 11.1593 15.5755H9.03467V18.8973H12.2313C12.4897 17.4487 13.8104 16.3322 15.3991 16.3322C16.9783 16.3322 18.299 17.4487 18.567 18.9066H21.754V15.5755H19.6293C19.3327 15.5755 19.0838 15.3356 19.0838 15.0404V9.89158C19.0838 9.59631 19.3327 9.3564 19.6293 9.3564H21.754V6.0346H18.567C18.299 7.48328 16.9783 8.59977 15.3991 8.59977C13.8104 8.59977 12.4897 7.48328 12.2313 6.0346ZM15.3991 3.46021C14.2315 3.46021 13.284 4.3737 13.284 5.49942C13.284 6.61592 14.2315 7.52941 15.3991 7.52941C16.5572 7.52941 17.5047 6.61592 17.5047 5.49942C17.5047 4.3737 16.5572 3.46021 15.3991 3.46021ZM17.5047 19.4325C17.5047 18.316 16.5572 17.4025 15.3991 17.4025C14.2315 17.4025 13.284 18.316 13.284 19.4325C13.284 20.5582 14.2315 21.4717 15.3991 21.4717C16.5572 21.4717 17.5047 20.5582 17.5047 19.4325ZM22.3091 10.4175H20.1844V14.5144H24.4242V10.4175H22.3091ZM6.36446 14.5144H10.6042V10.4175H6.36446V14.5144Z" fill="#FDFDFD"/>
</svg>
