<svg width="57" height="57" viewBox="0 0 57 57" fill="none" xmlns="http://www.w3.org/2000/svg">
<path d="M56.7245 10.7255L46.2729 0.2755C46.0917 0.100514 45.8502 0.00187557 45.5983 0H21.8448C21.0895 0.00225539 20.3658 0.303247 19.8317 0.837237C19.2976 1.37123 18.9966 2.09483 18.9943 2.85V8.5975C13.8764 8.83735 9.04754 11.039 5.51049 14.7451C1.97343 18.4513 0 23.3772 0 28.5C0 33.6228 1.97343 38.5487 5.51049 42.2549C9.04754 45.961 13.8764 48.1627 18.9943 48.4025V54.15C18.9966 54.9052 19.2976 55.6288 19.8317 56.1628C20.3658 56.6968 21.0895 56.9977 21.8448 57H54.1496C54.9049 56.9977 55.6286 56.6968 56.1626 56.1628C56.6967 55.6288 56.9977 54.9052 57 54.15V11.4C56.9981 11.1481 56.8995 10.9066 56.7245 10.7255ZM46.5484 3.2395L53.76 10.45H47.4986C47.2466 10.45 47.0049 10.3499 46.8267 10.1718C46.6485 9.99359 46.5484 9.75196 46.5484 9.5V3.2395ZM1.89178 28.5C1.89797 23.8795 3.67399 19.4368 6.85486 16.085C10.0357 12.7333 14.3798 10.727 18.9943 10.4785V28.1105L6.54747 40.5555C3.55121 37.2551 1.89148 32.9573 1.89178 28.5ZM7.88717 41.895L20.334 29.45H37.9687C37.7956 32.8541 36.6602 36.1392 34.6944 38.9238C32.7286 41.7085 30.013 43.8784 26.8631 45.1816C23.7131 46.4847 20.258 46.8677 16.8991 46.2859C13.5402 45.7042 10.4152 44.1816 7.88717 41.895ZM55.0997 54.15C55.0997 54.402 54.9996 54.6436 54.8214 54.8218C54.6432 54.9999 54.4016 55.1 54.1496 55.1H21.8448C21.5928 55.1 21.3511 54.9999 21.1729 54.8218C20.9947 54.6436 20.8946 54.402 20.8946 54.15V48.4025C26.0108 48.1554 30.8362 45.9518 34.3731 42.2474C37.91 38.5431 39.8878 33.6213 39.8974 28.5C39.8974 28.248 39.7973 28.0064 39.6192 27.8282C39.441 27.6501 39.1993 27.55 38.9473 27.55H20.8946V2.85C20.8946 2.59804 20.9947 2.35641 21.1729 2.17825C21.3511 2.00009 21.5928 1.9 21.8448 1.9H44.6482V9.5C44.6504 10.2552 44.9515 10.9788 45.4855 11.5128C46.0196 12.0468 46.7433 12.3477 47.4986 12.35H55.0997V54.15Z" fill="#FDFDFD"/>
<path d="M23.7438 4.75012C23.4918 4.75012 23.2501 4.85021 23.0719 5.02837C22.8937 5.20653 22.7936 5.44817 22.7936 5.70012V24.7001C22.7936 24.9521 22.8937 25.1937 23.0719 25.3719C23.2501 25.55 23.4918 25.6501 23.7438 25.6501H42.7466C42.9986 25.6501 43.2403 25.55 43.4185 25.3719C43.5967 25.1937 43.6968 24.9521 43.6968 24.7001C43.691 19.4108 41.5869 14.3398 37.8463 10.5997C34.1056 6.85963 29.0339 4.75591 23.7438 4.75012ZM24.6939 23.7501V6.67862C29.1447 6.91757 33.35 8.79287 36.5017 11.9441C39.6534 15.0953 41.529 19.3 41.768 23.7501H24.6939Z" fill="#FDFDFD"/>
<path d="M44.6486 36.1001C42.9573 36.1001 41.304 36.6015 39.8978 37.541C38.4915 38.4805 37.3955 39.8158 36.7483 41.3782C36.1011 42.9405 35.9317 44.6596 36.2617 46.3181C36.5916 47.9767 37.406 49.5001 38.602 50.6959C39.7979 51.8916 41.3216 52.7059 42.9804 53.0358C44.6391 53.3657 46.3585 53.1964 47.9211 52.5493C49.4836 51.9021 50.8191 50.8063 51.7588 49.4002C52.6984 47.9942 53.1999 46.3411 53.1999 44.6501C53.1964 42.3836 52.2943 40.2109 50.6914 38.6082C49.0885 37.0055 46.9155 36.1036 44.6486 36.1001ZM44.6486 51.3001C43.3332 51.3001 42.0473 50.9101 40.9535 50.1794C39.8598 49.4487 39.0073 48.4101 38.5039 47.1949C38.0005 45.9798 37.8688 44.6427 38.1254 43.3527C38.3821 42.0628 39.0155 40.8779 39.9457 39.9478C40.8758 39.0178 42.0609 38.3845 43.3511 38.1279C44.6413 37.8713 45.9785 38.003 47.1939 38.5063C48.4092 39.0096 49.4479 39.862 50.1787 40.9556C50.9095 42.0491 51.2996 43.3349 51.2996 44.6501C51.2976 46.4132 50.5962 48.1035 49.3494 49.3501C48.1025 50.5968 46.412 51.2981 44.6486 51.3001Z" fill="#FDFDFD"/>
<path d="M42.7478 46.1569L40.5691 43.9785L39.2256 45.3218L42.0761 48.1718C42.2543 48.3499 42.4959 48.45 42.7478 48.45C42.9998 48.45 43.2414 48.3499 43.4196 48.1718L49.1204 42.4718L47.7769 41.1285L42.7478 46.1569Z" fill="#FDFDFD"/>
<path d="M45.5984 16.1498H53.1995V18.0498H45.5984V16.1498Z" fill="#FDFDFD"/>
<path d="M45.5984 21.8501H53.1995V23.7501H45.5984V21.8501Z" fill="#FDFDFD"/>
<path d="M45.5984 27.5497H53.1995V29.4497H45.5984V27.5497Z" fill="#FDFDFD"/>
</svg>
