<svg xmlns="http://www.w3.org/2000/svg" width="62" height="62" viewBox="0 0 62 62" fill="none"><path d="M57.2501 55.1936V21.5349C57.2501 19.8143 55.8989 18.4194 54.232 18.4194H7.76811C6.10127 18.4194 4.75 19.8143 4.75 21.5349V55.1936" stroke="url(#paint0_linear_14_8041)" stroke-width="2" stroke-miterlimit="10" stroke-linecap="round" stroke-linejoin="round"></path><path d="M9.37235 55.1934H1.90543C1.40539 55.1934 1 55.6118 1 56.128V57.8844C1 59.605 2.35127 60.9998 4.01811 60.9998H57.9819C59.6487 60.9998 61 59.605 61 57.8844V56.128C61 55.6118 60.5946 55.1934 60.0946 55.1934H38.5L37.509 56.2164C36.943 56.8006 36.1753 57.1288 35.3748 57.1288H26.6251C25.8247 57.1288 25.057 56.8006 24.4909 56.2164L23.4999 55.1934H13.5976" stroke="url(#paint1_linear_14_8041)" stroke-width="2" stroke-miterlimit="10" stroke-linecap="round" stroke-linejoin="round"></path><path d="M53.5 22.29H8.5V51.3223H53.5V22.29Z" stroke="url(#paint2_linear_14_8041)" stroke-width="2" stroke-miterlimit="10" stroke-linecap="round" stroke-linejoin="round"></path><path d="M23.5 47.4515C24.5355 47.4515 25.3749 46.5849 25.3749 45.516V28.0966C25.3749 27.0276 24.5354 26.1611 23.5 26.1611C22.4645 26.1611 21.625 27.0277 21.625 28.0966V45.5159C21.625 46.5849 22.4644 47.4515 23.5 47.4515Z" stroke="url(#paint3_linear_14_8041)" stroke-width="2" stroke-miterlimit="10" stroke-linecap="round" stroke-linejoin="round"></path><path d="M37.5624 32.4445V30.032H40.3749C41.4105 30.032 42.2499 29.1654 42.2499 28.0966C42.2499 27.0277 41.4104 26.1611 40.3749 26.1611H31C29.9644 26.1611 29.125 27.0277 29.125 28.0966C29.125 29.1654 29.9645 30.032 31 30.032H33.8125V45.5159C33.8125 46.5849 34.652 47.4513 35.6875 47.4513C36.7229 47.4513 37.5624 46.5848 37.5624 45.5159V36.8062" stroke="url(#paint4_linear_14_8041)" stroke-width="2" stroke-miterlimit="10" stroke-linecap="round" stroke-linejoin="round"></path><path d="M41.6064 7.47067L45.6462 3.30055C45.8726 3.0669 46.1797 2.93555 46.4999 2.93555H49.7498" stroke="url(#paint5_linear_14_8041)" stroke-width="2" stroke-miterlimit="10" stroke-linecap="round" stroke-linejoin="round"></path><path d="M51.625 4.8709C52.6605 4.8709 53.4999 4.00437 53.4999 2.93545C53.4999 1.86653 52.6605 1 51.625 1C50.5895 1 49.75 1.86653 49.75 2.93545C49.75 4.00437 50.5895 4.8709 51.625 4.8709Z" stroke="url(#paint6_linear_14_8041)" stroke-width="2" stroke-miterlimit="10" stroke-linecap="round" stroke-linejoin="round"></path><path d="M53.5 14.5482C54.5355 14.5482 55.3749 13.6816 55.3749 12.6127C55.3749 11.5438 54.5355 10.6772 53.5 10.6772C52.4645 10.6772 51.625 11.5438 51.625 12.6127C51.625 13.6816 52.4645 14.5482 53.5 14.5482Z" stroke="url(#paint7_linear_14_8041)" stroke-width="2" stroke-miterlimit="10" stroke-linecap="round" stroke-linejoin="round"></path><path d="M20.3933 7.47067L16.3535 3.30055C16.1272 3.0669 15.8201 2.93555 15.4999 2.93555H12.25" stroke="url(#paint8_linear_14_8041)" stroke-width="2" stroke-miterlimit="10" stroke-linecap="round" stroke-linejoin="round"></path><path d="M10.375 4.8709C11.4105 4.8709 12.2499 4.00437 12.2499 2.93545C12.2499 1.86653 11.4105 1 10.375 1C9.33945 1 8.5 1.86653 8.5 2.93545C8.5 4.00437 9.33945 4.8709 10.375 4.8709Z" stroke="url(#paint9_linear_14_8041)" stroke-width="2" stroke-miterlimit="10" stroke-linecap="round" stroke-linejoin="round"></path><path d="M51.6248 12.6128H42.3809" stroke="url(#paint10_linear_14_8041)" stroke-width="2" stroke-miterlimit="10" stroke-linecap="round" stroke-linejoin="round"></path><path d="M8.49997 14.5482C9.53549 14.5482 10.3749 13.6816 10.3749 12.6127C10.3749 11.5438 9.53549 10.6772 8.49997 10.6772C7.46445 10.6772 6.625 11.5438 6.625 12.6127C6.625 13.6816 7.46445 14.5482 8.49997 14.5482Z" stroke="url(#paint11_linear_14_8041)" stroke-width="2" stroke-miterlimit="10" stroke-linecap="round" stroke-linejoin="round"></path><path d="M10.375 12.6128H19.619" stroke="url(#paint12_linear_14_8041)" stroke-width="2" stroke-miterlimit="10" stroke-linecap="round" stroke-linejoin="round"></path><path d="M46 18.4194V16.6149C46 16.2609 45.8062 15.9373 45.4995 15.779L43.4702 14.7316C43.259 14.6225 43.0963 14.433 43.0204 14.2021C42.8423 13.661 42.6309 13.1358 42.3888 12.6293C42.2841 12.4103 42.269 12.1573 42.3437 11.9258L43.0614 9.70308C43.1699 9.36724 43.0852 8.99687 42.8427 8.74664L40.3705 6.1947C40.128 5.94434 39.7693 5.85698 39.4439 5.96889L37.2907 6.70975C37.0664 6.78701 36.8213 6.77131 36.6092 6.66326C36.1184 6.41328 35.6096 6.19507 35.0856 6.01126C34.862 5.93287 34.6782 5.76501 34.5726 5.54693L33.5579 3.45222C33.4046 3.13556 33.0911 2.93555 32.7481 2.93555H29.2519C28.9089 2.93555 28.5954 3.13556 28.4421 3.45222L27.4274 5.54693C27.3218 5.76501 27.1381 5.93287 26.9144 6.01126C26.3903 6.19507 25.8815 6.41328 25.3908 6.66326C25.1787 6.77131 24.9336 6.78689 24.7093 6.70975L22.5561 5.96889C22.2307 5.85698 21.872 5.94434 21.6295 6.1947L19.1573 8.74664C18.9148 8.997 18.8301 9.36724 18.9386 9.70308L19.6563 11.9258C19.7311 12.1573 19.7159 12.4103 19.6112 12.6293C19.3691 13.136 19.1577 13.6611 18.9796 14.2021C18.9037 14.4329 18.741 14.6225 18.5298 14.7316L16.5005 15.779C16.1938 15.9374 16 16.2609 16 16.6149V18.4194" stroke="url(#paint13_linear_14_8041)" stroke-width="2" stroke-miterlimit="10" stroke-linecap="round" stroke-linejoin="round"></path><path d="M30.5098 12.6345C30.6712 12.6201 30.8344 12.6128 30.9994 12.6128C34.106 12.6128 36.6245 15.2125 36.6245 18.4193" stroke="url(#paint14_linear_14_8041)" stroke-width="2" stroke-miterlimit="10" stroke-linecap="round" stroke-linejoin="round"></path><path d="M25.375 18.4193C25.375 17.0064 25.8639 15.7114 26.6765 14.7046" stroke="url(#paint15_linear_14_8041)" stroke-width="2" stroke-miterlimit="10" stroke-linecap="round" stroke-linejoin="round"></path><defs><linearGradient id="paint0_linear_14_8041" x1="4.75" y1="18.4194" x2="57.2501" y2="18.4194" gradientUnits="userSpaceOnUse"><stop stop-color="#FF7369"></stop><stop offset="1" stop-color="#FFB06D"></stop></linearGradient><linearGradient id="paint1_linear_14_8041" x1="1" y1="55.1934" x2="61" y2="55.1934" gradientUnits="userSpaceOnUse"><stop stop-color="#FF7369"></stop><stop offset="1" stop-color="#FFB06D"></stop></linearGradient><linearGradient id="paint2_linear_14_8041" x1="8.5" y1="22.29" x2="53.5" y2="22.29" gradientUnits="userSpaceOnUse"><stop stop-color="#FF7369"></stop><stop offset="1" stop-color="#FFB06D"></stop></linearGradient><linearGradient id="paint3_linear_14_8041" x1="21.625" y1="26.1611" x2="25.3749" y2="26.1611" gradientUnits="userSpaceOnUse"><stop stop-color="#FF7369"></stop><stop offset="1" stop-color="#FFB06D"></stop></linearGradient><linearGradient id="paint4_linear_14_8041" x1="29.125" y1="26.1611" x2="42.2499" y2="26.1611" gradientUnits="userSpaceOnUse"><stop stop-color="#FF7369"></stop><stop offset="1" stop-color="#FFB06D"></stop></linearGradient><linearGradient id="paint5_linear_14_8041" x1="41.6064" y1="2.93555" x2="49.7498" y2="2.93555" gradientUnits="userSpaceOnUse"><stop stop-color="#FF7369"></stop><stop offset="1" stop-color="#FFB06D"></stop></linearGradient><linearGradient id="paint6_linear_14_8041" x1="49.75" y1="1" x2="53.4999" y2="1" gradientUnits="userSpaceOnUse"><stop stop-color="#FF7369"></stop><stop offset="1" stop-color="#FFB06D"></stop></linearGradient><linearGradient id="paint7_linear_14_8041" x1="51.625" y1="10.6772" x2="55.3749" y2="10.6772" gradientUnits="userSpaceOnUse"><stop stop-color="#FF7369"></stop><stop offset="1" stop-color="#FFB06D"></stop></linearGradient><linearGradient id="paint8_linear_14_8041" x1="12.25" y1="2.93555" x2="20.3933" y2="2.93555" gradientUnits="userSpaceOnUse"><stop stop-color="#FF7369"></stop><stop offset="1" stop-color="#FFB06D"></stop></linearGradient><linearGradient id="paint9_linear_14_8041" x1="8.5" y1="1" x2="12.2499" y2="1" gradientUnits="userSpaceOnUse"><stop stop-color="#FF7369"></stop><stop offset="1" stop-color="#FFB06D"></stop></linearGradient><linearGradient id="paint10_linear_14_8041" x1="42.3809" y1="12.6128" x2="51.6248" y2="12.6128" gradientUnits="userSpaceOnUse"><stop stop-color="#FF7369"></stop><stop offset="1" stop-color="#FFB06D"></stop></linearGradient><linearGradient id="paint11_linear_14_8041" x1="6.625" y1="10.6772" x2="10.3749" y2="10.6772" gradientUnits="userSpaceOnUse"><stop stop-color="#FF7369"></stop><stop offset="1" stop-color="#FFB06D"></stop></linearGradient><linearGradient id="paint12_linear_14_8041" x1="10.375" y1="12.6128" x2="19.619" y2="12.6128" gradientUnits="userSpaceOnUse"><stop stop-color="#FF7369"></stop><stop offset="1" stop-color="#FFB06D"></stop></linearGradient><linearGradient id="paint13_linear_14_8041" x1="16" y1="2.93555" x2="46" y2="2.93555" gradientUnits="userSpaceOnUse"><stop stop-color="#FF7369"></stop><stop offset="1" stop-color="#FFB06D"></stop></linearGradient><linearGradient id="paint14_linear_14_8041" x1="30.5098" y1="12.6128" x2="36.6245" y2="12.6128" gradientUnits="userSpaceOnUse"><stop stop-color="#FF7369"></stop><stop offset="1" stop-color="#FFB06D"></stop></linearGradient><linearGradient id="paint15_linear_14_8041" x1="25.375" y1="14.7046" x2="26.6765" y2="14.7046" gradientUnits="userSpaceOnUse"><stop stop-color="#FF7369"></stop><stop offset="1" stop-color="#FFB06D"></stop></linearGradient></defs></svg>