<svg xmlns="http://www.w3.org/2000/svg" width="60" height="60" viewBox="0 0 60 60" fill="none"><path d="M43.0005 3.99996C43.0005 0.842992 34.8279 0 29.9995 0C25.1711 0 16.9985 0.842992 16.9985 3.99996V8.99991H7.99784C6.93689 8.99991 5.9194 9.42133 5.16919 10.1715C4.41899 10.9216 3.99753 11.939 3.99753 12.9999V25.9997C3.40053 25.9959 2.81003 26.1237 2.2681 26.3742C1.72618 26.6246 1.24617 26.9915 0.862296 27.4487C0.512489 27.8668 0.259382 28.357 0.121075 28.8842C-0.017233 29.4115 -0.0373248 29.9628 0.0622358 30.4987L5.00861 56.8514C5.19615 57.7528 5.69237 58.5604 6.41169 59.1351C7.13101 59.7098 8.02833 60.0154 8.94891 59.9994H51.0521C51.9727 60.0154 52.87 59.7098 53.5893 59.1351C54.3086 58.5604 54.8048 57.7528 54.9924 56.8514L59.9378 30.4997C60.0373 29.9638 60.0172 29.4125 59.8789 28.8852C59.7406 28.358 59.4875 27.8678 59.1377 27.4497C58.7538 26.9922 58.2737 26.6251 57.7316 26.3744C57.1895 26.1238 56.5987 25.9958 56.0015 25.9997V19.9998C56.0015 18.9389 55.58 17.9215 54.8298 17.1714C54.0796 16.4213 53.0621 15.9998 52.0012 15.9998H43.0005V3.99996ZM18.9987 25.9997V22.2998C21.7279 23.5998 26.6612 23.9998 29.9995 23.9998C33.3377 23.9998 38.2711 23.5998 41.0003 22.2998V25.9997H18.9987ZM41.0003 19.9458C40.6003 20.6918 36.626 21.9998 29.9995 21.9998C23.324 21.9998 19.3407 20.6718 18.9987 19.9998V14.2999C21.7279 15.5998 26.6612 15.9998 29.9995 15.9998C33.3377 15.9998 38.2711 15.5998 41.0003 14.2999V19.9458ZM29.9995 13.9999C23.324 13.9999 19.3407 12.6719 18.9987 11.9999V6.29994C21.7279 7.59992 26.6612 7.99992 29.9995 7.99992C33.3377 7.99992 38.2711 7.59992 41.0003 6.29994V11.9419C40.6003 12.6919 36.626 13.9999 29.9995 13.9999ZM29.9995 1.99998C36.466 1.99998 40.4063 3.24597 40.9693 3.99996C40.4063 4.75395 36.469 5.99994 29.9995 5.99994C23.53 5.99994 19.5927 4.75395 19.0297 3.99996C19.5927 3.24597 23.533 1.99998 29.9995 1.99998ZM7.99784 10.9999H16.9985V25.9997H5.99768V12.9999C5.99768 12.4694 6.20841 11.9607 6.58351 11.5857C6.95862 11.2106 7.46736 10.9999 7.99784 10.9999ZM57.9726 30.1297L53.0252 56.4814C52.9235 56.9244 52.6708 57.3182 52.3104 57.5952C51.95 57.8722 51.5044 58.0151 51.0501 57.9994H8.94891C8.49461 58.0151 8.04902 57.8722 7.68861 57.5952C7.3282 57.3182 7.07546 56.9244 6.97376 56.4814L2.02638 30.1297C1.98078 29.8831 1.99087 29.6294 2.05593 29.3872C2.12099 29.1449 2.23937 28.9203 2.40241 28.7297C2.59813 28.4981 2.8426 28.3126 3.11834 28.1864C3.39408 28.0602 3.6943 27.9964 3.99753 27.9997H56.0015C56.3053 27.9953 56.6063 28.0582 56.883 28.1839C57.1596 28.3096 57.405 28.495 57.6016 28.7267C57.7642 28.9181 57.8819 29.1434 57.9461 29.3862C58.0103 29.6289 58.0194 29.883 57.9726 30.1297ZM52.0012 17.9998C52.5316 17.9998 53.0404 18.2105 53.4155 18.5856C53.7906 18.9607 54.0013 19.4694 54.0013 19.9998V25.9997H43.0005V17.9998H52.0012Z" fill="url(#paint0_linear_14_7975)"></path><path d="M25.1126 9.73382C24.4295 9.65482 23.7795 9.56182 23.1754 9.45182C22.9143 9.40488 22.6452 9.46358 22.4274 9.61502C22.2095 9.76645 22.0608 9.99821 22.0138 10.2593C21.9669 10.5204 22.0256 10.7895 22.177 11.0073C22.3285 11.2251 22.5603 11.3739 22.8214 11.4208C23.4654 11.5358 24.1555 11.6378 24.8846 11.7208C24.9227 11.7256 24.9611 11.7279 24.9996 11.7278C25.2556 11.7287 25.5023 11.6314 25.6888 11.4559C25.8752 11.2804 25.9872 11.04 26.0017 10.7844C26.0162 10.5288 25.9321 10.2773 25.7666 10.0818C25.6012 9.88637 25.3671 9.76181 25.1126 9.73382Z" fill="url(#paint1_linear_14_7975)"></path><path d="M30.9785 9.98899C30.3324 10.003 29.6664 10.003 29.0203 9.98899C28.7551 9.98342 28.4985 10.0834 28.307 10.267C28.1155 10.4506 28.0048 10.7028 27.9992 10.968C27.9937 11.2332 28.0937 11.4898 28.2773 11.6812C28.4609 11.8727 28.7131 11.9834 28.9783 11.989C29.315 11.9963 29.6554 12 29.9994 12C30.3434 12 30.6838 11.9963 31.0205 11.989C31.2856 11.9835 31.5376 11.8729 31.7212 11.6816C31.9048 11.4904 32.0049 11.234 31.9995 10.969C31.9897 10.7051 31.8777 10.4554 31.6872 10.2726C31.4967 10.0897 31.2425 9.98803 30.9785 9.98899Z" fill="url(#paint2_linear_14_7975)"></path><path d="M36.8231 9.45182C36.223 9.56182 35.569 9.65182 34.8859 9.73382C34.6313 9.76181 34.3971 9.88644 34.2316 10.082C34.0662 10.2776 33.9821 10.5292 33.9967 10.7849C34.0114 11.0406 34.1236 11.281 34.3102 11.4564C34.4969 11.6319 34.7437 11.729 34.9999 11.7278C35.0384 11.7279 35.0768 11.7256 35.1149 11.7208C35.844 11.6378 36.534 11.5358 37.1781 11.4208C37.4392 11.3739 37.671 11.2251 37.8224 11.0073C37.9739 10.7895 38.0326 10.5204 37.9856 10.2593C37.9387 9.99821 37.7899 9.76645 37.5721 9.61502C37.3543 9.46358 37.0842 9.40488 36.8231 9.45182Z" fill="url(#paint3_linear_14_7975)"></path><path d="M25.1126 17.7338C24.4295 17.6548 23.7795 17.5618 23.1754 17.4518C22.9143 17.4049 22.6452 17.4636 22.4274 17.615C22.2095 17.7665 22.0608 17.9982 22.0138 18.2593C21.9669 18.5204 22.0256 18.7895 22.177 19.0073C22.3285 19.2251 22.5603 19.3739 22.8214 19.4208C23.4654 19.5358 24.1555 19.6378 24.8846 19.7208C24.9227 19.7256 24.9611 19.7279 24.9996 19.7278C25.2556 19.7287 25.5023 19.6314 25.6888 19.4559C25.8752 19.2804 25.9872 19.04 26.0017 18.7844C26.0162 18.5288 25.9321 18.2773 25.7666 18.0818C25.6012 17.8864 25.3671 17.7618 25.1126 17.7338Z" fill="url(#paint4_linear_14_7975)"></path><path d="M27.9992 18.9689C27.9939 19.2339 28.094 19.4903 28.2776 19.6815C28.4612 19.8728 28.7132 19.9834 28.9783 19.9889C29.315 19.9962 29.6554 19.9999 29.9994 19.9999C30.3434 19.9999 30.6838 19.9962 31.0205 19.9889C31.2855 19.9834 31.5376 19.8728 31.7212 19.6815C31.9048 19.4903 32.0049 19.2339 31.9995 18.9689C31.9877 18.7057 31.8751 18.4571 31.685 18.2747C31.4949 18.0922 31.2419 17.9899 30.9785 17.9889C30.3324 18.0029 29.6664 18.0029 29.0203 17.9889C28.7553 17.9848 28.4995 18.0855 28.3083 18.269C28.1171 18.4525 28.006 18.704 27.9992 18.9689Z" fill="url(#paint5_linear_14_7975)"></path><path d="M34.9999 19.7278C35.0383 19.7279 35.0767 19.7256 35.1149 19.7208C35.8439 19.6378 36.534 19.5358 37.178 19.4208C37.3073 19.3976 37.4308 19.3491 37.5413 19.2781C37.6519 19.2072 37.7474 19.1151 37.8224 19.0073C37.8974 18.8994 37.9504 18.7779 37.9784 18.6495C38.0064 18.5212 38.0088 18.3886 37.9856 18.2593C37.9623 18.13 37.9138 18.0066 37.8429 17.896C37.7719 17.7855 37.6799 17.69 37.572 17.615C37.4642 17.54 37.3426 17.487 37.2142 17.459C37.0859 17.431 36.9533 17.4286 36.824 17.4518C36.2239 17.5618 35.5699 17.6518 34.8868 17.7338C34.6323 17.7618 34.3982 17.8864 34.2328 18.0818C34.0673 18.2773 33.9832 18.5287 33.9977 18.7844C34.0122 19.04 34.1242 19.2804 34.3106 19.4559C34.4971 19.6314 34.7438 19.7287 34.9999 19.7278Z" fill="url(#paint6_linear_14_7975)"></path><path d="M29.9998 30.9996C27.1126 30.9911 24.3379 32.1186 22.2752 34.1386C20.2124 36.1586 19.0271 38.9089 18.9754 41.7954C18.9237 44.6819 20.0096 47.4729 21.9986 49.5655C23.9876 51.6581 26.7201 52.8843 29.6057 52.9793L28.2926 54.2923C28.1971 54.3846 28.1209 54.4949 28.0685 54.6169C28.0161 54.7389 27.9885 54.8701 27.9873 55.0029C27.9862 55.1357 28.0115 55.2674 28.0618 55.3903C28.1121 55.5132 28.1863 55.6248 28.2802 55.7187C28.3741 55.8126 28.4858 55.8869 28.6087 55.9371C28.7316 55.9874 28.8633 56.0127 28.9961 56.0116C29.1289 56.0104 29.2601 55.9828 29.3821 55.9304C29.5041 55.878 29.6145 55.8018 29.7067 55.7063L32.707 52.7063C32.8944 52.5188 32.9998 52.2645 32.9998 51.9993C32.9998 51.7342 32.8944 51.4799 32.707 51.2924L29.7067 48.2924C29.5181 48.1102 29.2655 48.0094 29.0033 48.0117C28.7411 48.014 28.4902 48.1192 28.3048 48.3046C28.1194 48.49 28.0142 48.7408 28.0119 49.003C28.0096 49.2652 28.1104 49.5178 28.2926 49.7064L29.5637 50.9774C27.5614 50.8765 25.6504 50.1089 24.1347 48.7968C22.6191 47.4846 21.5858 45.7032 21.1995 43.7362C20.8131 41.7691 21.0958 39.7293 22.0026 37.9414C22.9094 36.1535 24.3881 34.7203 26.2035 33.8697C28.0189 33.0191 30.0667 32.8001 32.021 33.2475C33.9752 33.6949 35.7237 34.783 36.9881 36.3387C38.2525 37.8944 38.9603 39.8282 38.9987 41.8325C39.0372 43.8368 38.4041 45.7964 37.2003 47.3994C37.0412 47.6116 36.9728 47.8783 37.0103 48.1408C37.0478 48.4034 37.1881 48.6403 37.4003 48.7994C37.6125 48.9585 37.8792 49.0268 38.1418 48.9893C38.4044 48.9518 38.6413 48.8116 38.8004 48.5994C40.0262 46.9651 40.7727 45.0219 40.9561 42.9873C41.1396 40.9527 40.7528 38.9073 39.8392 37.0801C38.9255 35.253 37.5211 33.7164 35.7832 32.6424C34.0454 31.5684 32.0427 30.9996 29.9998 30.9996Z" fill="url(#paint7_linear_14_7975)"></path><defs><linearGradient id="paint0_linear_14_7975" x1="0" y1="60" x2="60" y2="60" gradientUnits="userSpaceOnUse"><stop stop-color="#40CCFC"></stop><stop offset="1" stop-color="#1AECF5"></stop></linearGradient><linearGradient id="paint1_linear_14_7975" x1="21.998" y1="11.7278" x2="26.0033" y2="11.7278" gradientUnits="userSpaceOnUse"><stop stop-color="#40CCFC"></stop><stop offset="1" stop-color="#1AECF5"></stop></linearGradient><linearGradient id="paint2_linear_14_7975" x1="27.999" y1="12" x2="31.9998" y2="12" gradientUnits="userSpaceOnUse"><stop stop-color="#40CCFC"></stop><stop offset="1" stop-color="#1AECF5"></stop></linearGradient><linearGradient id="paint3_linear_14_7975" x1="33.9951" y1="11.7278" x2="38.0014" y2="11.7278" gradientUnits="userSpaceOnUse"><stop stop-color="#40CCFC"></stop><stop offset="1" stop-color="#1AECF5"></stop></linearGradient><linearGradient id="paint4_linear_14_7975" x1="21.998" y1="19.7278" x2="26.0033" y2="19.7278" gradientUnits="userSpaceOnUse"><stop stop-color="#40CCFC"></stop><stop offset="1" stop-color="#1AECF5"></stop></linearGradient><linearGradient id="paint5_linear_14_7975" x1="27.999" y1="19.9999" x2="31.9997" y2="19.9999" gradientUnits="userSpaceOnUse"><stop stop-color="#40CCFC"></stop><stop offset="1" stop-color="#1AECF5"></stop></linearGradient><linearGradient id="paint6_linear_14_7975" x1="33.9961" y1="19.7278" x2="38.0014" y2="19.7278" gradientUnits="userSpaceOnUse"><stop stop-color="#40CCFC"></stop><stop offset="1" stop-color="#1AECF5"></stop></linearGradient><linearGradient id="paint7_linear_14_7975" x1="18.9736" y1="56.0116" x2="41.0006" y2="56.0116" gradientUnits="userSpaceOnUse"><stop stop-color="#40CCFC"></stop><stop offset="1" stop-color="#1AECF5"></stop></linearGradient></defs></svg>