<svg xmlns="http://www.w3.org/2000/svg" width="60" height="60" viewBox="0 0 60 60" fill="none"><path d="M25.0024 39.9998H34.9974C36.6534 39.9998 37.9959 38.6566 37.9959 36.9998V27.9999C37.9959 26.3431 36.6534 24.9999 34.9974 24.9999V23C34.9974 20.2386 32.76 18 29.9999 18C27.2399 18 25.0024 20.2386 25.0024 23V24.9999C23.3464 24.9999 22.0039 26.3431 22.0039 27.9999V36.9998C22.0039 38.6566 23.3464 39.9998 25.0024 39.9998ZM27.0014 23C27.0014 21.3431 28.3439 20 29.9999 20C31.6559 20 32.9984 21.3431 32.9984 23V24.9999H27.0014V23ZM24.0029 27.9999C24.0029 27.4476 24.4504 26.9999 25.0024 26.9999H34.9974C35.5494 26.9999 35.9969 27.4476 35.9969 27.9999V36.9998C35.9969 37.5521 35.5494 37.9998 34.9974 37.9998H25.0024C24.4504 37.9998 24.0029 37.5521 24.0029 36.9998V27.9999Z" fill="url(#paint0_linear_14_7994)"></path><path d="M29.0003 34.8157V34.9997C29.0003 35.5519 29.4478 35.9997 29.9998 35.9997C30.5518 35.9997 30.9993 35.5519 30.9993 34.9997V34.8157C32.3761 34.3286 33.202 32.92 32.9551 31.48C32.7081 30.0399 31.4601 28.9873 29.9998 28.9873C28.5394 28.9873 27.2914 30.0399 27.0444 31.48C26.7975 32.92 27.6234 34.3286 29.0003 34.8157ZM29.9998 30.9997C30.5518 30.9997 30.9993 31.4474 30.9993 31.9997C30.9993 32.552 30.5518 32.9997 29.9998 32.9997C29.4478 32.9997 29.0003 32.552 29.0003 31.9997C29.0003 31.4474 29.4478 30.9997 29.9998 30.9997Z" fill="url(#paint1_linear_14_7994)"></path><path d="M13.0078 29.9998C13.0078 39.3886 20.6152 46.9997 29.9993 46.9997C39.3835 46.9997 46.9908 39.3886 46.9908 29.9998C46.9908 20.6111 39.3835 13 29.9993 13C20.6195 13.0105 13.0183 20.6154 13.0078 29.9998ZM29.9993 15C38.2795 15 44.9918 21.7156 44.9918 29.9998C44.9918 38.284 38.2795 44.9997 29.9993 44.9997C21.7192 44.9997 15.0068 38.284 15.0068 29.9998C15.0162 21.7195 21.7231 15.0093 29.9993 15Z" fill="url(#paint2_linear_14_7994)"></path><path d="M49.9896 51.9999C48.1721 52.0067 46.5879 53.2392 46.1335 54.9999H38.9951V48.9549C41.2298 47.9025 43.2602 46.4618 44.9921 44.7C45.2481 44.446 45.3476 44.0739 45.2526 43.726C45.1575 43.3781 44.8825 43.1084 44.533 43.0202C44.1834 42.9319 43.8135 43.0388 43.5648 43.3C41.8678 45.0358 39.8533 46.4294 37.6308 47.4049C37.4965 47.4582 37.3757 47.5405 37.277 47.6459C37.266 47.6579 37.26 47.6739 37.249 47.6879C37.1759 47.7693 37.1168 47.8622 37.0741 47.9629C37.0545 48.0257 37.0414 48.0904 37.0351 48.1559C37.0165 48.2125 37.0035 48.2708 36.9961 48.3299V48.3479V54.9999C36.9961 56.1044 37.8911 56.9998 38.9951 56.9998H46.1335C46.6565 59.0074 48.629 60.2799 50.6725 59.9279C52.7161 59.576 54.1499 57.7169 53.9718 55.65C53.7937 53.583 52.0632 51.9968 49.9896 51.9999ZM49.9896 57.9998C48.8856 57.9998 47.9906 57.1044 47.9906 55.9998C47.9906 54.8953 48.8856 53.9999 49.9896 53.9999C51.0936 53.9999 51.9886 54.8953 51.9886 55.9998C51.9886 57.1044 51.0936 57.9998 49.9896 57.9998Z" fill="url(#paint3_linear_14_7994)"></path><path d="M7.86905 40.9999H12.6986C12.7066 40.9999 12.7136 40.9949 12.7226 40.9949C12.8221 40.9904 12.9202 40.9705 13.0135 40.9359C13.0601 40.9206 13.1055 40.9018 13.1494 40.8799C13.1604 40.8739 13.1734 40.8719 13.1844 40.8649C13.1954 40.8579 13.2124 40.8369 13.2284 40.8259C13.319 40.7699 13.3995 40.6989 13.4663 40.6159C13.4781 40.6004 13.4891 40.5844 13.4992 40.5679C13.5639 40.4768 13.6126 40.3753 13.6432 40.2679C13.6432 40.2529 13.6492 40.2379 13.6522 40.2229C13.6763 40.1506 13.6918 40.0758 13.6981 39.9999C13.693 39.9621 13.6853 39.9246 13.6752 39.8879C13.6752 39.8749 13.6752 39.8629 13.6682 39.8489C13.6512 39.7316 13.6129 39.6184 13.5552 39.5149L13.5502 39.4989C12.5253 37.7289 11.7955 35.8037 11.3893 33.7989C11.2789 33.2577 10.7509 32.9085 10.2099 33.0189C9.66892 33.1294 9.31987 33.6577 9.43027 34.1989C9.76656 35.8579 10.3036 37.4698 11.0295 38.9989H7.86905C7.36574 37.0486 5.49145 35.777 3.49424 36.0308C1.49702 36.2846 0 37.9846 0 39.9989C0 42.0131 1.49702 43.7131 3.49424 43.9669C5.49145 44.2207 7.36574 42.9501 7.86905 40.9999ZM4.01298 41.9998C2.90896 41.9998 2.01398 41.1044 2.01398 39.9999C2.01398 38.8953 2.90896 37.9999 4.01298 37.9999C5.117 37.9999 6.01198 38.8953 6.01198 39.9999C6.01198 41.1044 5.117 41.9998 4.01298 41.9998Z" fill="url(#paint4_linear_14_7994)"></path><path d="M0.0156281 19.9999C0.0131277 22.0117 1.50725 23.711 3.50193 23.9649C5.49661 24.2189 7.36851 22.9482 7.86971 20.9999H12.6993H12.7263C12.8249 20.9943 12.9222 20.9744 13.0151 20.9409C13.0591 20.9269 13.1018 20.9095 13.1431 20.8889C13.1964 20.8608 13.2466 20.8273 13.293 20.7889C13.3773 20.7253 13.4503 20.6479 13.5089 20.5599C13.5219 20.5409 13.5389 20.5269 13.5509 20.5069C14.8325 18.2818 16.5524 16.3403 18.6063 14.8C18.892 14.5856 19.0417 14.2351 18.999 13.8804C18.9563 13.5257 18.7277 13.2207 18.3993 13.0804C18.0709 12.9401 17.6926 12.9856 17.4069 13.2C15.3035 14.7852 13.5176 16.7529 12.1426 18.9999H7.86971C7.36851 17.0517 5.49661 15.781 3.50193 16.0349C1.50725 16.2889 0.0131277 17.9882 0.0156281 19.9999ZM6.01264 19.9999C6.01264 21.1045 5.11765 21.9999 4.01363 21.9999C2.90962 21.9999 2.01463 21.1045 2.01463 19.9999C2.01463 18.8954 2.90962 18 4.01363 18C4.5438 18 5.05226 18.2107 5.42714 18.5857C5.80203 18.9608 6.01264 19.4695 6.01264 19.9999Z" fill="url(#paint5_linear_14_7994)"></path><path d="M55.9869 35.9999C54.1694 36.0067 52.5852 37.2392 52.1308 38.9999H48.9694C49.696 37.471 50.233 35.8591 50.5686 34.1999C50.679 33.6584 50.3298 33.1299 49.7885 33.0194C49.2473 32.909 48.719 33.2584 48.6086 33.7999C48.2032 35.8046 47.474 37.7298 46.4497 39.4998V39.5128C46.39 39.6186 46.3506 39.7346 46.3337 39.8548C46.3337 39.8658 46.3337 39.8758 46.3267 39.8868C46.3164 39.924 46.3081 39.9618 46.3018 39.9998C46.3078 40.0784 46.3232 40.156 46.3477 40.2308C46.3477 40.2438 46.3477 40.2568 46.3557 40.2698C46.3868 40.3777 46.4365 40.4792 46.5027 40.5698C46.5127 40.5848 46.5206 40.5998 46.5316 40.6138C46.5994 40.6973 46.6804 40.7689 46.7715 40.8258C46.7875 40.8368 46.7975 40.8538 46.8145 40.8638C46.8315 40.8738 46.8385 40.8728 46.8495 40.8788C46.8939 40.9015 46.94 40.9206 46.9874 40.9358C47.0803 40.9693 47.1776 40.9889 47.2763 40.9938C47.2853 40.9938 47.2923 40.9988 47.3013 40.9988H52.1308C52.6533 43.0067 54.6258 44.2797 56.6695 43.928C58.7133 43.5764 60.1474 41.7173 59.9694 39.6501C59.7914 37.583 58.0607 35.9967 55.9869 35.9999ZM55.9869 41.9998C54.8829 41.9998 53.9879 41.1044 53.9879 39.9998C53.9879 38.8953 54.8829 37.9999 55.9869 37.9999C57.0909 37.9999 57.9859 38.8953 57.9859 39.9998C57.9859 41.1044 57.0909 41.9998 55.9869 41.9998Z" fill="url(#paint6_linear_14_7994)"></path><path d="M23.0036 48.3469V48.3299C22.9972 48.2738 22.9862 48.2182 22.9706 48.1639C22.9635 48.0961 22.9498 48.0291 22.9296 47.9639C22.8875 47.8648 22.8295 47.7732 22.7577 47.6929C22.7447 47.6779 22.7387 47.6599 22.7257 47.6459C22.6265 47.5405 22.5054 47.4582 22.3709 47.4049C19.7546 46.2496 17.4301 44.5227 15.5683 42.351C15.3393 42.0689 14.9754 41.9333 14.6177 41.9969C14.2601 42.0604 13.9651 42.313 13.8471 42.6567C13.7292 43.0004 13.8069 43.381 14.05 43.651C15.9722 45.8894 18.3411 47.7009 21.0046 48.9689V54.9999H13.8661C13.3628 53.0496 11.4885 51.778 9.49131 52.0318C7.49409 52.2856 5.99707 53.9856 5.99707 55.9998C5.99707 58.0141 7.49409 59.7141 9.49131 59.9679C11.4885 60.2217 13.3628 58.9501 13.8661 56.9998H21.0046C22.1086 56.9998 23.0036 56.1044 23.0036 54.9999V48.3469ZM10.01 57.9998C8.90603 57.9998 8.01105 57.1044 8.01105 55.9998C8.01105 54.8953 8.90603 53.9999 10.01 53.9999C11.1141 53.9999 12.0091 54.8953 12.0091 55.9998C12.0091 57.1044 11.1141 57.9998 10.01 57.9998Z" fill="url(#paint7_linear_14_7994)"></path><path d="M33.7977 48.6201C31.2907 49.1238 28.7086 49.1238 26.2015 48.6201C25.8479 48.5389 25.478 48.6559 25.2353 48.9256C24.9925 49.1954 24.9149 49.5756 25.0325 49.919C25.1502 50.2624 25.4446 50.515 25.8017 50.579C26.8568 50.7842 27.9261 50.9082 29.0001 50.95V59C29.0001 59.5522 29.4476 60 29.9996 60C30.5516 60 30.9991 59.5522 30.9991 59V50.95C32.0732 50.9083 33.1424 50.7842 34.1975 50.579C34.7264 50.4577 35.0619 49.9362 34.9533 49.4043C34.8448 48.8724 34.3318 48.5243 33.7977 48.6201Z" fill="url(#paint8_linear_14_7994)"></path><path d="M21.0046 3.00027H13.8661C13.3628 1.04998 11.4885 -0.221627 9.49131 0.0321769C7.49409 0.285981 5.99707 1.98601 5.99707 4.00026C5.99707 6.0145 7.49409 7.71453 9.49131 7.96834C11.4885 8.22214 13.3628 6.95053 13.8661 5.00025H21.0046V11.6722C21.0046 11.7122 21.0235 11.7512 21.0285 11.7912C21.039 11.8947 21.0657 11.9959 21.1075 12.0912C21.149 12.1803 21.2044 12.2623 21.2714 12.3342C21.3049 12.3705 21.3414 12.4039 21.3804 12.4342C21.4293 12.4743 21.4818 12.5097 21.5373 12.5402C21.5835 12.5658 21.6316 12.5879 21.6812 12.6062C21.7527 12.6289 21.8264 12.6436 21.9011 12.6502C21.934 12.6592 21.9674 12.6662 22.0011 12.6712C22.1443 12.6682 22.2851 12.634 22.4139 12.5712C23.6314 12.043 24.9011 11.6441 26.202 11.3812C26.7432 11.2707 27.0925 10.7422 26.9821 10.2007C26.8717 9.65918 26.3434 9.30975 25.8022 9.4202C24.8523 9.61466 23.9171 9.87529 23.0036 10.2002V5.00025C23.0036 3.89569 22.1086 3.00027 21.0046 3.00027ZM10.01 6.00024C8.90603 6.00024 8.01105 5.10481 8.01105 4.00026C8.01105 2.8957 8.90603 2.00028 10.01 2.00028C11.1141 2.00028 12.0091 2.8957 12.0091 4.00026C12.0091 4.53068 11.7984 5.03939 11.4236 5.41446C11.0487 5.78952 10.5402 6.00024 10.01 6.00024Z" fill="url(#paint9_linear_14_7994)"></path><path d="M46.1335 5.00025C46.6368 6.95053 48.5111 8.22214 50.5083 7.96834C52.5056 7.71453 54.0026 6.0145 54.0026 4.00026C54.0026 1.98601 52.5056 0.285981 50.5083 0.0321769C48.5111 -0.221627 46.6368 1.04998 46.1335 3.00027H38.9951C37.8911 3.00027 36.9961 3.89569 36.9961 5.00025V11.6512V11.6692C37.0022 11.7282 37.0139 11.7864 37.0311 11.8432C37.0374 11.9087 37.0505 11.9734 37.0701 12.0362C37.1128 12.1369 37.1719 12.2298 37.245 12.3112C37.256 12.3242 37.262 12.3412 37.273 12.3532C37.3717 12.4586 37.4926 12.5409 37.6268 12.5942C39.8488 13.5682 41.8633 14.9601 43.5608 16.6941C43.8059 16.9666 44.1804 17.0831 44.5368 16.9976C44.8931 16.9122 45.1741 16.6385 45.2691 16.2844C45.3641 15.9303 45.2578 15.5526 44.9921 15.3001C43.2602 13.5383 41.2298 12.0976 38.9951 11.0452V5.00025H46.1335ZM49.9896 2.00028C51.0936 2.00028 51.9886 2.8957 51.9886 4.00026C51.9886 5.10482 51.0936 6.00024 49.9896 6.00024C48.8856 6.00024 47.9906 5.10482 47.9906 4.00026C47.9906 2.8957 48.8856 2.00028 49.9896 2.00028Z" fill="url(#paint10_linear_14_7994)"></path><path d="M29.9995 0C29.4475 0 29 0.447711 29 0.99999V9.9999C29 10.5522 29.4475 10.9999 29.9995 10.9999C31.275 10.9996 32.5474 11.1269 33.7976 11.3799C33.8634 11.3934 33.9304 11.4001 33.9975 11.3999C34.5091 11.3979 34.9367 11.0097 34.9881 10.5005C35.0396 9.99117 34.6983 9.52524 34.1974 9.42091C33.1423 9.21573 32.073 9.0917 30.999 9.04991V0.99999C30.999 0.447711 30.5515 0 29.9995 0Z" fill="url(#paint11_linear_14_7994)"></path><path d="M52.1308 21.0002C52.6342 22.9505 54.5084 24.2221 56.5057 23.9683C58.5029 23.7145 59.9999 22.0145 59.9999 20.0003C59.9999 17.986 58.5029 16.286 56.5057 16.0322C54.5084 15.7784 52.6342 17.05 52.1308 19.0003H47.3013C47.2823 19.0003 47.2673 19.0103 47.2493 19.0103C47.1913 19.0165 47.1341 19.0282 47.0784 19.0453C46.9963 19.0615 46.9166 19.0884 46.8415 19.1253C46.8335 19.1253 46.8235 19.1253 46.8145 19.1353C46.8055 19.1453 46.7885 19.1623 46.7715 19.1733C46.6804 19.2302 46.5994 19.3018 46.5316 19.3853C46.5206 19.3993 46.5127 19.4143 46.5027 19.4293C46.4365 19.5199 46.3868 19.6214 46.3557 19.7293C46.3557 19.7423 46.3557 19.7553 46.3477 19.7683C46.3232 19.8435 46.3077 19.9214 46.3018 20.0003C46.3071 20.0386 46.3144 20.0767 46.3237 20.1143C46.3237 20.1253 46.3287 20.1353 46.3307 20.1463C46.3476 20.2665 46.387 20.3825 46.4467 20.4883V20.5013C48.1136 23.3891 48.991 26.6653 48.9904 30.0002C48.9904 30.5524 49.4379 31.0001 49.9899 31.0001H58.9854C59.5374 31.0001 59.9849 30.5524 59.9849 30.0002C59.9849 29.4479 59.5374 29.0002 58.9854 29.0002H50.9564C50.8254 26.2275 50.1459 23.5084 48.9574 21.0002H52.1308ZM55.9869 18.0003C57.0909 18.0003 57.9859 18.8957 57.9859 20.0003C57.9859 21.1048 57.0909 22.0002 55.9869 22.0002C54.8829 22.0002 53.9879 21.1048 53.9879 20.0003C53.9879 18.8957 54.8829 18.0003 55.9869 18.0003Z" fill="url(#paint12_linear_14_7994)"></path><path d="M1.01513 30.9998H10.0106C10.5626 30.9998 11.0101 30.5521 11.0101 29.9998C11.008 27.9793 11.3282 25.9714 11.9587 24.0518C12.0703 23.7124 11.9924 23.3393 11.7544 23.0729C11.5164 22.8065 11.1544 22.6874 10.8049 22.7604C10.4553 22.8334 10.1712 23.0875 10.0596 23.4269C9.47244 25.2302 9.13283 27.105 9.05011 28.9998H1.01513C0.463117 28.9998 0.015625 29.4475 0.015625 29.9998C0.015625 30.5521 0.463117 30.9998 1.01513 30.9998Z" fill="url(#paint13_linear_14_7994)"></path><defs><linearGradient id="paint0_linear_14_7994" x1="22.0039" y1="28.9999" x2="37.9959" y2="28.9999" gradientUnits="userSpaceOnUse"><stop stop-color="#9255CE"></stop><stop offset="1" stop-color="#BE60FF"></stop></linearGradient><linearGradient id="paint1_linear_14_7994" x1="27.001" y1="32.4935" x2="32.9985" y2="32.4935" gradientUnits="userSpaceOnUse"><stop stop-color="#9255CE"></stop><stop offset="1" stop-color="#BE60FF"></stop></linearGradient><linearGradient id="paint2_linear_14_7994" x1="13.0078" y1="29.9998" x2="46.9908" y2="29.9998" gradientUnits="userSpaceOnUse"><stop stop-color="#9255CE"></stop><stop offset="1" stop-color="#BE60FF"></stop></linearGradient><linearGradient id="paint3_linear_14_7994" x1="36.9961" y1="51.488" x2="53.9867" y2="51.488" gradientUnits="userSpaceOnUse"><stop stop-color="#9255CE"></stop><stop offset="1" stop-color="#BE60FF"></stop></linearGradient><linearGradient id="paint4_linear_14_7994" x1="0" y1="38.4988" x2="13.6981" y2="38.4988" gradientUnits="userSpaceOnUse"><stop stop-color="#9255CE"></stop><stop offset="1" stop-color="#BE60FF"></stop></linearGradient><linearGradient id="paint5_linear_14_7994" x1="0.015625" y1="18.4986" x2="19.0062" y2="18.4986" gradientUnits="userSpaceOnUse"><stop stop-color="#9255CE"></stop><stop offset="1" stop-color="#BE60FF"></stop></linearGradient><linearGradient id="paint6_linear_14_7994" x1="46.3018" y1="38.4927" x2="59.9843" y2="38.4927" gradientUnits="userSpaceOnUse"><stop stop-color="#9255CE"></stop><stop offset="1" stop-color="#BE60FF"></stop></linearGradient><linearGradient id="paint7_linear_14_7994" x1="5.99707" y1="50.9908" x2="23.0036" y2="50.9908" gradientUnits="userSpaceOnUse"><stop stop-color="#9255CE"></stop><stop offset="1" stop-color="#BE60FF"></stop></linearGradient><linearGradient id="paint8_linear_14_7994" x1="24.9785" y1="54.2973" x2="34.9737" y2="54.2973" gradientUnits="userSpaceOnUse"><stop stop-color="#9255CE"></stop><stop offset="1" stop-color="#BE60FF"></stop></linearGradient><linearGradient id="paint9_linear_14_7994" x1="5.99707" y1="6.33558" x2="27.0024" y2="6.33558" gradientUnits="userSpaceOnUse"><stop stop-color="#9255CE"></stop><stop offset="1" stop-color="#BE60FF"></stop></linearGradient><linearGradient id="paint10_linear_14_7994" x1="36.9961" y1="8.51261" x2="54.0026" y2="8.51261" gradientUnits="userSpaceOnUse"><stop stop-color="#9255CE"></stop><stop offset="1" stop-color="#BE60FF"></stop></linearGradient><linearGradient id="paint11_linear_14_7994" x1="29" y1="5.69995" x2="34.9932" y2="5.69995" gradientUnits="userSpaceOnUse"><stop stop-color="#9255CE"></stop><stop offset="1" stop-color="#BE60FF"></stop></linearGradient><linearGradient id="paint12_linear_14_7994" x1="46.3018" y1="23.5001" x2="59.9999" y2="23.5001" gradientUnits="userSpaceOnUse"><stop stop-color="#9255CE"></stop><stop offset="1" stop-color="#BE60FF"></stop></linearGradient><linearGradient id="paint13_linear_14_7994" x1="0.015625" y1="26.8695" x2="12.0087" y2="26.8695" gradientUnits="userSpaceOnUse"><stop stop-color="#9255CE"></stop><stop offset="1" stop-color="#BE60FF"></stop></linearGradient></defs></svg>