<svg width="57" height="57" viewBox="0 0 57 57" fill="none" xmlns="http://www.w3.org/2000/svg">
<path d="M5.61194 19.5105C5.4526 19.5105 5.2964 19.4684 5.16085 19.3889C5.0253 19.3094 4.91575 19.1956 4.84449 19.0604C4.77323 18.9251 4.74306 18.7737 4.75737 18.6231C4.77168 18.4725 4.82991 18.3286 4.92551 18.2076C5.46425 17.5382 6.04778 16.9023 6.67248 16.3038C6.83435 16.1619 7.04756 16.0846 7.2679 16.0878C7.48825 16.091 7.69885 16.1745 7.85605 16.3211C8.01325 16.4677 8.105 16.666 8.11229 16.875C8.11957 17.0841 8.04184 17.2877 7.89518 17.4438C7.32279 17.9917 6.78827 18.574 6.29494 19.1872C6.2151 19.2874 6.11189 19.3688 5.9934 19.4249C5.87491 19.481 5.74435 19.5103 5.61194 19.5105Z" fill="#FDFDFD"/>
<path d="M23.3658 54.0603C17.3956 54.0593 11.6514 51.8935 7.30829 48.006C2.96517 44.1185 0.351306 38.8032 0.0013928 33.1472C-0.00502991 33.0403 0.010804 32.9332 0.0479907 32.832C0.0851773 32.7309 0.142988 32.6377 0.218123 32.5578C0.293258 32.4779 0.384245 32.4128 0.485889 32.3662C0.587533 32.3197 0.697844 32.2926 0.810523 32.2865C0.923202 32.2804 1.03604 32.2954 1.1426 32.3307C1.24916 32.366 1.34735 32.4209 1.43157 32.4922C1.51579 32.5635 1.58438 32.6498 1.63344 32.7463C1.68249 32.8427 1.71105 32.9474 1.71747 33.0544C1.9278 36.4378 3.01504 39.7196 4.88269 42.6086C6.75034 45.4976 9.34063 47.9043 12.4237 49.6152C15.5067 51.3261 18.9871 52.2882 22.556 52.4162C26.125 52.5442 29.672 51.8341 32.8823 50.3489C35.9583 48.9231 38.6349 46.8263 40.693 44.2302C42.751 41.6341 44.1321 38.6124 44.7231 35.4125C45.3141 32.2125 45.0982 28.9252 44.0932 25.8196C43.0882 22.714 41.3226 19.8783 38.9409 17.5448C35.5835 14.2539 31.1643 12.1213 26.3844 11.4854C21.6045 10.8494 16.7377 11.7466 12.5562 14.0344C12.4259 14.1064 12.2779 14.1443 12.1272 14.1443C11.9303 14.1461 11.7388 14.0837 11.5848 13.9674C11.4307 13.8511 11.3235 13.6881 11.281 13.5057C11.2386 13.3233 11.2635 13.1325 11.3516 12.9655C11.4398 12.7985 11.5858 12.6653 11.7651 12.5882C14.8769 10.8993 18.3561 9.91173 21.9341 9.70165C25.512 9.49156 29.093 10.0646 32.4004 11.3766C35.7079 12.6886 38.6534 14.7043 41.0096 17.2683C43.3657 19.8322 45.0694 22.8757 45.9892 26.1638C46.9089 29.4519 47.0201 32.8966 46.3141 36.2319C45.6082 39.5673 44.1039 42.704 41.9175 45.4C39.7312 48.096 36.9212 50.279 33.7045 51.7806C30.4878 53.2823 26.9506 54.0622 23.3658 54.0603Z" fill="#FDFDFD"/>
<path d="M1.64965 26.9609C1.57607 26.9611 1.50278 26.9521 1.43171 26.934C1.32268 26.9069 1.22035 26.8597 1.13055 26.7951C1.04075 26.7304 0.965252 26.6497 0.908361 26.5573C0.85147 26.465 0.814302 26.3629 0.798981 26.257C0.78366 26.151 0.790486 26.0432 0.819068 25.9398C1.0621 25.0748 1.36683 24.2266 1.73116 23.4008C1.81809 23.2012 1.98504 23.0425 2.19527 22.9596C2.4055 22.8768 2.6418 22.8766 2.85219 22.9591C3.06257 23.0416 3.22981 23.2 3.3171 23.3995C3.4044 23.5991 3.40461 23.8233 3.31768 24.023C2.9827 24.7805 2.70262 25.5589 2.47937 26.3526C2.43138 26.5268 2.32392 26.6809 2.17379 26.791C2.02367 26.9011 1.83935 26.9608 1.64965 26.9609Z" fill="#FDFDFD"/>
<path d="M23.3671 46.6648C20.2813 46.6651 17.2646 45.797 14.6987 44.1702C12.1328 42.5435 10.1328 40.2312 8.9517 37.5257C7.7706 34.8202 7.46144 31.8431 8.06331 28.9709C8.66519 26.0987 10.1511 23.4603 12.333 21.3895C14.515 19.3187 17.295 17.9085 20.3215 17.3372C23.3481 16.7658 26.4852 17.0591 29.3361 18.1798C32.187 19.3005 34.6237 21.1983 36.338 23.6333C38.0523 26.0683 38.9673 28.9311 38.9671 31.8595C38.963 35.7848 37.3181 39.5482 34.3935 42.3238C31.4688 45.0995 27.5033 46.6607 23.3671 46.6648ZM23.3671 18.682C20.6207 18.6817 17.9359 19.4543 15.6522 20.902C13.3685 22.3498 11.5885 24.4077 10.5372 26.8156C9.486 29.2234 9.21077 31.873 9.74635 34.4293C10.2819 36.9856 11.6043 39.3338 13.5462 41.1768C15.488 43.0199 17.9622 44.2751 20.6558 44.7837C23.3494 45.2923 26.1414 45.0314 28.6788 44.0341C31.2162 43.0368 33.3849 41.3478 34.9107 39.1807C36.4366 37.0137 37.251 34.4659 37.251 31.8595C37.2472 28.366 35.7832 25.0167 33.1803 22.5462C30.5775 20.0758 27.0483 18.6861 23.3671 18.682Z" fill="#FDFDFD"/>
<path d="M23.3648 39.2671C21.8205 39.2671 20.3109 38.8325 19.0268 38.0183C17.7428 37.2041 16.742 36.0468 16.151 34.6928C15.56 33.3388 15.4054 31.8489 15.7067 30.4116C16.008 28.9742 16.7516 27.6538 17.8436 26.6175C18.9356 25.5812 20.3269 24.8755 21.8415 24.5896C23.3561 24.3037 24.9261 24.4504 26.3528 25.0113C27.7796 25.5721 28.9991 26.5219 29.857 27.7404C30.715 28.959 31.1729 30.3916 31.1729 31.8572C31.1711 33.8219 30.3479 35.7056 28.884 37.0949C27.4201 38.4841 25.4351 39.2654 23.3648 39.2671ZM23.3648 26.0798C22.1599 26.0798 20.9821 26.4189 19.9802 27.0542C18.9784 27.6894 18.1975 28.5924 17.7365 29.6488C17.2754 30.7052 17.1547 31.8676 17.3898 32.9891C17.6248 34.1106 18.2051 35.1407 19.057 35.9493C19.909 36.7578 20.9945 37.3085 22.1763 37.5315C23.358 37.7546 24.5829 37.6401 25.6961 37.2025C26.8093 36.765 27.7608 36.0239 28.4302 35.0732C29.0996 34.1225 29.4569 33.0047 29.4569 31.8612C29.4555 30.3283 28.8132 28.8585 27.671 27.7746C26.5288 26.6907 24.9801 26.0811 23.3648 26.0798Z" fill="#FDFDFD"/>
<path d="M24.4126 31.8596C24.2422 31.8596 24.0756 31.8114 23.9342 31.7212C23.7928 31.6311 23.6828 31.5029 23.6184 31.3532C23.5539 31.2035 23.538 31.039 23.5724 30.8806C23.6069 30.7222 23.6903 30.5772 23.812 30.464L47.015 8.90671C47.0951 8.83007 47.1904 8.76929 47.2954 8.72792C47.4004 8.68654 47.5131 8.66539 47.6268 8.66568C47.7405 8.66598 47.853 8.68772 47.9578 8.72965C48.0626 8.77158 48.1575 8.83285 48.2371 8.90991C48.3167 8.98696 48.3794 9.07827 48.4215 9.17851C48.4636 9.27876 48.4843 9.38594 48.4823 9.49384C48.4804 9.60173 48.4559 9.70819 48.4102 9.80701C48.3645 9.90584 48.2986 9.99506 48.2163 10.0695L25.0132 31.6268C24.8529 31.776 24.6372 31.8596 24.4126 31.8596Z" fill="#FDFDFD"/>
<path d="M51.022 13.5986H50.974L44.3868 13.2477C44.179 13.2366 43.9825 13.1541 43.8339 13.0157C43.6854 12.8773 43.5949 12.6923 43.5794 12.4953L43.0534 5.85645C43.044 5.73885 43.0616 5.62071 43.105 5.51021C43.1484 5.3997 43.2166 5.29946 43.3048 5.21642L48.5861 0.236282C48.6964 0.132393 48.8344 0.0588905 48.9853 0.0236224C49.1362 -0.0116456 49.2943 -0.00735431 49.4429 0.0360382C49.5914 0.0794308 49.7248 0.160295 49.8286 0.269995C49.9325 0.379696 50.0031 0.514114 50.0327 0.658894L51.1482 6.11946L56.3178 7.13731C56.4694 7.16743 56.6096 7.23593 56.7235 7.33553C56.8373 7.43513 56.9207 7.56212 56.9647 7.70303C57.0087 7.84395 57.0116 7.99354 56.9733 8.13593C56.9349 8.27832 56.8567 8.40821 56.7469 8.51181L51.6278 13.3543C51.5488 13.4309 51.4545 13.4919 51.3506 13.5338C51.2466 13.5757 51.135 13.5977 51.022 13.5986ZM45.2346 11.6598L50.6883 11.9505L54.413 8.42876L50.2438 7.60796C50.0783 7.5753 49.9267 7.49698 49.8079 7.38283C49.6891 7.26867 49.6085 7.12377 49.5762 6.96631L48.6513 2.4666L44.7901 6.10236L45.2346 11.6598Z" fill="#FDFDFD"/>
<path d="M37.0804 57.0002C36.9432 57.0004 36.8079 56.9694 36.6859 56.9097C36.5639 56.8501 36.4588 56.7635 36.3794 56.6574L32.5628 51.5518C32.4944 51.4648 32.4451 51.3658 32.4176 51.2604C32.3902 51.1551 32.3852 51.0456 32.403 50.9384C32.4208 50.8312 32.461 50.7284 32.5212 50.6362C32.5814 50.5439 32.6605 50.464 32.7537 50.4012C32.8469 50.3383 32.9524 50.2938 33.064 50.2702C33.1756 50.2466 33.2911 50.2444 33.4036 50.2638C33.5161 50.2831 33.6234 50.3236 33.7192 50.3829C33.815 50.4422 33.8973 50.519 33.9614 50.6089L37.3155 55.0939L40.9312 52.9931L37.6595 48.2597C37.5976 48.1702 37.5548 48.0701 37.5336 47.9649C37.5124 47.8598 37.5132 47.7517 37.5361 47.6469C37.5589 47.542 37.6033 47.4425 37.6666 47.3539C37.73 47.2654 37.8111 47.1895 37.9054 47.1307C37.9996 47.0719 38.1052 47.0313 38.216 47.0111C38.3268 46.991 38.4406 46.9918 38.5511 47.0135C38.6616 47.0352 38.7665 47.0773 38.8598 47.1374C38.9531 47.1975 39.0331 47.2745 39.095 47.364L42.8515 52.7993C42.9144 52.8905 42.9573 52.9927 42.9778 53.0999C42.9983 53.207 42.9959 53.317 42.9708 53.4233C42.9457 53.5296 42.8983 53.6301 42.8316 53.7187C42.7648 53.8073 42.68 53.8823 42.5821 53.9393L37.5274 56.8764C37.3933 56.956 37.2386 56.9988 37.0804 57.0002Z" fill="#FDFDFD"/>
<path d="M9.6523 56.9997C9.49424 56.9998 9.33924 56.9583 9.20441 56.88L4.1497 53.9429C4.05185 53.886 3.96702 53.811 3.90026 53.7224C3.8335 53.6337 3.78616 53.5333 3.76103 53.427C3.73591 53.3207 3.73352 53.2107 3.754 53.1035C3.77449 52.9963 3.81743 52.8941 3.88028 52.8029L7.63763 47.366C7.76279 47.1853 7.95844 47.0593 8.18155 47.0155C8.40466 46.9718 8.63694 47.0139 8.8273 47.1327C9.01766 47.2515 9.1505 47.4372 9.1966 47.6489C9.2427 47.8606 9.19829 48.0811 9.07313 48.2617L5.80143 52.9927L9.4172 55.0935L12.7704 50.6085C12.8357 50.5213 12.9184 50.4471 13.0138 50.3902C13.1092 50.3334 13.2155 50.2949 13.3266 50.277C13.4378 50.2591 13.5515 50.2622 13.6614 50.286C13.7712 50.3098 13.8751 50.354 13.9669 50.4159C14.0588 50.4778 14.137 50.5563 14.1969 50.6469C14.2568 50.7374 14.2974 50.8383 14.3162 50.9438C14.3351 51.0492 14.3318 51.1571 14.3067 51.2614C14.2816 51.3656 14.2351 51.4642 14.1699 51.5514L10.3525 56.6569C10.2731 56.763 10.1681 56.8495 10.0463 56.9091C9.92448 56.9688 9.78938 56.9998 9.6523 56.9997Z" fill="#FDFDFD"/>
</svg>
